<?xml version="1.0" encoding="UTF-8" standalone="no"?>
<!-- Created with Inkscape (http://www.inkscape.org/) -->

<svg
   width="64mm"
   height="64mm"
   viewBox="0 0 64 64"
   version="1.1"
   id="svg5"
   inkscape:version="1.1.2 (0a00cf5339, 2022-02-04)"
   sodipodi:docname="settings.svg"
   xmlns:inkscape="http://www.inkscape.org/namespaces/inkscape"
   xmlns:sodipodi="http://sodipodi.sourceforge.net/DTD/sodipodi-0.dtd"
   xmlns="http://www.w3.org/2000/svg"
   xmlns:svg="http://www.w3.org/2000/svg">
  <sodipodi:namedview
     id="namedview7"
     pagecolor="#ffffff"
     bordercolor="#666666"
     borderopacity="1.0"
     inkscape:pageshadow="2"
     inkscape:pageopacity="0.0"
     inkscape:pagecheckerboard="0"
     inkscape:document-units="mm"
     showgrid="false"
     inkscape:zoom="2.9667924"
     inkscape:cx="94.883618"
     inkscape:cy="119.15225"
     inkscape:window-width="1920"
     inkscape:window-height="995"
     inkscape:window-x="0"
     inkscape:window-y="0"
     inkscape:window-maximized="1"
     inkscape:current-layer="layer1" />
  <defs
     id="defs2">
    <rect
       x="68.900987"
       y="58.992104"
       width="144.50654"
       height="53.298553"
       id="rect68014" />
    <rect
       x="168.80609"
       y="153.06773"
       width="133.55224"
       height="85.855013"
       id="rect54394" />
    <rect
       x="9.015093"
       y="93.247056"
       width="114.67109"
       height="73.99264"
       id="rect33496" />
    <rect
       x="68.900986"
       y="58.992104"
       width="144.50655"
       height="53.298553"
       id="rect68014-7" />
    <rect
       x="68.900986"
       y="58.992104"
       width="144.50655"
       height="53.298553"
       id="rect68014-7-3" />
  </defs>
  <g
     inkscape:label="Layer 1"
     inkscape:groupmode="layer"
     id="layer1">
    <path
       id="rect1650"
       style="stroke:#ffffff;stroke-width:0.278644"
       d="M 3.6813002,4.844357 H 59.565562 v 9.721355 H 3.6813002 Z" />
    <g
       aria-label="abc"
       transform="matrix(0.26458333,0,0,0.26458333,-41.214595,-36.391495)"
       id="text54392"
       style="font-size:40px;line-height:1.25;-inkscape-font-specification:sans-serif;white-space:pre;shape-inside:url(#rect54394)">
      <path
         d="m 182.51758,177.46289 q -4.35547,0 -6.03516,0.99609 -1.67969,0.9961 -1.67969,3.39844 0,1.91406 1.25,3.04688 1.26954,1.11328 3.4375,1.11328 2.98829,0 4.78516,-2.10938 1.81641,-2.1289 1.81641,-5.64453 v -0.80078 z m 7.16797,-1.48437 v 12.48046 h -3.59375 v -3.32031 q -1.23047,1.99219 -3.06641,2.94922 -1.83594,0.9375 -4.49219,0.9375 -3.35937,0 -5.35156,-1.875 -1.97266,-1.89453 -1.97266,-5.05859 0,-3.69141 2.46094,-5.56641 2.48047,-1.875 7.38281,-1.875 h 5.03907 v -0.35156 q 0,-2.48047 -1.64063,-3.82813 -1.62109,-1.36718 -4.57031,-1.36718 -1.875,0 -3.65234,0.44921 -1.77735,0.44922 -3.41797,1.34766 v -3.32031 q 1.97265,-0.76172 3.82812,-1.13281 1.85547,-0.39063 3.61328,-0.39063 4.7461,0 7.08985,2.46094 2.34375,2.46094 2.34375,7.46094 z"
         style="fill:#ffffff"
         id="path69273" />
      <path
         d="m 212.79102,177.54102 q 0,-3.96485 -1.64063,-6.21094 -1.62109,-2.26563 -4.47266,-2.26563 -2.85156,0 -4.49218,2.26563 -1.6211,2.24609 -1.6211,6.21094 0,3.96484 1.6211,6.23046 1.64062,2.2461 4.49218,2.2461 2.85157,0 4.47266,-2.2461 1.64063,-2.26562 1.64063,-6.23046 z m -12.22657,-7.63672 q 1.13282,-1.95313 2.85157,-2.89063 1.73828,-0.95703 4.14062,-0.95703 3.98438,0 6.46484,3.16406 2.5,3.16407 2.5,8.32032 0,5.15625 -2.5,8.32031 -2.48046,3.16406 -6.46484,3.16406 -2.40234,0 -4.14062,-0.9375 -1.71875,-0.95703 -2.85157,-2.91016 v 3.28125 h -3.61328 v -30.39062 h 3.61328 z"
         style="fill:#ffffff"
         id="path69275" />
      <path
         d="m 238.2207,167.42383 v 3.35937 q -1.52343,-0.83984 -3.0664,-1.25 -1.52344,-0.42968 -3.08594,-0.42968 -3.49609,0 -5.42969,2.22656 -1.93359,2.20703 -1.93359,6.21094 0,4.0039 1.93359,6.23046 1.9336,2.20704 5.42969,2.20704 1.5625,0 3.08594,-0.41016 1.54297,-0.42969 3.0664,-1.26953 v 3.32031 q -1.5039,0.70313 -3.125,1.05469 -1.60156,0.35156 -3.41797,0.35156 -4.9414,0 -7.85156,-3.10547 -2.91015,-3.10547 -2.91015,-8.3789 0,-5.35157 2.92968,-8.41797 2.94922,-3.06641 8.06641,-3.06641 1.66016,0 3.24219,0.35156 1.58203,0.33203 3.0664,1.01563 z"
         style="fill:#ffffff"
         id="path69277" />
    </g>
    <path
       id="path59372"
       style="fill:#0000ff;stroke:#ffffff;stroke-width:0"
       d="M 14.327405,26.583107 A 4.8962588,4.8962588 0 0 1 9.4311466,31.479366 4.8962588,4.8962588 0 0 1 4.5348878,26.583107 4.8962588,4.8962588 0 0 1 9.4311466,21.686848 4.8962588,4.8962588 0 0 1 14.327405,26.583107 Z" />
    <path
       id="path59578"
       style="fill:#ffffff;stroke:#ffffff;stroke-width:0"
       d="M 11.818341,26.367859 A 2.3779144,2.3978233 0 0 1 9.4404268,28.765682 2.3779144,2.3978233 0 0 1 7.0625124,26.367859 2.3779144,2.3978233 0 0 1 9.4404268,23.970036 2.3779144,2.3978233 0 0 1 11.818341,26.367859 Z" />
    <path
       id="path59578-3"
       style="fill:#cccccc;stroke:#ffffff;stroke-width:0"
       d="M 14.35675,37.954777 A 5.0907106,5.1333323 0 0 1 9.2660389,43.088109 5.0907106,5.1333323 0 0 1 4.1753283,37.954777 5.0907106,5.1333323 0 0 1 9.2660389,32.821445 5.0907106,5.1333323 0 0 1 14.35675,37.954777 Z" />
    <path
       id="path59578-3-6"
       style="fill:#cccccc;stroke:#ffffff;stroke-width:0"
       d="M 14.180615,50.069134 A 5.0907106,5.1333323 0 0 1 9.0899048,55.202466 5.0907106,5.1333323 0 0 1 3.9991941,50.069134 5.0907106,5.1333323 0 0 1 9.0899048,44.935802 5.0907106,5.1333323 0 0 1 14.180615,50.069134 Z" />
    <g
       aria-label="Option"
       transform="matrix(0.26458333,0,0,0.26458333,0.93948922,4.7773382)"
       id="text68012"
       style="font-size:40px;line-height:1.25;-inkscape-font-specification:sans-serif;white-space:pre;shape-inside:url(#rect68014);fill:#ffffff">
      <path
         d="m 84.662109,67.898437 q -4.296875,0 -6.835937,3.203125 -2.519531,3.203125 -2.519531,8.730469 0,5.507813 2.519531,8.710938 2.539062,3.203125 6.835937,3.203125 4.296875,0 6.796875,-3.203125 2.519532,-3.203125 2.519532,-8.710938 0,-5.527344 -2.519532,-8.730469 -2.5,-3.203125 -6.796875,-3.203125 z m 0,-3.203125 q 6.132813,0 9.804688,4.121094 3.671875,4.101563 3.671875,11.015625 0,6.894531 -3.671875,11.015625 -3.671875,4.101563 -9.804688,4.101563 -6.152343,0 -9.84375,-4.101563 -3.671875,-4.101562 -3.671875,-11.015625 0,-6.914062 3.671875,-11.015625 3.691407,-4.121094 9.84375,-4.121094 z"
         id="path69256" />
      <path
         d="m 107.63086,91.101562 v 11.601568 h -3.61328 V 72.507812 h 3.61328 v 3.320313 q 1.13281,-1.953125 2.85156,-2.890625 1.73828,-0.957031 4.14063,-0.957031 3.98437,0 6.46484,3.164062 2.5,3.164063 2.5,8.320313 0,5.15625 -2.5,8.320312 -2.48047,3.164063 -6.46484,3.164063 -2.40235,0 -4.14063,-0.9375 -1.71875,-0.957032 -2.85156,-2.910157 z m 12.22656,-7.636718 q 0,-3.964844 -1.64062,-6.210938 -1.6211,-2.265625 -4.47266,-2.265625 -2.85156,0 -4.49219,2.265625 -1.62109,2.246094 -1.62109,6.210938 0,3.964843 1.62109,6.230468 1.64063,2.246094 4.49219,2.246094 2.85156,0 4.47266,-2.246094 1.64062,-2.265625 1.64062,-6.230468 z"
         id="path69258" />
      <path
         d="m 133.09961,66.296875 v 6.210937 h 7.40234 v 2.792969 h -7.40234 v 11.875 q 0,2.675781 0.72266,3.4375 0.74218,0.761719 2.98828,0.761719 h 3.6914 v 3.007812 h -3.6914 q -4.16016,0 -5.74219,-1.542968 -1.58203,-1.5625 -1.58203,-5.664063 v -11.875 h -2.63672 v -2.792969 h 2.63672 v -6.210937 z"
         id="path69260" />
      <path
         d="m 145.22852,72.507812 h 3.59375 v 21.875 h -3.59375 z m 0,-8.515625 h 3.59375 v 4.550782 h -3.59375 z"
         id="path69262" />
      <path
         d="m 164.81836,75.027344 q -2.89063,0 -4.57031,2.265625 -1.67969,2.246093 -1.67969,6.171875 0,3.925781 1.66016,6.191406 1.67968,2.246094 4.58984,2.246094 2.87109,0 4.55078,-2.265625 1.67969,-2.265625 1.67969,-6.171875 0,-3.886719 -1.67969,-6.152344 -1.67969,-2.285156 -4.55078,-2.285156 z m 0,-3.046875 q 4.6875,0 7.36328,3.046875 2.67578,3.046875 2.67578,8.4375 0,5.371093 -2.67578,8.4375 -2.67578,3.046875 -7.36328,3.046875 -4.70703,0 -7.38281,-3.046875 -2.65625,-3.066407 -2.65625,-8.4375 0,-5.390625 2.65625,-8.4375 2.67578,-3.046875 7.38281,-3.046875 z"
         id="path69264" />
      <path
         d="M 198.99805,81.179687 V 94.382812 H 195.4043 V 81.296875 q 0,-3.105469 -1.21094,-4.648438 -1.21094,-1.542968 -3.63281,-1.542968 -2.91016,0 -4.58985,1.855468 -1.67968,1.855469 -1.67968,5.058594 v 12.363281 h -3.61329 v -21.875 h 3.61329 v 3.398438 q 1.28906,-1.972656 3.02734,-2.949219 1.75781,-0.976562 4.04297,-0.976562 3.76953,0 5.70312,2.34375 1.9336,2.324218 1.9336,6.855468 z"
         id="path69266" />
    </g>
    <g
       aria-label="Option"
       transform="matrix(0.26458333,0,0,0.26458333,0.85008693,15.661589)"
       id="text68012-5"
       style="font-size:40px;line-height:1.25;-inkscape-font-specification:sans-serif;white-space:pre;shape-inside:url(#rect68014-7);fill:#ffffff">
      <path
         d="m 84.662109,67.898437 q -4.296875,0 -6.835937,3.203125 -2.519531,3.203125 -2.519531,8.730469 0,5.507813 2.519531,8.710938 2.539062,3.203125 6.835937,3.203125 4.296875,0 6.796875,-3.203125 2.519532,-3.203125 2.519532,-8.710938 0,-5.527344 -2.519532,-8.730469 -2.5,-3.203125 -6.796875,-3.203125 z m 0,-3.203125 q 6.132813,0 9.804688,4.121094 3.671875,4.101563 3.671875,11.015625 0,6.894531 -3.671875,11.015625 -3.671875,4.101563 -9.804688,4.101563 -6.152343,0 -9.84375,-4.101563 -3.671875,-4.101562 -3.671875,-11.015625 0,-6.914062 3.671875,-11.015625 3.691407,-4.121094 9.84375,-4.121094 z"
         id="path69243" />
      <path
         d="m 107.63086,91.101562 v 11.601568 h -3.61328 V 72.507812 h 3.61328 v 3.320313 q 1.13281,-1.953125 2.85156,-2.890625 1.73828,-0.957031 4.14063,-0.957031 3.98437,0 6.46484,3.164062 2.5,3.164063 2.5,8.320313 0,5.15625 -2.5,8.320312 -2.48047,3.164063 -6.46484,3.164063 -2.40235,0 -4.14063,-0.9375 -1.71875,-0.957032 -2.85156,-2.910157 z m 12.22656,-7.636718 q 0,-3.964844 -1.64062,-6.210938 -1.6211,-2.265625 -4.47266,-2.265625 -2.85156,0 -4.49219,2.265625 -1.62109,2.246094 -1.62109,6.210938 0,3.964843 1.62109,6.230468 1.64063,2.246094 4.49219,2.246094 2.85156,0 4.47266,-2.246094 1.64062,-2.265625 1.64062,-6.230468 z"
         id="path69245" />
      <path
         d="m 133.09961,66.296875 v 6.210937 h 7.40234 v 2.792969 h -7.40234 v 11.875 q 0,2.675781 0.72266,3.4375 0.74218,0.761719 2.98828,0.761719 h 3.6914 v 3.007812 h -3.6914 q -4.16016,0 -5.74219,-1.542968 -1.58203,-1.5625 -1.58203,-5.664063 v -11.875 h -2.63672 v -2.792969 h 2.63672 v -6.210937 z"
         id="path69247" />
      <path
         d="m 145.22852,72.507812 h 3.59375 v 21.875 h -3.59375 z m 0,-8.515625 h 3.59375 v 4.550782 h -3.59375 z"
         id="path69249" />
      <path
         d="m 164.81836,75.027344 q -2.89063,0 -4.57031,2.265625 -1.67969,2.246093 -1.67969,6.171875 0,3.925781 1.66016,6.191406 1.67968,2.246094 4.58984,2.246094 2.87109,0 4.55078,-2.265625 1.67969,-2.265625 1.67969,-6.171875 0,-3.886719 -1.67969,-6.152344 -1.67969,-2.285156 -4.55078,-2.285156 z m 0,-3.046875 q 4.6875,0 7.36328,3.046875 2.67578,3.046875 2.67578,8.4375 0,5.371093 -2.67578,8.4375 -2.67578,3.046875 -7.36328,3.046875 -4.70703,0 -7.38281,-3.046875 -2.65625,-3.066407 -2.65625,-8.4375 0,-5.390625 2.65625,-8.4375 2.67578,-3.046875 7.38281,-3.046875 z"
         id="path69251" />
      <path
         d="M 198.99805,81.179687 V 94.382812 H 195.4043 V 81.296875 q 0,-3.105469 -1.21094,-4.648438 -1.21094,-1.542968 -3.63281,-1.542968 -2.91016,0 -4.58985,1.855468 -1.67968,1.855469 -1.67968,5.058594 v 12.363281 h -3.61329 v -21.875 h 3.61329 v 3.398438 q 1.28906,-1.972656 3.02734,-2.949219 1.75781,-0.976562 4.04297,-0.976562 3.76953,0 5.70312,2.34375 1.9336,2.324218 1.9336,6.855468 z"
         id="path69253" />
    </g>
    <g
       aria-label="Option"
       transform="matrix(0.26458333,0,0,0.26458333,1.0142431,27.293077)"
       id="text68012-5-5"
       style="font-size:40px;line-height:1.25;-inkscape-font-specification:sans-serif;white-space:pre;shape-inside:url(#rect68014-7-3);fill:#ffffff">
      <path
         d="m 84.662109,67.898437 q -4.296875,0 -6.835937,3.203125 -2.519531,3.203125 -2.519531,8.730469 0,5.507813 2.519531,8.710938 2.539062,3.203125 6.835937,3.203125 4.296875,0 6.796875,-3.203125 2.519532,-3.203125 2.519532,-8.710938 0,-5.527344 -2.519532,-8.730469 -2.5,-3.203125 -6.796875,-3.203125 z m 0,-3.203125 q 6.132813,0 9.804688,4.121094 3.671875,4.101563 3.671875,11.015625 0,6.894531 -3.671875,11.015625 -3.671875,4.101563 -9.804688,4.101563 -6.152343,0 -9.84375,-4.101563 -3.671875,-4.101562 -3.671875,-11.015625 0,-6.914062 3.671875,-11.015625 3.691407,-4.121094 9.84375,-4.121094 z"
         id="path69230" />
      <path
         d="m 107.63086,91.101562 v 11.601568 h -3.61328 V 72.507812 h 3.61328 v 3.320313 q 1.13281,-1.953125 2.85156,-2.890625 1.73828,-0.957031 4.14063,-0.957031 3.98437,0 6.46484,3.164062 2.5,3.164063 2.5,8.320313 0,5.15625 -2.5,8.320312 -2.48047,3.164063 -6.46484,3.164063 -2.40235,0 -4.14063,-0.9375 -1.71875,-0.957032 -2.85156,-2.910157 z m 12.22656,-7.636718 q 0,-3.964844 -1.64062,-6.210938 -1.6211,-2.265625 -4.47266,-2.265625 -2.85156,0 -4.49219,2.265625 -1.62109,2.246094 -1.62109,6.210938 0,3.964843 1.62109,6.230468 1.64063,2.246094 4.49219,2.246094 2.85156,0 4.47266,-2.246094 1.64062,-2.265625 1.64062,-6.230468 z"
         id="path69232" />
      <path
         d="m 133.09961,66.296875 v 6.210937 h 7.40234 v 2.792969 h -7.40234 v 11.875 q 0,2.675781 0.72266,3.4375 0.74218,0.761719 2.98828,0.761719 h 3.6914 v 3.007812 h -3.6914 q -4.16016,0 -5.74219,-1.542968 -1.58203,-1.5625 -1.58203,-5.664063 v -11.875 h -2.63672 v -2.792969 h 2.63672 v -6.210937 z"
         id="path69234" />
      <path
         d="m 145.22852,72.507812 h 3.59375 v 21.875 h -3.59375 z m 0,-8.515625 h 3.59375 v 4.550782 h -3.59375 z"
         id="path69236" />
      <path
         d="m 164.81836,75.027344 q -2.89063,0 -4.57031,2.265625 -1.67969,2.246093 -1.67969,6.171875 0,3.925781 1.66016,6.191406 1.67968,2.246094 4.58984,2.246094 2.87109,0 4.55078,-2.265625 1.67969,-2.265625 1.67969,-6.171875 0,-3.886719 -1.67969,-6.152344 -1.67969,-2.285156 -4.55078,-2.285156 z m 0,-3.046875 q 4.6875,0 7.36328,3.046875 2.67578,3.046875 2.67578,8.4375 0,5.371093 -2.67578,8.4375 -2.67578,3.046875 -7.36328,3.046875 -4.70703,0 -7.38281,-3.046875 -2.65625,-3.066407 -2.65625,-8.4375 0,-5.390625 2.65625,-8.4375 2.67578,-3.046875 7.38281,-3.046875 z"
         id="path69238" />
      <path
         d="M 198.99805,81.179687 V 94.382812 H 195.4043 V 81.296875 q 0,-3.105469 -1.21094,-4.648438 -1.21094,-1.542968 -3.63281,-1.542968 -2.91016,0 -4.58985,1.855468 -1.67968,1.855469 -1.67968,5.058594 v 12.363281 h -3.61329 v -21.875 h 3.61329 v 3.398438 q 1.28906,-1.972656 3.02734,-2.949219 1.75781,-0.976562 4.04297,-0.976562 3.76953,0 5.70312,2.34375 1.9336,2.324218 1.9336,6.855468 z"
         id="path69240" />
    </g>
  </g>
</svg>
