<?xml version="1.0" encoding="UTF-8" standalone="no"?>
<!-- Created with Inkscape (http://www.inkscape.org/) -->

<svg
   width="64mm"
   height="64mm"
   viewBox="0 0 64 64"
   version="1.1"
   id="svg5"
   inkscape:version="1.1.2 (0a00cf5339, 2022-02-04)"
   sodipodi:docname="icon.svg"
   xmlns:inkscape="http://www.inkscape.org/namespaces/inkscape"
   xmlns:sodipodi="http://sodipodi.sourceforge.net/DTD/sodipodi-0.dtd"
   xmlns="http://www.w3.org/2000/svg"
   xmlns:svg="http://www.w3.org/2000/svg">
  <sodipodi:namedview
     id="namedview7"
     pagecolor="#ffffff"
     bordercolor="#666666"
     borderopacity="1.0"
     inkscape:pageshadow="2"
     inkscape:pageopacity="0.0"
     inkscape:pagecheckerboard="0"
     inkscape:document-units="mm"
     showgrid="false"
     inkscape:zoom="0.37299271"
     inkscape:cx="-65.684929"
     inkscape:cy="400.81212"
     inkscape:window-width="1920"
     inkscape:window-height="995"
     inkscape:window-x="0"
     inkscape:window-y="0"
     inkscape:window-maximized="1"
     inkscape:current-layer="layer1-5" />
  <defs
     id="defs2" />
  <g
     inkscape:label="Layer 1"
     inkscape:groupmode="layer"
     id="layer1">
    <g
       inkscape:label="Layer 1"
       inkscape:groupmode="layer"
       id="layer1-5"
       transform="matrix(0.26458333,0,0,0.26458333,101.13686,141.91449)">
      <path
         id="rect2694"
         style="fill:#00ff00;stroke:#000000;stroke-width:0"
         d="m -284.25864,-383.53906 h 66.49639 c 12.3198,8.0082 19.94793,16.57355 0,28.4136 h -66.49639 c -21.38168,-9.84271 -17.32111,-19.24336 0,-28.4136 z"
         sodipodi:nodetypes="ccccc" />
      <path
         id="rect2694-3"
         style="fill:#ff0000;stroke:#000000;stroke-width:0"
         d="m -408.05407,-385.46419 h 66.49639 c 12.3198,8.0082 19.94793,16.57355 0,28.4136 h -66.49639 c -21.38168,-9.84271 -17.32111,-19.24336 0,-28.4136 z"
         sodipodi:nodetypes="ccccc" />
      <path
         id="rect2694-3-5"
         style="fill:#0000ff;stroke:#000000;stroke-width:0"
         d="m -407.32464,-429.28697 h 66.49639 c 12.3198,8.0082 19.94793,16.57355 0,28.4136 h -66.49639 c -21.38168,-9.84271 -17.32111,-19.24336 0,-28.4136 z"
         sodipodi:nodetypes="ccccc"
         inkscape:transform-center-x="-1.2304755"
         inkscape:transform-center-y="8.5244345" />
      <path
         id="rect2694-3-5-6"
         style="fill:#ffff00;stroke:#000000;stroke-width:0"
         d="m -286.53559,-431.47385 h 66.49639 c 12.3198,8.0082 19.94793,16.57355 0,28.4136 h -66.49639 c -21.38169,-9.84271 -17.32111,-19.24336 0,-28.4136 z"
         sodipodi:nodetypes="ccccc"
         inkscape:transform-center-x="-1.2304755"
         inkscape:transform-center-y="8.5244345" />
      <path
         style="fill:#a05a2c;stroke:#000000;stroke-width:0;stroke-miterlimit:4;stroke-dasharray:none"
         id="path2203"
         d="m -305.88483,-451.20233 c -0.35314,-0.51536 -0.46015,-1.15485 -0.56981,-1.75893 -0.0101,-0.0752 -0.033,-0.14986 -0.0301,-0.22572 0.006,-0.16446 0.1258,-0.18963 0.10298,-0.1772 -22.63211,12.32546 -17.93088,2.89443 -16.41744,9.37985 0.1881,0.97663 0.14905,1.9769 0.0937,2.96413 -0.0745,1.35164 -0.34158,2.68092 -0.60304,4.00587 -0.27292,1.39628 -0.67201,2.76221 -1.0559,4.13064 -0.22487,0.76113 -0.44062,1.52214 -0.49234,2.3163 -0.0119,0.76646 0.0297,1.53194 0.0369,2.29842 -0.007,1.28262 -0.0555,2.56376 -0.15506,3.84243 -0.14991,1.41583 -0.35901,2.82409 -0.48786,4.2423 -0.10046,1.43758 -0.26115,2.86972 -0.34861,4.30819 -0.0632,1.65707 0.008,3.3157 0.0947,4.97053 0.1999,2.91121 0.34007,5.82348 0.35419,8.74161 -0.0699,4.10834 -0.48606,8.19902 -0.75411,12.29689 -0.23691,4.30091 -0.34194,8.60779 -0.46804,12.91302 -0.0987,5.4984 -0.45235,10.98351 -1.00547,16.45357 -0.56962,5.71296 -1.3156,11.40466 -2.16241,17.0824 -0.57019,3.71511 -1.15443,7.42792 -1.72378,11.14318 -0.25676,1.65175 -0.55383,3.29713 -0.76956,4.95499 -0.0797,0.63359 -0.15112,1.2684 -0.20782,1.90449 0.009,0.0589 -0.0839,0.56331 -0.17786,0.53951 -0.0443,-0.0112 -0.0733,-0.0547 -0.10992,-0.082 -3.76713,-5.32879 -0.32854,-0.29739 16.38134,-8.9587 0.0396,-0.0205 0.0454,0.0978 0.0174,0.1325 -0.0209,0.0259 -0.0709,-0.0153 -0.0902,-0.0423 -0.10655,-0.14939 -0.20553,-0.30646 -0.27862,-0.47477 -0.13877,-0.31953 -0.23635,-0.65541 -0.35452,-0.98311 -0.11423,-0.49069 -0.24904,-0.97704 -0.34268,-1.47207 -0.76056,-4.02108 -0.80529,-8.16836 -0.92827,-12.24456 -0.16675,-5.60892 -0.0305,-11.22367 0.49124,-16.81195 0.11207,-1.20045 0.26051,-2.39724 0.39076,-3.59585 0.85814,-6.92888 2.21311,-13.78121 3.31453,-20.67289 0.79377,-4.78448 1.48716,-9.59855 2.68553,-14.30431 0.19037,-0.74753 0.41111,-1.48699 0.61667,-2.23049 0.49129,-1.63997 1.06237,-3.25618 1.74024,-4.82854 0.33176,-0.76953 0.67575,-1.4823 1.16626,-2.15894 0.10929,-0.0474 0.43257,-0.19923 0.32787,-0.14235 -5.42874,2.94944 -10.81664,5.9764 -16.30122,8.82066 -0.0975,0.0506 -0.14042,-0.41623 -0.10624,-0.31186 0.11888,0.36293 0.28279,0.71362 0.36034,1.08757 0.33131,1.59764 0.29456,2.79804 0.35857,4.46171 0.02,8.40908 -0.0797,16.81847 -0.2448,25.22588 -0.36156,10.9939 -0.97934,21.97667 -1.52133,32.9625 -0.34996,7.52393 -0.87101,15.03779 -1.80855,22.51235 -0.1907,1.4509 -0.41591,2.89782 -0.70591,4.33239 -0.0491,0.24298 -0.11715,0.48222 -0.15748,0.72682 -0.0353,0.21441 -0.26158,0.74929 -0.0692,0.64822 5.52289,-2.90183 10.87321,-6.12088 16.30981,-9.18131 -0.13549,-0.41526 -0.31499,-0.81866 -0.40646,-1.24578 -0.13937,-0.65084 -0.21278,-1.31473 -0.28359,-1.97654 -0.2031,-1.89797 -0.28837,-3.99725 -0.35241,-5.8906 -0.1167,-3.45021 -0.1001,-4.33756 -0.12909,-7.87841 0.0704,-6.44243 -0.0265,-12.88726 0.16693,-19.32819 0.14496,-4.82702 0.24783,-5.83391 0.5508,-10.66489 0.69579,-10.02718 2.01452,-19.99142 3.40489,-29.94094 0.83515,-5.81741 1.71714,-11.63376 3.02732,-17.36576 0.2441,-0.95773 0.44649,-1.936 0.80742,-2.86001 0.0526,-0.13461 0.0851,-0.28626 0.18187,-0.39355 0.0556,-0.0616 0.31181,-0.11023 0.23822,-0.072 -5.52828,2.87412 -11.07067,5.721 -16.60601,8.5815 0.17544,0.3231 0.40313,0.62289 0.5263,0.9693 1.00749,2.83343 0.96236,5.95943 1.00816,8.91753 0.0466,3.01119 0.0221,6.02307 0.0322,9.0346 0.0152,1.69591 0.0135,3.39205 0.0455,5.08773 0.0409,2.17107 0.26685,8.97676 0.33271,11.07932 0.17954,5.73156 0.36983,11.46064 0.60941,17.19005 0.25057,5.39399 0.52258,10.78905 0.92867,16.17405 0.35872,4.75685 0.45799,5.08777 0.8626,9.77552 0.12805,1.48355 0.23749,2.96865 0.35623,4.45298 0.42201,5.98566 1.02,11.96095 1.29195,17.95628 0.0488,1.2445 0.0542,2.49037 0.0171,3.73519 -0.0148,0.49556 -0.0753,0.98291 -0.0688,1.47757 3.46659,6.35701 0.52427,1.67022 16.68335,-8.61025 0.19894,-0.12657 -0.13551,-0.45241 -0.18183,-0.6836 -0.0691,-0.34484 -0.11702,-0.69372 -0.16399,-1.04226 -0.16426,-1.21911 -0.2685,-2.37866 -0.39264,-3.60899 -0.59341,-7.2925 -1.32999,-14.57243 -1.88976,-21.86769 -0.10479,-1.58073 -0.20573,-3.16173 -0.31437,-4.74221 -0.21521,-3.13092 -0.50284,-6.87791 -0.69187,-10.00373 -0.31153,-5.15143 -0.49934,-10.30132 -0.6294,-15.45993 0.0157,-4.70941 -0.0975,-9.42217 0.009,-14.13127 0.0326,-1.43717 0.10956,-2.873 0.168,-4.30935 0.0554,-1.36104 0.0932,-2.72302 0.17344,-4.08283 0.0748,-1.26737 0.19439,-2.5317 0.29159,-3.79756 0.44079,-4.88383 1.00687,-9.75941 2.05456,-14.55338 0.13648,-0.53964 0.32191,-1.30686 0.48972,-1.86109 0.0552,-0.18238 0.0836,-0.37934 0.18413,-0.54122 0.0591,-0.0952 0.37246,-0.24793 0.27342,-0.19554 -16.66382,8.81519 -20.46259,4.05933 -15.86597,9.332 0.25851,0.54487 0.56103,1.07097 0.77555,1.63462 1.23961,3.2572 1.85769,6.77595 2.48377,10.18646 0.35679,1.94355 1.32586,7.78098 1.63655,9.63672 0.28003,1.73893 0.56046,3.4778 0.84009,5.2168 0.68447,4.25673 1.04891,6.61404 1.78411,10.87962 1.00317,5.82025 2.08956,11.62611 3.16718,17.43287 1.44287,7.8726 2.642,15.78676 4.04066,23.66691 1.35054,7.42069 0.69372,3.74481 1.97183,11.02738 0.29426,1.70878 0.58548,3.41807 0.88277,5.12632 0.28039,1.61109 0.58044,3.21879 0.85027,4.83169 0.82398,4.92521 1.52065,9.86923 2.06315,14.83291 0.16186,2.55885 0.51541,5.14572 0.31633,7.71439 -0.0205,6.57475 -0.1064,1.42563 16.42946,-8.64962 0.24646,-0.15017 -0.34602,-0.46339 -0.49287,-0.71184 -0.23014,-0.38938 -0.45177,-0.78552 -0.63622,-1.1985 -0.60348,-1.35122 -0.94806,-2.57943 -1.40398,-3.99934 -0.24509,-0.87309 -0.49689,-1.74433 -0.73527,-2.61927 -0.26336,-0.96667 -0.51329,-1.93695 -0.76993,-2.90542 -0.28242,-1.04456 -0.56182,-2.08993 -0.84725,-3.13367 -0.92956,-3.39911 -1.90098,-6.78628 -2.8654,-10.17561 -1.92431,-7.31529 -3.56254,-14.70093 -5.14992,-22.09532 -1.56808,-7.28378 -2.74792,-14.639 -3.90211,-21.99669 -0.96534,-6.50388 -2.04618,-12.98984 -3.18769,-19.46489 -0.96809,-5.62127 -1.70906,-11.27584 -2.298,-16.94819 -0.43792,-4.77648 -0.66317,-9.56817 -0.88104,-14.35862 -0.14843,-3.57316 -0.32324,-7.14502 -0.47332,-10.71814 -0.11395,-2.66502 -0.27851,-5.32792 -0.53026,-7.98354 -0.20958,-2.04655 -0.30422,-4.10189 -0.42358,-6.15491 -0.074,-1.49612 -0.31264,-2.97354 -0.60395,-4.44034 -0.16844,-0.90393 -0.4309,-1.78432 -0.70329,-2.66098 -0.22697,-0.71614 -0.44717,-1.43422 -0.66356,-2.15365 -0.16512,-0.56187 -0.29614,-1.13258 -0.42825,-1.70277 -0.077,-0.35304 -0.1349,-0.70989 -0.22577,-1.05979 -0.0991,-0.39574 -0.33633,-0.71927 -0.58854,-1.03204 -0.2638,-0.30331 -0.58235,-0.42877 -0.97612,-0.4099 -0.35944,0.0858 -0.71422,0.16906 -1.08562,0.20538 -0.46836,0.0609 -0.92778,0.0991 -1.39765,0.035 -0.34123,-0.0488 -0.66897,-0.15147 -0.9866,-0.28248 -0.10483,-0.0466 -0.0861,-0.0314 -0.18877,-0.11233 -0.0433,-0.0341 -0.0863,-0.0688 -0.12627,-0.10678 -0.0547,-0.0519 -0.0922,-0.20027 -0.15746,-0.16244 -16.20909,9.39967 -17.36848,3.47679 -16.04667,9.81657 0.20804,0.36159 0.32209,0.82034 0.60525,1.14182 0.18752,0.2129 0.39458,0.31056 0.63771,0.46294 0,0 15.68069,-9.3433 15.68069,-9.3433 v 0 c -0.17544,-0.5959 -0.26228,-0.81546 0.16341,-0.13948 3.65166,5.2044 0.2515,0.26792 -15.92739,9.60108 -0.0509,0.0294 -0.0959,-0.26634 -0.0909,-0.3045 0.0116,-0.088 0.0591,-0.0706 0.12746,-0.0811 0.38496,-0.0253 0.7623,0.0351 1.13645,0.12479 0.51774,0.11346 1.02969,0.28989 1.5621,0.31131 0.37773,0.0176 0.76634,0.0743 1.13938,0.0333 0.2375,-0.0686 0.32957,-0.19089 0.23007,-0.43715 -0.0235,-0.0549 -0.27997,-0.59758 -0.10685,-0.29868 0.1307,0.30031 0.24099,0.60885 0.35596,0.91539 0.1981,0.55748 0.39942,1.11382 0.59647,1.67167 0.24562,0.70956 0.4824,1.42201 0.72692,2.13192 0.28516,0.81537 0.58274,1.62616 0.87332,2.43957 0.43207,1.28549 0.74674,2.60377 0.89959,3.95369 0.26165,2.00222 0.52213,4.00459 0.79037,6.00594 0.34985,2.55004 0.77409,5.09059 1.01927,7.65422 0.38634,3.45329 0.76491,6.90762 1.19343,10.35598 0.56805,4.66055 1.10604,9.32491 1.71685,13.98013 0.7309,5.62672 1.62749,11.22993 2.84455,16.77428 1.27674,6.37032 2.64648,12.72292 3.77249,19.12254 1.30551,7.29597 2.83213,14.5476 4.41065,21.78901 0.62657,3.01041 0.97169,4.64093 1.576,7.65455 0.986,4.91707 1.94564,9.83937 3.2545,14.68445 1.54246,6.45614 3.14523,12.92937 3.56331,19.58034 0.0664,1.72761 0.17545,2.97046 0.0262,4.66989 -0.0466,0.53118 -0.12142,1.06284 -0.25334,1.57949 -0.0715,0.27991 -0.61226,0.91764 -0.35217,0.79189 11.3496,-5.48739 21.71006,-11.76883 16.25818,-8.46551 -0.43398,-0.43201 -0.77281,-0.93651 -1.09924,-1.45459 -0.89575,-1.42165 -1.65319,-2.92499 -2.35342,-4.45085 -0.35569,-0.83437 -0.73103,-1.66064 -1.06707,-2.50311 -0.81098,-2.03314 -1.73354,-4.64418 -2.39318,-6.69983 -1.14831,-3.57853 -1.51905,-5.06093 -2.49301,-8.76603 -0.42988,-1.63535 -0.84742,-3.27393 -1.27113,-4.91089 -0.42283,-1.74184 -0.86723,-3.47859 -1.26848,-5.22553 -0.76459,-3.32881 -1.68654,-7.84185 -2.35416,-11.18106 -1.18179,-5.91097 -2.28891,-11.83707 -3.23687,-17.79054 -1.71512,-11.35496 -3.32123,-22.73129 -4.50407,-34.1556 -0.13751,-1.73034 -0.30611,-3.45848 -0.41254,-5.19101 -0.34224,-5.57143 -0.39162,-11.21832 0.47563,-16.74848 0.12245,-0.78083 0.31189,-1.54967 0.46783,-2.32451 0.1078,-0.48219 0.77932,-1.63697 0.32339,-1.44657 -5.68273,2.37313 -11.07733,5.38757 -16.5452,8.22086 -0.0932,0.0483 0.13472,0.16467 0.17577,0.26127 0.24671,0.58059 0.25074,1.3044 0.42931,1.89888 0.70956,4.29203 0.92837,8.63668 1.15166,12.9764 0.20784,4.90659 0.12134,2.39066 0.25328,7.54801 0.0512,1.37974 0.14057,2.75784 0.19908,4.13729 0.19488,4.59495 0.34254,9.19294 0.75392,13.77604 0.30624,5.13311 0.57901,10.26575 0.74424,15.40577 0.11406,3.54838 0.15889,6.69198 0.23206,10.23741 0.0333,1.61519 0.07,3.2303 0.10493,4.84546 0.008,1.57232 0.0377,3.14468 0.024,4.71697 -0.0458,5.21483 -0.25586,10.5666 -0.93908,15.74178 -0.12775,0.96762 -0.31117,1.92706 -0.46675,2.8906 -0.40087,1.75804 -0.53011,2.57385 -1.09159,4.20763 -0.14764,0.42959 -0.30755,0.85731 -0.51228,1.26281 -0.12298,0.24356 -0.70611,0.80169 -0.46529,0.67343 16.38341,-8.72589 13.79163,-14.65417 16.30671,-8.08106 -0.28658,-0.18172 -0.47471,-0.6146 -0.62954,-0.89869 -0.52401,-0.96154 -0.9531,-1.97169 -1.3553,-2.98891 -1.9386,-5.24803 -3.32566,-10.68718 -4.54879,-16.14091 -0.2795,-1.3936 -0.58882,-2.78156 -0.8385,-4.18081 -0.49464,-2.772 -1.03368,-6.68547 -1.39316,-9.45876 -0.67956,-5.24276 -1.24873,-10.50088 -1.59005,-15.77757 -0.33561,-5.70009 -0.66396,-11.39765 -0.6672,-17.1104 -0.002,-4.20503 0.11792,-7.20767 0.3852,-11.39293 0.11277,-1.7659 0.27038,-3.52865 0.40557,-5.29298 0.61176,-5.84638 1.14612,-11.76654 2.7269,-17.45183 0.58893,-2.11807 0.88677,-2.72274 1.63755,-4.54354 -5.53334,2.60597 -11.10037,5.14158 -16.60003,7.8179 -0.0746,0.0363 0.13406,0.10337 0.17813,0.17359 0.0568,0.0905 0.0832,0.19706 0.11796,0.29814 0.24616,0.71653 0.3883,1.46395 0.52971,2.20624 0.20303,1.32481 0.29713,1.81831 0.42292,3.23163 0.36214,4.06877 0.31609,8.16339 0.22042,12.24218 -0.14091,3.55711 -0.18353,5.12342 -0.40907,8.73132 -0.42835,6.85237 -1.16429,13.68072 -1.5755,20.53431 -0.67641,10.25331 -1.28226,20.51299 -2.18831,30.74939 -0.42852,4.02017 -0.84709,8.04024 -1.61318,12.01425 -0.2967,1.53911 -0.83734,3.95415 -1.39292,5.49236 -0.21017,0.58188 -0.51432,1.1254 -0.77149,1.6881 5.35476,-2.64281 10.66874,-5.36989 16.06426,-7.92842 0.1352,-0.0641 -0.0535,0.4491 -0.19609,0.40379 -0.18238,-0.0579 -0.14588,-0.35393 -0.21207,-0.53348 -0.4124,-1.11866 -0.73112,-2.26924 -1.00854,-3.42807 -0.41987,-1.96187 -0.55742,-2.47609 -0.87573,-4.57839 -0.79558,-5.25438 -1.08775,-10.56744 -1.20003,-15.87599 -0.0305,-4.55952 -0.0687,-5.78282 0.0251,-10.39407 0.15207,-7.47795 0.59773,-14.94771 1.25613,-22.39759 0.92384,-9.00393 1.91926,-18.0196 3.72503,-26.89735 0.62449,-2.6626 0.60981,-2.90066 1.43507,-5.36175 0.19627,-0.58531 0.54137,-1.12684 0.64831,-1.73485 1.37113,-7.79557 -18.54408,0.45018 -16.47034,7.44522 0.0844,2.04153 -0.28,4.0776 -0.44719,6.10523 -0.61602,5.30331 -1.19059,10.61139 -1.85017,15.90952 -0.91256,6.82315 -1.88996,13.63724 -2.78088,20.46319 -0.334,2.93094 -0.5139,4.34107 -0.77197,7.27824 -0.40084,4.56216 -0.67832,9.1366 -0.94732,13.70786 -0.24034,5.01042 -0.34327,10.0405 -1.02433,15.01676 -0.13164,0.87735 -0.45341,2.1198 -0.2079,3.01655 0.0394,0.144 0.0525,0.47231 0.18681,0.4071 16.9413,-8.22387 18.82156,-2.7241 16.57681,-8.90891 -0.0958,-0.30983 -0.13499,-0.62952 -0.16698,-0.95207 -0.056,-0.5496 -0.11932,-1.09847 -0.16385,-1.64921 -0.11746,-1.44882 -0.23747,-2.89833 -0.28343,-4.35157 -0.0788,-3.42832 -0.0155,-6.85955 0.12421,-10.28555 0.30758,-5.60757 0.91458,-11.18304 1.52614,-16.76444 0.60858,-5.64425 1.3392,-11.27599 1.8115,-16.93425 0.36938,-4.38269 0.67173,-8.77086 0.96695,-13.1591 0.22294,-4.11959 0.38603,-8.24391 0.82259,-12.34864 0.31836,-3.13958 0.65498,-6.27787 0.86396,-9.42726 0.125,-1.6946 0.22333,-3.39095 0.34069,-5.08609 0.10085,-1.4295 0.23956,-2.85525 0.42079,-4.27698 0.15092,-1.39583 0.23676,-2.79695 0.37319,-4.19413 0.15184,-1.36219 0.32454,-2.72185 0.47234,-4.08447 0.087,-0.78366 0.16608,-1.56852 0.27518,-2.34948 0.10068,-0.6554 0.16258,-1.31457 0.23589,-1.97347 0.18885,-1.3449 0.44993,-2.67737 0.76638,-3.99822 0.31752,-1.42483 0.57417,-2.8605 0.67432,-4.31926 0.0886,-1.128 0.15116,-2.25763 0.23042,-3.38629 0.3944,-6.94859 -4.94035,1.88459 -16.54784,8.03889 -0.0238,0.0126 0.0875,-0.0187 0.18069,0.1188 0.0406,0.0599 0.0614,0.131 0.0922,0.1965 0.24376,0.57111 0.42873,1.17686 0.38699,1.80525 0,0 16.4224,-8.91076 16.4224,-8.91076 z" />
      <path
         style="fill:#a05a2c;stroke:#000000;stroke-width:0;stroke-miterlimit:4;stroke-dasharray:none"
         id="path2205"
         d="m -321.33186,-433.5681 c -0.0192,-0.0421 -0.0437,-0.0822 -0.0575,-0.12636 -0.0634,-0.20399 -0.0626,-0.31684 -0.0853,-0.53697 -0.0525,-0.50989 -0.0836,-1.01732 -0.10804,-1.52943 0.0178,-1.04531 0.0328,-2.09365 0.15933,-3.13292 0.0608,-0.49917 0.18911,-1.20057 0.27538,-1.69689 0.17441,-1.06004 0.45524,-2.09703 0.68166,-3.14596 0.15497,-0.7179 0.14674,-0.7008 0.28127,-1.41832 0.04,-0.23211 0.0781,-0.46455 0.1199,-0.69635 0.0394,-0.21861 0.0852,-0.43605 0.12356,-0.65484 0.21568,-1.22893 -0.0101,-0.0315 0.19702,-1.24099 0.0454,-0.26519 0.16045,-0.84092 0.21366,-1.11105 0.15288,-0.77132 0.38173,-1.52442 0.6619,-2.25837 0.0695,-0.21745 0.19956,-0.40703 0.28944,-0.61471 0.0752,-0.30179 0.20099,-0.58586 0.34149,-0.86209 0.0833,-0.12519 0.14367,-0.29628 0.27296,-0.38465 0.009,-0.004 0.021,-0.005 0.027,-0.0128 0.008,-0.01 0.004,-0.0255 0.01,-0.0362 0.0136,-0.0227 0.0575,0.0165 0.0837,0.0116 0.005,-0.004 0.0106,-0.007 0.0136,-0.0127 0.0139,-0.0249 0.009,-0.0508 0.0161,-0.0779 0.0137,-0.0516 0.0492,-0.0995 0.0766,-0.14424 0.0469,-0.0967 0.14964,-0.15733 0.18115,-0.25972 0.0564,-0.0636 0.0547,-0.0845 0.12377,-0.0234 -5.10176,3.00601 -2.57763,2.84274 -3.31207,1.63635 0.0255,0.0857 0.0598,0.16921 0.0764,0.25706 0.1187,0.63056 0.0856,1.26983 0.05,1.90595 -0.0416,0.74353 -0.0497,0.76424 -0.11563,1.49468 -0.0724,0.53285 -0.11296,1.07492 -0.2247,1.60213 -0.0197,0.0931 -0.0465,0.18478 -0.0779,0.2746 -0.015,0.043 -0.10091,0.14381 -0.0608,0.12226 1.10681,-0.59495 2.18823,-1.23596 3.28235,-1.85393 -0.0179,-0.12697 -0.0481,-0.2528 -0.0536,-0.38091 -0.007,-0.17127 0.005,-0.34296 0.0153,-0.51407 0.0463,-0.7488 0.1827,-1.42708 0.37734,-2.14813 0.0423,-0.10698 0.054,-0.23186 0.12679,-0.32094 0.0418,-0.0512 0.24489,-0.097 0.18766,-0.064 -1.05113,0.60696 -2.17529,1.0954 -3.17244,1.78748 -0.0947,0.0658 0.10344,0.20669 0.14332,0.3149 0.16362,0.44409 0.19185,0.65214 0.29863,1.12885 0.16754,0.95211 0.24941,1.92419 0.22407,2.89133 1.11324,-0.5427 2.28505,-0.97886 3.33971,-1.62809 0.10888,-0.067 -0.0749,-0.24606 -0.0887,-0.37318 -0.0169,-0.15646 -0.005,-0.31474 -0.003,-0.4721 0.006,-0.48478 0.0187,-0.78576 0.0667,-1.27527 0.0221,-0.22498 0.0541,-0.44886 0.0812,-0.67329 0.13665,-0.76165 0.22618,-1.55467 0.53214,-2.27302 1.26424,-0.51188 -1.36071,0.54689 -3.13641,1.73859 -0.0896,0.0602 0.12933,0.17506 0.173,0.27378 0.0681,0.15401 0.11226,0.31771 0.16006,0.47918 0.17437,0.58902 0.18006,0.69465 0.30339,1.3135 0.0974,0.70816 0.10124,0.64018 0.14667,1.32696 0.0195,0.29451 0.0473,0.61738 2.4e-4,0.91425 -0.0104,0.0657 -0.1239,0.21838 -0.0644,0.18878 1.10553,-0.5498 2.16781,-1.18259 3.25171,-1.77389 -0.0546,-0.0906 -0.12131,-0.17489 -0.16383,-0.27173 -0.16136,-0.36743 -0.21327,-0.66793 -0.28298,-1.06629 -0.10715,-0.61234 -0.16296,-1.22538 -0.20327,-1.84491 -0.0155,-0.37544 -0.0251,-0.53153 -0.0289,-0.89306 -0.001,-0.10406 -0.0141,-0.20926 0.001,-0.31218 0.009,-0.0614 0.12421,-0.20379 0.0709,-0.17204 -3.07846,1.83425 -2.95456,3.14659 -3.05008,1.85105 0.0485,0.0748 0.10373,0.14562 0.1454,0.22441 0.34759,0.6574 0.46444,1.40463 0.54786,2.13388 0.007,0.11114 0.0472,0.40252 -0.005,0.5344 -0.0116,0.0294 -0.1061,0.0686 -0.0788,0.0527 1.06845,-0.62449 2.20267,-1.14902 3.20247,-1.87838 0.10041,-0.0733 -0.13127,-0.21223 -0.17979,-0.32666 -0.0627,-0.14778 -0.1017,-0.30453 -0.15252,-0.4568 -0.19063,-0.66177 -0.31258,-1.34366 -0.36332,-2.03056 -0.0132,-0.1786 -0.0153,-0.35785 -0.0255,-0.53665 -1.11073,0.57374 -2.27612,1.05218 -3.33218,1.72123 -0.10378,0.0657 0.0333,0.24395 0.0364,0.36677 0.004,0.17499 -0.001,0.35037 -0.0144,0.52494 -0.0482,0.65032 -0.17044,1.29222 -0.29591,1.93079 -0.12156,0.49906 -0.25987,1.00447 -0.49709,1.46367 -0.0502,0.0972 -0.10258,0.19532 -0.17352,0.27861 -0.0526,0.0617 -0.12764,0.0999 -0.19146,0.14992 0.9604,-0.5816 1.92081,-1.1632 2.88121,-1.7448 -0.11438,0.0739 -0.0967,0.0802 -0.23474,0.0986 -0.0695,0.009 -0.14039,0.006 -0.20974,0.0163 -1.34995,0.20278 -3.21663,1.69075 -3.80091,2.02817 -0.28508,0.25073 -0.56933,0.50255 -0.85826,0.74887 -0.0367,0.0313 -0.37075,0.31393 -0.43502,0.35576 -0.0511,0.0333 -0.10989,0.053 -0.16483,0.0795 1.01654,-0.58657 2.01722,-1.20155 3.04963,-1.75971 0.0287,-0.0155 0.0281,0.0589 0.041,0.0888 0.003,0.007 -0.009,-0.0128 -0.0115,-0.0203 -0.0138,-0.0504 -0.0284,-0.10095 -0.0358,-0.15271 -0.021,-0.14825 -0.0192,-0.33479 -0.0218,-0.48181 0.0192,-0.63663 0.1235,-1.26841 0.23122,-1.89523 0.0901,-0.42328 0.17361,-0.85014 0.32232,-1.25791 0.0714,-0.19564 0.19268,-0.46093 0.27624,-0.6498 0.3991,-0.92363 0.94161,-1.76995 1.48791,-2.61091 0.72368,-1.17382 1.50684,-2.30956 2.30323,-3.43486 0.10756,-0.14586 0.40292,-0.55178 0.53425,-0.71198 0.0593,-0.0724 0.26926,-0.2545 0.18751,-0.20895 -1.02918,0.57342 -2.02141,1.211 -3.04209,1.79941 -0.0243,0.014 -0.079,-0.0247 -0.0842,0.003 -0.0318,0.16807 -0.009,0.34199 -0.0135,0.51299 -0.17219,1.97081 -0.67314,3.88957 -1.22442,5.78286 -0.0723,0.20729 -0.13428,0.41851 -0.21701,0.62188 -0.50796,1.24856 -2.36965,2.2459 3.09438,-1.28835 0.1266,-0.0819 -0.0421,-0.3007 -0.0323,-0.45116 0.0147,-0.22505 0.23561,-1.38988 0.26233,-1.53593 0.17792,-0.87682 0.4168,-1.73987 0.69521,-2.58974 0.0686,-0.20932 0.13515,-0.41963 0.21646,-0.62434 0.059,-0.14849 0.34783,-0.5031 0.20384,-0.43384 -1.04467,0.50252 -1.99396,1.18302 -2.99095,1.77454 0.025,0.0493 0.0593,0.0949 0.0751,0.14796 0.18202,0.61207 0.22301,0.94421 0.28092,1.61793 0.0326,0.37955 0.0555,0.7602 0.0637,1.14106 0.0163,0.75188 -0.0279,1.445 -0.0627,2.19364 -0.0162,0.20573 -0.0884,1.29557 -0.15471,1.56792 -0.0283,0.11609 -0.10628,0.21403 -0.15942,0.32105 1.07557,-0.6005 2.25172,-1.04862 3.22672,-1.8015 0.15437,-0.1192 -0.13317,-0.36862 -0.16776,-0.56058 -0.0564,-0.31271 -0.0693,-0.63169 -0.10402,-0.94754 -0.002,-0.40573 -0.0221,-0.8118 -0.006,-1.2172 0.0176,-0.42912 0.0612,-0.85698 0.10809,-1.28388 0.11267,-1.02532 0.28331,-2.05964 0.56353,-3.05399 0.0552,-0.19597 0.12874,-0.38632 0.1931,-0.57949 0.0993,-0.0396 0.38738,-0.17765 0.29801,-0.11889 -1.00999,0.66406 -2.20666,1.08688 -3.06486,1.9381 -0.20159,0.19995 0.23486,0.5194 0.31158,0.79277 0.10148,0.36159 0.15571,0.73495 0.22095,1.1048 0.21297,1.20723 0.21141,1.38483 0.34488,2.61268 0.0541,1.03479 0.14989,2.07522 0.0823,3.1124 -0.0117,0.18018 -0.24082,0.59151 -0.0686,0.53732 3.62544,-1.14061 3.67918,-0.53161 2.96329,-2.08923 -0.0594,-0.28801 -0.14016,-0.57243 -0.17835,-0.86402 -0.0475,-0.36274 -0.0614,-0.72927 -0.0782,-1.09473 -0.0399,-0.86856 -0.0365,-1.4972 0.0123,-2.36338 0.0195,-0.34513 0.0419,-0.69056 0.0847,-1.03357 0.0339,-0.27118 0.0968,-0.53794 0.14515,-0.80691 0.0681,-0.16918 0.36792,-0.58811 0.2043,-0.50755 -1.00393,0.4943 -1.93058,1.13947 -2.83265,1.80165 -0.0647,0.0475 0.15213,0.0667 0.20409,0.12789 0.14989,0.17649 0.27354,0.37454 0.39169,0.57368 0.4227,0.71244 0.55736,1.08409 0.89815,1.85572 0.49904,1.24857 0.88727,2.54063 1.13905,3.86129 1.06478,-0.63996 2.23134,-1.13508 3.19436,-1.91987 0.14328,-0.11677 -0.1469,-0.3396 -0.20749,-0.51422 -0.0878,-0.25294 -0.17085,-0.50799 -0.23714,-0.76738 -0.0767,-0.30014 -0.13136,-0.60551 -0.19136,-0.90942 -0.20141,-1.02002 -0.17027,-0.9011 -0.31106,-1.91791 -0.0457,-0.49876 -0.1289,-0.98485 -0.0472,-1.48547 0.17786,-1.0901 3.32167,-3.67424 -2.80372,1.46382 -0.12487,0.10475 0.2731,0.18513 0.37877,0.30921 0.19192,0.22535 0.33736,0.48647 0.50604,0.7297 0.17172,0.32535 0.36014,0.64241 0.51515,0.97604 0.15985,0.34407 0.29376,0.69978 0.42823,1.05454 0.33403,0.88118 0.61284,1.78421 0.83191,2.70073 0.0479,0.20051 0.0865,0.40314 0.12972,0.60471 0.0118,0.13872 0.0364,0.27695 0.0355,0.41618 -0.008,1.22103 -4.34612,3.60594 3.15612,-1.60252 0.0919,-0.0638 -0.17353,-0.14405 -0.24273,-0.23202 -0.33772,-0.42935 -0.47191,-0.76957 -0.72663,-1.27208 -0.38642,-1.00754 -0.7345,-2.02962 -1.07132,-3.05465 -0.12672,-0.38563 -0.25691,-0.77025 -0.37288,-1.15924 -0.20956,-0.70295 -0.37241,-1.38664 -0.5497,-2.09686 -0.0942,-0.43608 -0.25078,-1.02195 -0.25306,-1.48726 -0.006,-1.28401 2.35403,-2.54069 -2.8071,1.46824 -0.0872,0.0677 0.21997,0.0558 0.30764,0.12292 0.20877,0.1599 0.37858,0.3651 0.56787,0.54765 0.6796,0.86234 0.86455,1.03923 1.44296,2.03922 0.23044,0.3984 0.42946,0.81428 0.63332,1.22691 0.35896,0.7266 0.73685,1.55747 1.04207,2.3118 0.12759,0.31533 0.24001,0.63658 0.36001,0.95487 0.10235,0.30008 0.36131,1.02681 0.4434,1.37433 0.0317,0.1343 0.0623,0.27176 0.0593,0.40973 -0.001,0.066 -0.12806,0.21922 -0.072,0.18441 3.23589,-2.00864 3.82671,-1.19964 2.48769,-2.40489 -1.12785,-1.41908 -1.99821,-3.02241 -2.60401,-4.72979 -0.11322,-0.31909 -0.20272,-0.64611 -0.30408,-0.96917 -0.11462,-0.44491 -0.27784,-0.95427 -0.29669,-1.42546 -0.0525,-1.31229 2.74619,-2.6024 -2.93038,1.60008 -0.067,0.0496 0.17668,0.018 0.23916,0.0732 0.21532,0.19023 0.38185,0.42939 0.57277,0.64409 0.99246,1.49613 1.91277,3.04725 2.6686,4.67779 0.14867,0.32072 0.9638,2.26742 1.11618,2.62988 0.64513,1.54152 0.32472,0.78623 0.96046,2.2662 0,0 2.24479,-1.27236 2.24479,-1.27236 v 0 c -0.74275,-1.41672 -0.36585,-0.69433 -1.13038,-2.16734 -0.31347,-0.61414 -0.99277,-1.9323 -1.27568,-2.54035 -0.76545,-1.64513 -1.3971,-3.34904 -2.04945,-5.04072 -0.0675,-0.28784 -0.13377,-0.57595 -0.20237,-0.86352 -0.0535,-0.22444 0.0499,-0.75894 -0.16399,-0.6725 -1.12168,0.45317 -2.09293,1.22762 -3.04798,1.97019 -0.0833,0.0648 0.15395,0.14644 0.21437,0.23296 0.23231,0.33261 0.50037,0.89552 0.67248,1.23208 0.14665,0.2998 0.29811,0.5973 0.43996,0.8994 0.77562,1.65177 1.471,3.34089 2.15249,5.03307 0.45265,1.7791 0.006,0.90005 3.41798,-0.929 0.0546,-0.0293 -0.11967,-0.0435 -0.16479,-0.0859 -0.0981,-0.0922 -0.17667,-0.20345 -0.25742,-0.31115 -0.25362,-0.33823 -0.57311,-0.83674 -0.79677,-1.17584 -0.17659,-0.28629 -0.35968,-0.56868 -0.52977,-0.85888 -0.4319,-0.73689 -0.81327,-1.46279 -1.20318,-2.22375 -0.2105,-0.41084 -0.42807,-0.81845 -0.62125,-1.23771 -0.40798,-0.88543 -0.60552,-1.46073 -0.9383,-2.35326 -0.0871,-0.25981 -0.16612,-0.52249 -0.26139,-0.77942 -0.0632,-0.17032 -0.045,-0.56904 -0.21353,-0.50137 -1.12099,0.45 -2.14718,1.12665 -3.1218,1.84028 -0.0972,0.0711 0.12701,0.20483 0.18353,0.31116 0.27562,0.51855 0.35295,0.73177 0.60251,1.30484 0.25907,0.6678 0.51764,1.30758 0.73734,1.99118 0.46297,1.44056 0.75979,2.9254 1.14019,4.388 0.0855,0.46816 0.21194,1.06428 0.24584,1.55385 0.009,0.12594 -0.12643,0.42798 -0.0103,0.37857 1.1247,-0.4784 2.14959,-1.16383 3.22439,-1.74574 -0.051,-0.0377 -0.11101,-0.0655 -0.15292,-0.11308 -0.0854,-0.097 -0.14998,-0.21052 -0.22498,-0.31578 -0.54455,-0.98946 -1.02648,-1.99265 -1.44563,-3.04282 -0.14149,-0.3545 -0.28377,-0.70907 -0.40633,-1.07055 -0.1217,-0.35895 -0.21731,-0.72622 -0.32596,-1.08932 -0.0697,-0.30598 -0.14593,-0.61054 -0.20912,-0.91792 -0.0462,-0.22452 0.10052,-0.74391 -0.1188,-0.67731 -1.14851,0.34875 -2.17564,1.03047 -3.18472,1.68044 -0.0885,0.057 0.0922,0.18962 0.12766,0.28869 0.17894,0.50005 0.23141,0.79227 0.36248,1.33346 0.17137,0.91209 0.19989,0.97459 0.30634,1.91621 0.036,0.3184 0.0769,0.63703 0.0876,0.95728 0.01,0.29393 0.007,0.58967 -0.026,0.88191 -0.0224,0.19849 -0.33027,0.64198 -0.13948,0.58281 1.09764,-0.34041 2.06884,-1.00131 3.10326,-1.50196 -0.0595,-0.008 -0.12963,0.0114 -0.17859,-0.0233 -0.19083,-0.13542 -0.46879,-0.61587 -0.55651,-0.76738 -0.46006,-0.79458 -0.84597,-1.63174 -1.16559,-2.49207 -0.31921,-0.9958 -0.36694,-1.04235 -0.56443,-2.04163 -0.0508,-0.25703 -0.0657,-0.52059 -0.12211,-0.77644 -0.0422,-0.19139 0.0108,-0.63026 -0.17292,-0.56195 -1.11798,0.41573 -2.13619,1.08319 -3.10391,1.78049 -0.10983,0.0791 0.0537,0.26535 0.0805,0.39803 0.0261,0.23456 0.0592,0.46844 0.0783,0.70367 0.0902,1.11046 0.0899,2.22351 0.0294,3.33555 -0.0214,0.3933 -0.0386,0.78758 -0.0881,1.17833 -0.0444,0.35061 -0.12873,0.69499 -0.19309,1.04249 -0.77492,1.39233 -0.94451,1.44929 2.83736,-0.90623 0.12326,-0.0768 -0.15143,-0.2499 -0.20169,-0.38614 -0.16554,-0.44878 -0.32154,-1.23879 -0.40089,-1.67395 -0.0708,-0.38805 -0.12661,-0.77867 -0.18992,-1.16801 -0.13434,-1.33941 -0.15987,-1.3372 -0.19143,-2.69043 -0.01,-0.40727 -0.0227,-0.81527 -0.002,-1.22214 0.0175,-0.3504 0.4665,-1.05002 0.11568,-1.04614 -4.91534,0.0543 -4.09886,0.52291 -3.08086,1.17314 0.0591,1.10375 0.0265,2.20828 -0.0593,3.31022 -0.0336,0.43174 -0.0677,0.86379 -0.12235,1.29338 -0.0566,0.44484 -0.14069,0.88573 -0.21104,1.3286 -0.0829,0.37404 -0.14644,0.75293 -0.24886,1.12211 -0.0697,0.25121 -0.52001,0.79595 -0.26647,0.7353 1.12342,-0.26871 2.10526,-0.95128 3.15789,-1.42693 -0.0698,-0.03 -0.17732,-0.0212 -0.20938,-0.0901 -0.0803,-0.17246 -0.18156,-1.311 -0.18984,-1.38911 -0.0209,-0.32894 -0.0503,-0.65745 -0.0627,-0.98682 -0.0341,-0.90913 -0.0266,-1.42387 0.0532,-2.33944 0.36043,-4.13886 -0.0891,1.43348 0.2849,-1.94103 0.0229,-0.20618 0.006,-0.41484 0.008,-0.62227 -1.04415,0.56875 -2.13789,1.05465 -3.13244,1.70625 -0.10029,0.0657 -0.008,0.23983 -0.02,0.35915 -0.10367,1.04265 -0.33819,2.07 -0.63099,3.07424 -0.15531,0.46558 -0.39088,1.23086 -0.61386,1.68815 -0.0988,0.20256 -0.56655,0.64067 -0.34996,0.57844 8.049,-2.31256 3.19414,-0.23583 3.07826,-1.60945 -0.0146,-0.17337 0.009,-0.34784 0.014,-0.52176 0.10603,-0.92169 0.23285,-1.83815 0.44511,-2.74288 0.24987,-1.06505 0.58864,-2.10798 0.97131,-3.13196 0.0773,-0.21826 0.1935,-0.42645 0.232,-0.65478 0.0375,-0.22254 0.20531,-0.75238 -0.007,-0.677 -3.11719,1.1045 -2.7327,0.99882 -3.59749,2.60857 -0.31104,0.54131 -0.63217,1.07577 -0.98174,1.59346 -0.29163,0.43187 -0.59745,0.84461 -0.90331,1.26624 -0.13782,0.18999 -0.2754,0.38014 -0.4131,0.57021 -0.58689,0.88837 -1.1555,1.79094 -1.64487,2.73753 -0.0554,0.12056 -0.11555,0.23905 -0.16623,0.36167 -0.21673,0.52435 -0.35561,1.07922 -0.43004,1.64078 -0.11221,0.6531 -0.22266,1.30662 -0.26704,1.96873 -0.017,0.26102 -0.0254,0.30556 -0.0218,0.559 0.001,0.0853 -0.005,0.17175 0.01,0.25581 0.003,0.0161 0.12214,0.48292 0.24749,0.42299 1.11592,-0.53355 2.15706,-1.21113 3.2356,-1.8167 0.38356,-0.41237 0.80696,-0.7926 1.27884,-1.1013 -0.89709,0.50606 -1.79908,1.00354 -2.69127,1.51819 -0.0701,0.0405 0.14824,-0.0652 0.22359,-0.0947 0.11334,-0.0445 0.22726,-0.092 0.35192,-0.0907 0.12327,0.001 0.24238,0.0621 0.36842,0.0323 1.06203,-0.64 2.14539,-1.24587 3.1861,-1.92 0.0516,-0.0334 0.15035,-0.45621 0.15294,-0.4677 0.10403,-0.45951 0.16765,-0.92767 0.24433,-1.39205 0.0756,-0.47373 0.12813,-0.8357 0.22527,-1.30805 0.0799,-0.38828 0.18222,-0.8779 0.3541,-1.2424 0.0598,-0.12678 0.36663,-0.39934 0.23624,-0.3479 -1.08868,0.42953 -2.11442,1.00402 -3.17163,1.50603 0.0377,0.0218 0.0878,0.0299 0.11299,0.0654 0.10225,0.14392 0.20067,0.5235 0.23742,0.66144 0.14054,0.52742 0.241,1.06475 0.31025,1.60603 0.0199,0.17014 0.0499,0.33941 0.0598,0.51043 0.008,0.14414 -0.14193,0.47882 -0.005,0.43312 1.1469,-0.3827 2.19279,-1.01933 3.28918,-1.52899 -0.0264,-0.0114 -0.0606,-0.0122 -0.0791,-0.0342 -0.0886,-0.1051 -0.1435,-0.34694 -0.17637,-0.4531 -0.0673,-0.23215 -0.16634,-0.56669 -0.22305,-0.79566 -0.11652,-0.47052 -0.19751,-0.94471 -0.27227,-1.42309 -0.0178,-0.11364 -0.0366,-0.2271 -0.0549,-0.34065 -0.64938,-1.49699 -0.11861,-0.61925 -3.30161,1.58537 -0.0466,0.0323 0.05,0.10205 0.0686,0.1556 0.0489,0.14118 0.13995,0.50134 0.16919,0.62612 0.035,0.14942 0.0657,0.29984 0.0985,0.44976 0.0339,0.1801 0.0725,0.35938 0.10173,0.5403 0.066,0.40827 0.11832,0.86851 0.15238,1.27984 0.0368,0.44487 0.0644,0.76679 0.0167,1.20872 -0.0133,0.12279 -0.0515,0.24159 -0.0773,0.36239 1.08613,-0.54583 2.19185,-1.05431 3.2584,-1.63749 0.041,-0.0224 -0.0887,-0.0425 -0.1139,-0.0819 -0.058,-0.0904 -0.0958,-0.1933 -0.12819,-0.29574 -0.0503,-0.15889 -0.0822,-0.32308 -0.11917,-0.48559 -0.14447,-0.6348 -0.12874,-0.60803 -0.23885,-1.28305 -0.0788,-0.65554 -0.1546,-1.31262 -0.1645,-1.97384 -0.002,-0.15287 0.15689,-0.50592 0.0115,-0.45852 -3.45117,1.12554 -3.582,0.35587 -3.30994,1.63694 0.0302,0.688 0.0251,1.37777 -0.0366,2.06416 -0.0708,0.67809 -0.14538,1.35072 -0.30815,2.01454 -0.0435,0.17728 -0.0757,0.36034 -0.15242,0.52597 -0.053,0.11448 -0.34734,0.34742 -0.23029,0.30037 1.09876,-0.44168 2.14634,-1.00131 3.21951,-1.50197 -0.0342,-0.045 -0.079,-0.0836 -0.10254,-0.13492 -0.0527,-0.11468 -0.18651,-0.62231 -0.20689,-0.70538 -0.14493,-0.59079 -0.25528,-1.19064 -0.31341,-1.79649 -0.0616,-0.77513 -0.0542,-0.53081 -0.0691,-1.26675 -0.003,-0.15119 0.13985,-0.49502 -0.006,-0.45362 -1.15366,0.32834 -2.21028,0.93255 -3.31542,1.39883 0.0191,0.0378 0.0522,0.0715 0.0573,0.11352 0.0113,0.0935 -0.006,0.1882 -0.009,0.28229 -0.0503,0.71046 -0.13426,1.41257 -0.26707,2.11285 -0.0357,0.18836 -0.0671,0.37798 -0.11644,0.56325 -0.0431,0.16189 -0.10694,0.31755 -0.16041,0.47633 1.07409,-0.4852 2.15076,-0.9647 3.22225,-1.45561 0.0232,-0.0106 -0.0597,0.034 -0.0753,0.0138 -0.0418,-0.0544 -0.0529,-0.12791 -0.0645,-0.19556 -0.0209,-0.12151 -0.0239,-0.24545 -0.0324,-0.36844 -0.0356,-0.51241 -0.0271,-0.53095 -0.0337,-1.08255 0.007,-0.23464 0.009,-0.46951 0.0214,-0.70392 0.059,-1.10289 0.19306,-2.20603 0.50497,-3.26835 -0.01,-0.0809 -0.009,-0.16363 -0.0289,-0.24272 -0.007,-0.0294 -0.0321,-0.0515 -0.05,-0.076 -0.75344,-1.0262 -6.1936,1.16341 -3.38275,1.72511 0.002,0.0663 -0.002,0.11784 -0.0386,0.17595 -0.0797,0.0441 -0.0947,0.16779 -0.16343,0.22665 -0.0308,0.0382 -0.069,0.102 -0.11742,0.12157 -0.0268,0.0109 -0.0573,-0.005 -0.0808,0.014 -0.0249,0.0372 -0.004,0.0884 -0.0247,0.1124 -0.004,0.004 -0.0136,-7.4e-4 -0.017,0.004 -0.007,0.01 -0.007,0.023 -0.011,0.0344 -0.0387,0.13625 -0.0976,0.26647 -0.13901,0.40194 -0.11238,0.30277 -0.23846,0.60178 -0.39777,0.88318 -0.0917,0.19284 -0.11937,0.39957 -0.14182,0.61083 -0.10654,0.71735 -0.23275,1.43137 -0.35603,2.14597 -0.17993,1.20649 -0.29837,2.42208 -0.50137,3.62519 -0.27049,1.50375 -0.5601,3.00386 -0.83338,4.50704 -0.21797,1.39208 -0.0547,0.28901 -0.23662,1.69382 -0.14031,1.08352 -0.29367,2.16628 -0.35791,3.25797 -0.0409,0.35639 -0.10207,0.8829 -0.14156,1.25041 -0.016,0.14892 -0.0325,0.2978 -0.0458,0.44699 -0.0278,0.31178 -0.0111,0.33338 -0.0661,0.627 -0.011,0.0587 -0.0298,0.11569 -0.0447,0.17353 0,0 3.32683,-1.70759 3.32683,-1.70759 z" />
      <g
         id="g877">
        <rect
           style="fill:#ffffff;stroke:#000000;stroke-width:0.480185"
           id="rect4565"
           width="20.884747"
           height="7.3174906"
           x="-305.49149"
           y="-449.98959" />
        <circle
           style="fill:#ffffff;stroke:#000000;stroke-width:0.486513"
           id="path4359"
           cx="-284.70154"
           cy="-446.3212"
           r="3.6718137" />
        <path
           id="path2993"
           style="fill:#ffffff;stroke:#000000;stroke-width:0.486513"
           inkscape:transform-center-x="0.3398121"
           inkscape:transform-center-y="-0.8503745"
           d="m -362.21151,-457.08186 9.71562,-11.11847 14.38235,0.049 z"
           sodipodi:nodetypes="cccc" />
        <path
           id="path2993-6"
           style="fill:#ffffff;stroke:#000000;stroke-width:0.48275"
           inkscape:transform-center-x="0.33985191"
           inkscape:transform-center-y="0.83717219"
           d="m -362.21265,-482.06069 9.71676,10.94586 14.38404,-0.0483 z"
           sodipodi:nodetypes="cccc" />
        <circle
           style="fill:#ffffff;stroke:#000000;stroke-width:0.486513"
           id="path4705"
           cx="-284.39978"
           cy="-483.30676"
           r="3.6718137" />
        <rect
           style="fill:#ffffff;stroke:#000000;stroke-width:0.420032"
           id="rect4809"
           width="22.651163"
           height="7.416369"
           x="-308.07181"
           y="-487.06009" />
        <path
           style="fill:#ffffff;stroke:#000000;stroke-width:0;stroke-miterlimit:4;stroke-dasharray:none"
           id="path4928"
           d="m -286.24298,-485.93851 c 0.0279,0.0518 0.027,0.11566 0.031,0.17331 0.006,0.0837 0.007,0.16725 0.004,0.25095 -0.004,0.0531 -0.009,0.10593 -0.0147,0.1588 -4.1e-4,0.025 -0.009,0.0485 -0.0129,0.0729 -4.5e-4,0.0332 0.001,0.0665 0.002,0.0997 -6e-5,0.0602 -0.009,0.1197 -0.0217,0.17845 -0.009,0.0415 -0.02,0.0826 -0.0255,0.12484 -0.007,0.0272 -0.005,0.0547 -0.004,0.0826 0.006,0.0742 -1.3e-4,0.14834 -0.007,0.22227 -0.007,0.0865 -0.0189,0.17276 -0.0308,0.25875 -0.009,0.0602 -0.0183,0.12044 -0.0226,0.18121 -0.004,0.0463 -0.005,0.0927 -0.007,0.13916 -6e-5,0.0556 0.009,0.11034 0.0184,0.16505 0.0147,0.11327 0.0246,0.22725 0.0327,0.3412 0.009,0.13769 0.009,0.27583 0.0129,0.41379 -4.6e-4,0.103 0.004,0.20592 0.011,0.30873 0.004,0.0742 0.0165,0.14724 0.0323,0.21963 0.0231,0.0863 0.0391,0.17404 0.0521,0.26235 0.0129,0.0942 0.0261,0.18848 0.0373,0.28293 0.011,0.0933 0.0147,0.18681 0.0165,0.28053 0.002,0.096 -0.004,0.19194 -0.0129,0.28758 -0.009,0.0878 -0.0165,0.17551 -0.0195,0.26382 -0.004,0.10997 -0.007,0.21992 -0.011,0.32996 -0.002,0.12705 -0.011,0.25382 -0.0224,0.38024 -0.007,0.0799 -0.0184,0.15972 -0.0375,0.23762 -0.007,0.0297 -0.02,0.0577 -0.0255,0.0876 -0.002,0.0165 -7.3e-4,0.0321 6e-5,0.0481 -8.9e-4,0.0129 0.004,0.025 3.6e-4,0.0364 0.002,0.0218 3.5e-4,0.0437 3.3e-4,0.0655 5.9e-4,0.0264 -7.1e-4,0.0529 -0.002,0.0793 -0.001,0.0165 -0.002,0.0327 -0.004,0.049 -8.7e-4,0.009 -10e-4,0.0191 -0.002,0.0285 -4.4e-4,0.006 -5.7e-4,0.0129 -6.8e-4,0.0187 0,0 1.63137,-0.83123 1.63137,-0.83123 v 0 c -7e-5,-0.005 -2.2e-4,-0.0129 -6.8e-4,-0.0184 -6.2e-4,-0.009 -0.001,-0.0183 -0.002,-0.0266 -7.3e-4,-0.0147 -0.002,-0.0292 -0.004,-0.0439 -8.2e-4,-0.0235 -10e-4,-0.0472 0.002,-0.0707 0.002,-0.0239 0.004,-0.0476 0.007,-0.0712 -10e-4,-0.0147 -2.8e-4,-0.0286 10e-4,-0.043 8.8e-4,-0.009 0.004,-0.0184 0.004,-0.0268 0.001,-0.0275 -0.002,-0.0551 -0.004,-0.0826 -0.007,-0.0729 -0.0147,-0.14577 -0.0147,-0.21897 -0.002,-0.12429 9.7e-4,-0.24851 0.0129,-0.37219 0.011,-0.11401 0.0244,-0.22791 0.0371,-0.34181 0.009,-0.0885 0.0183,-0.17698 0.0183,-0.26608 0.002,-0.0995 0.006,-0.19907 0.004,-0.29861 -0.004,-0.0984 -0.011,-0.19646 -0.0257,-0.29406 -0.011,-0.0969 -0.0215,-0.19398 -0.0369,-0.29031 -0.0147,-0.0903 -0.0297,-0.18084 -0.0387,-0.27191 -0.007,-0.0701 -0.0195,-0.1399 -0.0323,-0.20943 -0.0165,-0.0933 -0.0305,-0.18706 -0.0391,-0.28146 -0.0128,-0.13476 -0.022,-0.26975 -0.0218,-0.40507 5.3e-4,-0.12172 0.004,-0.24356 0.0147,-0.36489 0.006,-0.0573 0.0129,-0.11438 0.0147,-0.17203 6.8e-4,-0.043 0.002,-0.0857 0.004,-0.12851 0.002,-0.0562 0.004,-0.11217 0.005,-0.16835 0.002,-0.0824 0.006,-0.16487 0.0165,-0.24669 0.011,-0.0821 0.0259,-0.1634 0.0479,-0.24315 0.007,-0.0297 0.0165,-0.0593 0.0147,-0.0901 0.002,-0.0354 0.004,-0.0709 0.006,-0.1063 0.004,-0.0635 0.0128,-0.12668 0.0253,-0.18917 0.007,-0.0358 0.0129,-0.0716 0.0185,-0.1074 0.004,-0.0286 -0.001,-0.0573 -0.004,-0.0857 -0.006,-0.0487 -0.0129,-0.0975 -0.0165,-0.14632 -0.007,-0.0832 -0.0128,-0.16634 -0.011,-0.24976 -2e-5,-0.0736 -0.004,-0.14742 7.9e-4,-0.22097 0,0 -1.60036,0.85346 -1.60036,0.85346 z" />
        <path
           style="fill:#ffffff;stroke:#000000;stroke-width:0;stroke-miterlimit:4;stroke-dasharray:none"
           id="path4930"
           d="m -286.38809,-486.16053 c 0.2595,0.0347 0.48302,0.16413 0.68644,0.32136 0.0229,0.0239 0.0604,0.0409 0.0773,0.0712 0.004,0.006 4.4e-4,0.0237 0.006,0.0198 1.52492,-1.01318 2.02653,-0.73196 1.46711,-1.03334 -0.0589,-0.0279 -0.1219,-0.0461 -0.18249,-0.0703 -0.0373,-0.0165 -0.0734,-0.034 -0.11015,-0.0505 0,0 -1.48028,1.0328 -1.48028,1.0328 v 0 c 0.0391,-0.004 0.0777,8.3e-4 0.11493,0.0147 0.0521,0.0165 0.10391,0.0349 0.15275,0.0595 0.55485,0.26661 -0.002,0.002 1.52769,-0.99765 0.006,-0.004 -0.005,0.0147 -0.0128,0.0165 -0.0283,0.0129 -0.11786,-0.009 -0.14467,-0.009 -0.16211,-0.0301 -0.3247,-0.0679 -0.47704,-0.13237 -0.049,-0.0207 -0.0984,-0.042 -0.14338,-0.0705 -0.0382,-0.0242 -0.0696,-0.0575 -0.10447,-0.0863 0,0 -1.37748,0.91491 -1.37748,0.91491 z" />
        <path
           style="fill:#ffffff;stroke:#000000;stroke-width:0;stroke-miterlimit:4;stroke-dasharray:none"
           id="path4934"
           d="m -284.07439,-481.08373 c -0.1085,0.009 -0.21761,-0.004 -0.32628,-0.007 -0.0738,-0.004 -0.14779,-0.007 -0.22156,-0.0129 -0.0419,-0.004 -0.0839,-0.004 -0.12576,-0.004 -0.0408,6e-5 -0.0815,-0.004 -0.12208,-0.007 -0.007,3.1e-4 -0.0129,6.4e-4 -0.02,9.3e-4 -0.006,8.3e-4 -0.011,0.002 -0.0147,0.002 -0.007,3.7e-4 -0.0129,-2.6e-4 -0.02,-5e-4 -0.007,-2.2e-4 -0.0129,-0.004 -0.0195,-8.6e-4 -1.55506,0.89262 -1.27781,0.37557 -1.56762,0.92354 -0.0129,0.0674 0.007,0.11878 0.0371,0.17808 0.0578,0.0916 0.1164,0.11291 0.21743,0.14192 0.0949,0.0297 0.19064,0.0586 0.28769,0.0808 0.0832,0.0195 0.1689,0.0226 0.25387,0.0266 0.0643,0.004 0.12888,0.004 0.19302,0.007 0.0527,0.007 0.10373,0.004 0.15514,-0.009 0.0393,-0.009 0.0784,-0.0187 0.11713,-0.0301 0.006,-0.002 0.011,-0.006 0.0184,-0.006 0.007,-0.002 0.0147,-10e-4 0.0207,-0.002 0.0312,-0.006 0.0463,-0.0165 0.0801,-0.0165 0.0229,-1.4e-4 0.011,-3.1e-4 0.0345,4.6e-4 0,0 1.41686,-1.12601 1.41686,-1.12601 v 0 c -0.0129,0.0184 -0.006,0.009 -0.0233,0.024 -0.0204,0.0129 -0.0349,0.0147 -0.0582,0.0184 -0.0196,0.004 -0.0358,0.0165 -0.0566,0.0147 -0.0418,0.009 -0.0822,0.0204 -0.12318,0.0325 -0.006,0.002 -0.0398,0.011 -0.0453,0.0129 -0.0307,0.011 -0.0598,0.0285 -0.0927,0.034 -0.0681,0.009 -0.13733,0.006 -0.20575,0.009 -0.0821,0.002 -0.16432,0.002 -0.24649,-7.9e-4 -0.0925,-0.007 -0.18367,-0.0233 -0.27153,-0.0543 -0.0272,-0.011 -0.0698,-0.0275 -0.0924,-0.0373 0.007,0.004 0.011,0.011 0.0184,0.0147 0.004,9.4e-4 0.006,-0.004 0.007,-0.004 0.0129,0.001 0.0248,0.0128 0.0382,0.0147 0.60051,-0.0685 0.0422,-0.007 -1.52006,0.88806 -0.009,0.006 0.009,-0.0217 0.0184,-0.0285 0.009,-0.007 0.0226,-0.007 0.0301,-0.0165 0.0294,-0.0222 0.0633,-0.0281 0.0997,-0.0259 0.047,-9.7e-4 0.0942,-0.002 0.14118,-0.005 0.0848,-0.006 0.16964,-0.011 0.25464,-0.0147 0.0758,-10e-4 0.1645,-0.0129 0.23709,0.0147 0.007,0.004 0.0129,0.009 0.0191,0.0129 0,0 1.47932,-1.04254 1.47932,-1.04254 z" />
        <path
           id="path1948-3"
           style="fill:#ffffff;stroke:#000000;stroke-width:0.495588"
           inkscape:transform-center-x="0.074035748"
           inkscape:transform-center-y="-2.2765782"
           d="m -259.58051,-464.45245 -65.15263,-30.19612 33.5711,29.96191 z"
           sodipodi:nodetypes="cccc" />
        <path
           id="rect948"
           style="fill:#ffffff;stroke:#000000;stroke-width:0.381714"
           d="m -336.15764,-477.85606 h 83.824 c 41.52677,18.25048 24.80474,20.09888 0,19.6713 h -83.824 c -6.00791,-0.86201 -57.00656,-18.90901 0,-19.6713 z"
           sodipodi:nodetypes="ccccc" />
        <path
           id="path2402"
           style="fill:#ffffff;stroke:#000000;stroke-width:0.486513"
           inkscape:transform-center-x="-0.60847774"
           inkscape:transform-center-y="-6.0392705"
           d="m -338.93243,-474.64902 -14.83007,0.0977 -7.41119,-17.07544 z"
           sodipodi:nodetypes="cccc" />
        <path
           id="path1948"
           style="fill:#ffffff;stroke:#000000;stroke-width:0.486513"
           inkscape:transform-center-x="0.073991252"
           inkscape:transform-center-y="2.1952764"
           d="m -259.59951,-462.96952 -65.11342,29.11776 33.55089,-28.8919 z"
           sodipodi:nodetypes="cccc" />
        <path
           id="rect3683"
           style="fill:#d7e3f4;stroke:#000000;stroke-width:0.486513"
           d="m -249.08408,-474.46198 3.58104,0.04 8.73887,4.03185 -12.30781,-10e-4 z"
           sodipodi:nodetypes="ccccc" />
        <rect
           style="fill:#d7e3f4;stroke:#000000;stroke-width:0.486513"
           id="rect4129"
           width="5.2855353"
           height="4.0491304"
           x="-255.34109"
           y="-474.46201" />
        <path
           id="rect5038"
           style="fill:#ffffff;stroke:#000000;stroke-width:0.486515"
           d="m -317.80982,-458.09944 8.83493,-0.13274 -1.87856,4.39975 h -8.92421 z"
           sodipodi:nodetypes="ccccc" />
      </g>
      <path
         style="fill:#a05a2c;stroke:#000000;stroke-width:0;stroke-miterlimit:4;stroke-dasharray:none"
         id="path2320"
         d="m -328.59406,-341.92873 c -0.038,1.56995 -0.14866,6.28387 -0.19026,6.84613 -0.18406,2.48739 -0.47748,4.96582 -0.76721,7.44313 -0.71477,6.11148 -1.71313,13.32548 -2.70189,19.36576 -0.53084,3.24282 -1.15093,6.4704 -1.72639,9.7056 -2.0762,11.40314 -4.01504,22.84346 -6.67987,34.12846 -0.15668,0.57661 -0.31336,1.15322 -0.47004,1.72983 0,0 15.7769,-7.82933 15.7769,-7.82933 v 0 c -0.0441,-0.48186 -0.0883,-0.96372 -0.13241,-1.44558 -0.65846,-10.50585 0.18327,-21.03008 1.4597,-31.46147 0.42904,-3.15852 0.77196,-6.32994 1.28712,-9.47556 1.57258,-9.60242 3.70504,-19.2283 6.97311,-28.41012 0.70942,-1.99312 2.51791,-6.05761 3.58573,-8.48593 0,0 -16.41449,7.88908 -16.41449,7.88908 z" />
      <path
         style="fill:#a05a2c;stroke:#000000;stroke-width:0;stroke-miterlimit:4;stroke-dasharray:none"
         id="path2322"
         d="m -328.68439,-330.8152 c 0.0108,0.68087 0.0907,1.36418 0.0323,2.04262 -0.36003,4.18069 -0.88529,5.72673 -2.01113,10.04264 -2.00392,7.68205 -4.33776,15.25737 -6.67118,22.84393 -0.84223,2.72893 -1.66647,5.46348 -2.52669,8.18679 -1.50252,4.75669 -3.06263,9.495 -4.59542,14.24202 -1.42162,4.40272 -2.84591,8.79859 -4.39553,13.15776 4.24042,-0.97129 -2.73843,3.34944 -1.75812,2.8285 5.45982,-2.90137 11.2698,-5.25726 16.29921,-8.85345 0.66516,-0.47561 -0.47154,-1.57246 -0.58582,-2.38214 -0.60324,-4.274 -0.38609,-6.28971 -0.3442,-10.82233 0.57932,-8.9374 1.70856,-17.83402 3.44704,-26.62013 0.7624,-3.85305 1.13078,-5.21881 2.01309,-8.84706 0.24306,-0.83514 0.94209,-3.69569 1.61949,-4.64689 0.20037,-0.28136 1.17395,-0.7286 0.88152,-0.54475 -5.21742,3.28013 -11.38038,5.39567 -15.65652,9.83362 -1.20911,1.25486 1.01744,3.34372 1.30329,5.0627 0.47635,2.86463 0.65207,5.77121 0.97811,8.65681 0.3804,15.30729 0.0863,30.6394 -1.15635,45.90421 -0.5847,7.18274 -1.04663,10.48704 -1.88213,17.36683 6.80985,-4.43299 -4.39889,8.97143 -1.89333,7.92399 5.70159,-2.38351 11.59198,-4.88399 16.2191,-8.98021 1.19657,-1.05928 -0.59282,-3.14677 -0.721,-4.73969 -0.72649,-9.02809 -0.2655,-12.27258 0.0887,-22.06308 0.59067,-4.84289 1.17289,-9.68681 1.77202,-14.52866 1.47569,-11.92566 2.3333,-19.6409 4.41607,-31.52368 1.72612,-9.848 3.57321,-18.06612 5.95156,-27.69547 0.84251,-3.41108 1.77985,-6.79803 2.66977,-10.19705 0.74468,-2.51686 1.40913,-5.05886 2.23403,-7.55058 0.50633,-1.52945 1.18908,-2.99493 1.75634,-4.50284 2.90577,-7.7242 -0.68758,-6.58277 -15.84703,10.40246 -1.66207,1.86225 -0.5851,4.95962 -0.99385,7.42201 -0.62462,3.76291 -1.4035,7.49857 -2.10526,11.24786 -4.32087,17.39664 -8.57626,34.81443 -13.57718,52.03166 -2.47357,8.51602 -2.89007,9.62632 -5.42889,17.47968 9.50491,-3.6182 -6.34909,8.85361 -3.86436,7.52225 5.39094,-2.88854 11.30143,-5.23464 15.71824,-9.46521 1.18838,-1.13827 -0.65869,-3.2373 -0.74067,-4.88082 -0.32573,-6.53018 0.44759,-13.58348 0.92366,-20.02042 0.56118,-4.42336 1.01695,-8.86136 1.68354,-13.27006 0.68093,-4.50357 1.49571,-8.98689 2.35791,-13.4593 2.09471,-10.86568 4.67887,-21.65371 7.85266,-32.25641 0.65295,-2.18132 1.40067,-4.33315 2.101,-6.49972 -9.102,3.55143 4.49109,-5.89072 2.91132,-4.85743 -5.48378,3.58684 -11.80863,6.16988 -16.38798,10.85676 -1.42839,1.46194 -0.0522,4.09021 -0.2073,6.12822 -0.66605,8.75366 -1.23701,10.87303 -2.7277,19.87761 -1.80073,10.52278 -3.8342,21.00603 -6.155,31.42673 -0.94021,4.22166 -2.1236,9.38496 -3.37988,13.61889 -0.36308,1.22367 -0.82459,2.41596 -1.23689,3.62395 -0.27548,0.47225 -1.3074,1.67668 -0.82643,1.41674 5.63071,-3.04308 11.61922,-5.69508 16.46966,-9.87101 1.12871,-0.97175 0.0574,-2.98027 0.18136,-4.4645 0.67016,-8.02564 2.29365,-15.93449 3.68763,-23.8546 1.99928,-9.78524 3.89575,-19.85272 7.17089,-29.31677 0.39332,-1.13657 2.4249,-3.88433 1.34925,-3.34632 -5.48383,2.74284 -10.16222,6.8638 -15.24333,10.2957 -0.0265,1.68341 0.0422,3.37101 -0.0794,5.05023 -0.1535,2.11961 -0.47526,4.22383 -0.74487,6.33183 -1.11826,8.74348 -2.64107,17.39326 -4.40812,26.02612 -0.3096,1.44687 -0.59732,2.89859 -0.92879,4.34061 -0.24414,1.06211 -0.90735,3.79079 -1.38753,5.04056 -0.10435,0.2716 -0.68566,0.89692 -0.42877,0.76032 17.347,-9.22437 16.96538,-3.0879 16.32866,-12.02242 0.39391,-7.48764 0.63765,-15.00187 1.76259,-22.42822 0.61909,-4.0869 2.29347,-11.93462 3.11392,-15.9174 3.02909,-15.27444 8.04471,-30.03375 13.76193,-44.4847 0.97915,-2.32534 2.12596,-5.14754 3.23765,-7.46694 0.34234,-0.71428 0.68239,-1.43335 1.10098,-2.10579 0.20683,-0.33226 1.11859,-1.05795 0.76456,-0.89109 -17.64594,8.31719 -16.7287,2.26671 -16.84,11.29868 -1.04018,7.76707 -3.11495,15.34739 -4.98907,22.93933 -0.9449,3.82775 -1.84616,7.66645 -2.82794,11.48491 -1.05884,4.11814 -2.25571,8.20025 -3.29364,12.32371 -1.09917,4.3667 -2.07801,8.76282 -3.11702,13.14422 -0.95707,4.64174 -1.91717,9.28285 -2.8712,13.92522 -0.94252,4.58632 -1.94775,9.16033 -2.81845,13.76083 -1.544,8.15803 -3.01729,17.74873 -4.32093,25.97687 -2.47557,15.62505 -0.95515,6.24945 -3.2691,20.33577 -0.39833,2.39723 -0.79665,4.79446 -1.19498,7.19169 -0.31254,1.63128 -0.66274,3.25579 -0.93761,4.89383 -1.45156,8.65017 4.85747,1.94277 16.15408,-9.9935 1.46966,-1.55288 0.61689,-4.23142 0.91676,-6.34836 0.44919,-3.17108 0.88696,-6.34378 1.33043,-9.51568 2.69018,-15.87242 1.37438,-9.13182 4.90121,-25.55921 2.15953,-10.05875 3.50495,-16.52042 6.0385,-26.43921 2.40148,-9.40175 3.20375,-11.70398 5.89859,-20.53946 -8.56368,4.13936 8.1626,-12.56466 4.5139,-11.00948 -5.39072,2.29768 -10.9823,5.003 -14.85539,9.40055 -1.41121,1.60231 0.90274,4.19354 1.00418,6.3263 0.16485,3.46615 -0.71659,21.7242 -0.80169,23.70359 -0.66714,16.2085 -2.38518,32.3403 -4.62625,48.39885 -1.03692,7.43012 -2.45435,16.42792 -3.81474,23.9201 -0.48292,2.65959 -1.04203,5.30478 -1.56305,7.95717 -0.46618,1.70152 -3.11893,5.4955 -1.39856,5.10456 5.57137,-1.26603 10.97594,-4.19867 15.04805,-8.20627 1.28221,-1.2619 -1.17478,-3.42485 -1.41859,-5.20726 -0.44859,-3.27947 -0.59347,-6.59924 -0.64907,-9.90878 -0.15772,-9.38891 0.60195,-18.85507 1.15689,-28.21029 1.00933,-14.69483 2.8679,-29.3129 5.33542,-43.82984 0.234,-1.37666 2.8926,-16.12955 3.6548,-18.59004 0.42695,-1.37828 1.3155,-2.56852 1.97325,-3.85277 -5.1796,2.96511 -11.25538,4.73932 -15.53879,8.89535 -1.27945,1.24139 0.78199,3.48868 0.94559,5.26387 0.30386,3.29725 0.40101,6.6125 0.454,9.92331 0.0723,4.5156 0.0834,9.03503 -0.0783,13.54831 -0.27875,7.77737 -1.46615,21.21187 -2.10508,29.01664 -1.05557,10.40208 -1.27944,13.28441 -2.5243,23.19894 -0.33554,2.67238 -0.60829,5.35619 -1.08772,8.00654 -0.26198,1.4482 -2.51569,4.77037 -1.13259,4.26739 17.46673,-6.35204 15.99943,-4.66297 15.17848,-14.88571 -0.19088,-7.58331 -0.40012,-11.8691 -0.10165,-19.7568 0.15238,-4.02704 0.46109,-8.0471 0.76489,-12.06555 0.66722,-8.82557 1.21263,-14.56029 2.49911,-23.24074 0.46843,-3.1607 1.07675,-6.29907 1.61513,-9.44861 0.14366,-0.68517 2.05426,-11.00925 3.16757,-12.55132 0.46608,-0.64559 2.95611,-0.91144 2.35724,-0.38668 -4.69179,4.11128 -11.49047,6.11606 -14.87547,11.35602 -1.55617,2.40894 1.63615,5.50846 2.15954,8.32816 0.6929,3.73289 0.98836,7.52872 1.48254,11.29307 2.64304,20.63917 3.42913,41.48011 2.79641,62.26901 -0.0734,2.41306 -0.21524,4.82356 -0.32286,7.23534 7.9358,-5.77732 -3.11014,6.73511 -1.59098,5.55238 5.09431,-3.9661 11.33828,-6.95904 14.95664,-12.30594 1.39897,-2.06728 -1.25132,-4.83783 -1.69247,-7.29469 -1.89052,-10.52879 -1.66512,-12.42679 -2.35474,-23.5139 -1.08067,-20.6729 -0.66164,-41.49101 2.43973,-61.98736 0.34457,-2.27717 0.8249,-4.53172 1.23734,-6.79757 0.60479,-0.97821 2.84937,-3.43601 1.81435,-2.93463 -5.36748,2.60011 -11.0993,5.10192 -15.20956,9.42351 -1.17301,1.23333 1.271,3.17279 1.65135,4.83182 1.34294,5.85767 2.06835,13.86152 2.33956,19.67662 0.18128,3.88681 0.0983,7.78145 0.14739,11.67217 -0.16115,6.86112 -0.1991,13.77746 -0.80946,20.62268 -0.21764,2.44084 -0.49337,4.88261 -0.95471,7.28931 -0.2847,1.48524 -2.7097,4.83773 -1.27708,4.35339 17.26953,-5.83853 16.9042,-4.47993 13.07244,-11.39147 -4.07733,-14.6037 -5.24386,-29.79365 -6.1788,-44.86359 -0.0379,-0.88093 -0.35633,-7.26338 -0.28191,-8.71996 0.29706,-5.81406 16.42207,-24.31153 -15.45791,8.75748 -1.11659,1.15823 1.01614,3.05816 1.375,4.62644 0.49189,2.14962 0.78229,4.34042 1.17344,6.51064 3.24661,14.7715 4.69565,29.89412 4.91147,45.00215 1.45292,7.65287 0.99532,7.89144 15.65331,-10.91305 1.35872,-1.74307 -0.35149,-4.40946 -0.37936,-6.61936 -0.0355,-2.81188 0.10359,-5.6234 0.1895,-8.4342 0.30592,-10.00898 0.32756,-9.01068 0.97766,-19.03534 0.65466,-6.98322 1.10064,-14.00706 2.44609,-20.90383 0.14364,-0.7363 1.23843,-2.49279 0.55623,-2.18073 -17.43453,7.97499 -16.19952,3.53672 -16.67792,13.07408 -0.56392,4.75976 -1.56534,9.4571 -2.71207,14.10669 -0.30241,1.22617 -0.48284,2.4973 -0.9701,3.66243 -0.26759,0.63987 -1.87474,1.97148 -1.25542,1.65928 5.40216,-2.72329 10.51549,-5.98523 15.77324,-8.97784 -0.28465,-0.92608 -0.67721,-1.82566 -0.85395,-2.77824 -0.69053,-3.72176 -0.68138,-6.92865 -0.67193,-10.72588 0.008,-3.29113 0.15699,-7.87711 0.40832,-11.19827 0.0974,-1.28774 0.27335,-2.56833 0.41002,-3.85249 0.0319,-0.5997 0.63967,-2.05354 0.0957,-1.79909 -5.80013,2.71304 -11.53329,5.72409 -16.66746,9.55063 -0.84117,0.62694 -0.19408,2.09012 -0.34429,3.12841 -0.55597,3.84321 -1.44199,7.63104 -2.28803,11.41725 -0.23404,0.94125 -0.44367,1.8889 -0.70213,2.82374 -1.8904,6.83755 -7.20517,10.18664 15.9311,-7.30954 0.88791,-0.67146 -0.21277,-2.22039 -0.20157,-3.33354 0.0392,-3.89426 0.49829,-6.85501 0.95234,-10.75452 0.39692,-2.49896 1.01271,-7.20399 1.86556,-9.78363 0.21735,-0.65743 1.6159,-2.16465 1.02215,-1.8084 -5.4467,3.26803 -11.64071,5.8586 -15.78919,10.66867 -1.43167,1.65999 0.72617,4.32551 0.97944,6.50292 0.39135,3.36461 0.6358,6.7447 0.95371,10.11705 0.89312,11.68006 0.88374,23.40546 0.75253,35.11068 -0.0143,1.274 -0.246,13.88623 -0.40594,16.08434 -0.0897,1.23271 -0.36724,2.44451 -0.55086,3.66677 5.28978,-3.22264 11.60056,-5.17963 15.86933,-9.66791 1.42734,-1.50074 -0.65603,-4.09462 -0.81593,-6.15956 -0.49475,-6.38893 -0.48161,-14.20135 -0.29363,-20.52523 0.10807,-3.63557 0.26837,-7.2715 0.55377,-10.89746 0.23965,-3.04477 0.68044,-6.07036 1.02066,-9.10554 -10.3813,5.496 5.41262,-9.68179 3.25887,-7.84393 -4.61764,3.94037 -10.93995,6.6422 -13.61973,12.08902 -1.36404,2.77248 2.45739,5.67842 3.43647,8.60907 3.11441,9.32224 4.45105,16.30225 6.66908,25.96606 1.80262,10.26901 2.85836,15.41894 4.08584,25.5703 0.38904,3.2174 0.74218,6.44311 0.91566,9.6793 0.11649,2.17306 0.37747,4.39396 -0.0469,6.52837 -0.16033,0.80652 -2.26384,2.37223 -1.6207,1.85983 4.86682,-3.87737 9.54613,-7.98445 14.3192,-11.97667 -0.84893,-2.45818 -1.88569,-4.85933 -2.54679,-7.37454 -1.36183,-5.18119 -3.0279,-16.05212 -3.67973,-21.10951 -1.06571,-8.26852 -1.6057,-14.70389 -1.9493,-22.99806 -0.13408,-3.23667 -0.1258,-6.47768 -0.18869,-9.71652 0.0378,-2.61321 -0.18691,-5.24346 0.1135,-7.83961 0.65722,-5.67963 11.73989,-20.87981 -13.40589,5.0814 -1.01241,1.04524 1.40662,2.55472 1.96225,3.89962 2.70198,6.54006 3.61575,10.53021 5.67779,17.6117 3.13615,12.74401 2.93056,11.06574 5.276,23.95209 0.66479,3.65254 1.31295,7.30947 1.84823,10.98323 0.64563,4.43116 1.48782,10.71138 1.1883,15.4167 -0.0703,1.10403 -0.4842,2.1589 -0.72629,3.23835 4.91746,-3.19677 10.90502,-5.16327 14.75238,-9.5903 1.11453,-1.28245 -1.90105,-2.83341 -2.61583,-4.37481 -1.02336,-2.20684 -1.78329,-4.52808 -2.57865,-6.82695 -3.24129,-9.36841 -5.54052,-18.98478 -7.95078,-28.58887 -1.90473,-8.54673 -3.83322,-17.14759 -4.47641,-25.90471 -0.12268,-1.67033 -0.32025,-3.36265 -0.10367,-5.02341 0.10675,-0.81862 1.7732,-2.64279 1.05121,-2.24247 -5.07904,2.81618 -9.65356,6.45901 -14.48034,9.68852 0.79004,0.97335 1.69393,1.86444 2.37013,2.92007 1.88566,2.94376 3.27028,6.39897 4.48256,9.65185 0.91928,2.46666 2.22298,6.49514 2.89816,9.11933 0.27618,1.07338 0.45978,2.16847 0.68967,3.25271 0.036,0.64189 -0.4753,2.19604 0.10799,1.92568 5.48536,-2.54252 10.97944,-5.34318 15.62171,-9.21654 0.75328,-0.62851 -1.20588,-1.55827 -1.67586,-2.41941 -0.72312,-1.325 -1.33429,-2.71169 -1.89035,-4.11502 -1.74447,-4.40252 -2.07205,-6.20352 -3.28861,-10.80267 -1.16068,-4.7464 -2.03343,-9.55924 -2.5996,-14.41218 -0.20588,-1.7647 -0.44339,-3.70379 -0.28961,-5.50473 0.0335,-0.39183 0.17774,-0.76616 0.26662,-1.14924 -5.31703,3.06632 -10.96348,5.62169 -15.95109,9.19897 -0.49438,0.3546 0.8568,0.88299 1.15498,1.41331 0.63701,1.13295 1.15693,2.33154 1.63105,3.54173 0.57732,1.47362 1.04038,2.98992 1.51888,4.49852 1.23532,3.89472 1.8591,6.33489 2.94463,10.30132 0.97651,3.99649 1.71469,6.83748 2.52483,10.87012 3.04046,15.1346 -1.14785,-4.61398 1.84907,9.94619 1.0087,4.90067 1.10658,5.00165 2.39757,9.93692 1.72914,8.4112 5.17469,16.30177 7.87864,24.41129 0.83959,2.51803 1.5651,5.07272 2.36404,7.60395 0.8299,2.62931 1.68163,5.25168 2.52245,7.87752 2.06118,6.75056 3.62396,13.64042 4.79048,20.59862 0.44927,2.67982 0.84177,5.11633 0.897,7.81016 0.0125,0.6113 -0.0765,1.22045 -0.1148,1.83067 5.35533,-2.90677 11.1508,-5.11896 16.06599,-8.72031 0.66827,-0.48964 -0.87697,-1.41685 -1.17633,-2.18932 -0.45382,-1.17102 -0.73906,-2.40097 -1.0719,-3.61194 -1.81681,-6.61016 -3.18471,-13.3061 -4.55466,-20.0195 -1.75133,-11.6402 -3.4173,-23.29999 -4.79349,-34.9916 -3.76409,-31.97824 1.8819,14.25703 -1.75272,-15.30228 -0.79567,-5.69184 -1.65007,-11.37482 -2.46297,-17.06416 -0.18124,-1.26843 -0.90069,-4.62049 -0.45012,-6.20983 0.0943,-0.33271 0.52534,-0.44989 0.78801,-0.67483 -5.06835,3.28327 -10.74119,5.78262 -15.20505,9.8498 -0.74253,0.67655 1.08894,1.69019 1.57435,2.56964 0.80477,1.45808 1.57839,2.93467 2.29379,4.4386 2.30866,4.85326 3.99712,8.96422 5.75183,14.10365 0.91311,2.67442 1.66725,5.40051 2.50087,8.10077 2.42003,8.10202 5.14764,16.10617 7.92067,24.09245 2.11539,6.0923 2.89274,8.75479 5.66116,14.58774 1.1958,2.51949 2.57428,4.94815 3.86143,7.42223 0,0 10.59137,-6.01486 10.59137,-6.01486 v 0 c -3.27562,-7.236 -6.58281,-14.48282 -9.43835,-21.8992 -3.02891,-7.86667 -5.55738,-15.91938 -8.01204,-23.97889 -0.80502,-2.71814 -1.67635,-5.41753 -2.41507,-8.15443 -1.46851,-5.4407 -2.41045,-9.91532 -3.46485,-15.39514 -0.33535,-1.74284 -0.62334,-3.49445 -0.93121,-5.24235 -0.19506,-1.1074 0.52233,-3.55718 -0.57757,-3.32353 -5.86915,1.24681 -11.06365,4.64778 -16.59547,6.97166 0.20641,0.20086 0.46795,0.35749 0.61924,0.60257 0.89152,1.44423 1.69605,3.88458 2.18567,5.33061 1.77271,5.23549 3.14982,10.59168 4.2499,16.0077 0.86056,4.33058 2.10403,10.40971 2.80699,14.71276 1.90239,11.64511 3.01833,23.40504 4.60911,35.09281 0.57046,7.24198 1.13142,14.47032 1.31434,21.73468 0.0348,1.38155 0.13339,2.76678 0.0421,4.14575 -0.0609,0.91908 -1.36766,3.01774 -0.49659,2.7183 5.66105,-1.94611 10.69761,-5.37593 16.04642,-8.06389 -0.29837,-0.42921 -0.64462,-0.82882 -0.89512,-1.28762 -1.09671,-2.00864 -2.095,-4.71887 -2.87433,-6.77155 -2.45462,-6.46523 -4.66604,-13.02036 -6.56967,-19.67019 -0.76232,-2.67082 -1.50258,-5.34803 -2.28695,-8.01246 -0.74974,-2.54678 -1.61281,-5.06036 -2.31522,-7.6206 -2.29785,-8.37551 -3.67528,-16.97131 -5.99101,-25.34295 -0.29223,-1.39666 -1.77971,-8.52701 -2.11516,-10.04894 -1.52057,-6.89873 -3.34865,-13.72678 -4.84106,-20.6327 -0.35583,-1.52574 -2.09866,-8.96312 -2.44611,-10.59016 -0.34131,-1.59832 -0.70115,-3.19489 -0.94921,-4.81031 -0.21384,-1.39247 -0.33798,-2.79848 -0.43504,-4.20392 -0.0699,-1.01163 0.88603,-3.39246 -0.0653,-3.04142 -5.7767,2.13157 -10.74877,6.00991 -16.12316,9.01487 0.18121,0.26624 0.40069,0.51012 0.54365,0.79871 0.70369,1.42064 1.2744,3.35019 1.72353,4.79436 1.41941,4.56402 2.6729,9.17798 3.83528,13.81363 1.20805,4.88495 1.6563,6.31838 2.50875,11.27697 0.27353,1.59113 0.54222,3.18697 0.67815,4.79571 0.0885,1.04775 -1.01258,3.45978 -0.006,3.15445 5.66693,-1.71967 10.86788,-4.81314 15.87794,-7.97077 0.49123,-0.3096 -0.75765,-0.88011 -1.13647,-1.32017 -0.50308,-0.93397 -1.04773,-1.84672 -1.50924,-2.80191 -1.08992,-2.2558 -2.82612,-6.48111 -3.68678,-8.71125 -1.82242,-4.72232 -3.48996,-9.52636 -4.28339,-14.54543 -5.41908,2.42745 -11.10723,4.32662 -16.25725,7.28233 -0.52049,0.29872 0.87354,0.85621 1.13849,1.39468 0.6706,1.36291 1.12568,2.82229 1.6397,4.25163 2.87737,8.00112 5.30929,16.16459 7.1868,24.4596 2.07747,9.91396 4.16817,19.81309 5.6921,29.83149 0.38771,2.54882 0.84565,5.09372 1.0344,7.66495 0.14339,1.95325 -1.99603,5.98139 -0.0404,5.87538 5.64467,-0.30599 10.3812,-4.47821 15.5718,-6.71731 -0.53158,-0.68776 -1.19447,-1.29167 -1.59472,-2.06328 -1.90635,-3.67505 -3.76947,-9.87411 -4.79229,-13.50301 -3.22542,-11.4437 -5.69494,-23.12114 -7.07039,-34.93601 -0.77904,-8.62417 -1.31132,-11.75046 -1.22665,-19.96518 0.0183,-1.77265 2.11866,-5.47018 0.35349,-5.30647 -30.45563,2.82451 -15.66877,2.76948 -13.68809,9.3564 0.69469,2.31024 0.85074,4.74925 1.2761,7.12388 0.45425,3.0377 0.96043,6.06808 1.36275,9.11309 1.12957,8.54936 1.64022,14.1443 2.31125,22.83096 0.30105,3.89709 1.2806,18.12337 1.30422,22.38403 0.0165,2.98567 -0.26403,5.9656 -0.39605,8.9484 5.16784,-1.2977 10.374,-2.45136 15.50351,-3.89311 0.639,-0.1796 -1.56201,0.60276 -1.98901,0.0946 -1.23401,-1.46859 -1.69031,-3.45201 -2.34665,-5.25444 -1.04078,-2.85821 -1.9111,-5.77776 -2.73665,-8.70539 -2.80088,-9.93261 -3.55383,-14.29234 -5.78317,-24.65745 -1.72672,-11.24536 -2.84346,-16.47066 -3.38112,-27.70435 -0.16754,-3.50065 3.17117,-8.94573 0.0369,-10.5139 -4.72429,-2.36373 -10.48406,1.45412 -15.61257,2.72083 -0.45751,0.113 0.74919,0.57187 1.12379,0.85781 0.33242,1.54712 0.66485,3.09425 0.99727,4.64137 0.15604,2.78303 0.42918,5.56196 0.46813,8.34909 0.0992,7.10118 -0.28641,15.1952 -1.23464,22.21326 -0.47839,3.54071 -1.06715,7.07743 -1.9465,10.54041 -0.6407,2.52312 -5.16312,6.90915 -2.59998,7.36409 4.94983,0.87855 9.40787,-3.54723 14.1118,-5.32084 -0.65185,-0.68719 -1.61336,-1.17837 -1.95557,-2.06157 -0.77867,-2.00963 -2.31796,-13.37235 -2.45264,-14.55799 -1.32023,-11.62255 -1.76851,-23.35178 -0.76651,-35.02188 0.52694,-3.77629 0.86579,-7.58363 1.5808,-11.32886 0.51261,-2.68502 4.74561,-7.25748 2.09567,-7.92824 -5.06362,-1.28172 -10.07612,2.81271 -14.95703,4.67274 -0.35862,0.13666 0.85456,0.29537 0.936,0.67041 0.43442,2.00068 -0.40439,7.59452 -0.57319,9.10271 -0.79192,4.47299 -1.08756,7.12217 -2.52399,11.42787 -0.45831,1.37379 -3.12554,4.2632 -1.70191,3.99745 43.16298,-8.05716 15.72829,-1.16121 15.2943,-7.64589 -0.0556,-0.83028 0.0815,-1.66228 0.1222,-2.49342 0.52178,-3.81114 1.05106,-7.67626 2.47411,-11.28445 0.45536,-1.15457 2.88467,-3.61318 1.67771,-3.32397 -22.09257,5.29382 -19.67404,5.53699 -13.68376,6.72486 0.26002,1.04361 0.65797,2.06227 0.78005,3.13083 0.25695,2.24918 0.14607,8.88863 0.073,10.94037 -0.1889,5.3045 -0.67751,10.58964 -1.82845,15.78053 5.41225,-2.41696 10.99339,-4.48659 16.23675,-7.2509 0.34629,-0.18257 -0.36531,-0.724 -0.36741,-1.11546 -0.006,-1.12271 0.20004,-2.23708 0.34342,-3.35061 0.61836,-4.80236 1.52199,-9.57791 3.10296,-14.16668 3.91157,-8.41189 4.16624,-6.57118 -13.0462,2.1609 -0.45231,0.22946 1.14613,0.20617 1.37043,0.66105 0.6039,1.22467 0.77141,2.63398 0.92352,3.99096 0.24852,2.2171 0.23986,4.45665 0.27343,6.68738 0.0416,2.76668 -0.0319,5.53389 -0.0478,8.30084 -0.5181,9.17276 -0.4131,10.08101 -1.57604,19.30066 -0.37792,2.99611 -0.73155,6.00129 -1.32734,8.96179 -0.51915,2.57969 -4.57191,7.02255 -2.01239,7.63341 8.24233,1.96714 17.66783,-9.47384 12.38952,-3.34782 -0.48592,-1.14327 -1.07328,-2.24856 -1.45777,-3.42981 -1.05184,-3.23158 -2.41715,-9.73821 -2.97161,-12.79073 -1.65082,-9.08846 -2.64092,-18.28735 -2.48041,-27.53752 0.0308,-2.37022 -0.0967,-4.7478 0.0925,-7.11065 0.14962,-1.86859 2.79326,-5.64248 0.92107,-5.54779 -5.54376,0.2804 -10.28165,4.18751 -15.42248,6.28127 0.38652,0.0782 0.93899,-0.0923 1.15958,0.23455 0.58117,0.86126 2.23962,7.33184 2.31199,7.59636 1.21075,5.41995 1.79041,7.61655 2.65327,13.33586 1.61541,10.70741 2.23072,21.55423 1.92222,32.37616 -0.5276,9.74483 -2.1314,10.99933 14.89142,-3.01885 0.88267,-0.72687 -0.71212,-2.18104 -0.91184,-3.3069 -1.52875,-8.61789 -1.3387,-17.45016 -1.73177,-26.15312 10e-5,-3.91704 -0.11445,-7.83577 3e-4,-11.75113 0.20327,-6.93543 0.82208,-14.90659 1.8037,-21.83778 0.31162,-2.20036 3.44484,-6.52752 1.22268,-6.55385 -21.50575,-0.25485 -18.49752,2.67534 -14.51037,7.9623 0.17748,1.97625 0.39149,3.94956 0.53243,5.92875 0.39938,5.60854 0.76729,13.77774 0.87746,19.17969 0.21699,10.63948 0.0614,16.44217 -0.10933,27.23239 -0.0746,4.71318 -0.16314,9.42614 -0.24472,14.13921 -0.19841,12.15506 0.0438,13.49021 -1.14622,25.32218 -0.29386,2.92171 -3.96278,7.82669 -1.16918,8.73142 4.96309,1.60736 10.00628,-2.96777 15.06813,-4.23009 0.4467,-0.1114 -0.80855,1.06521 -1.15322,0.76 -0.84697,-0.74998 -0.96833,-2.0449 -1.4525,-3.06735 -0.43056,-2.13177 -0.90383,-4.25535 -1.29167,-6.3953 -3.66005,-20.19505 -5.10973,-40.74582 -4.70399,-61.25965 0.10889,-4.07682 0.0507,-8.16154 0.32667,-12.23047 0.23015,-3.39344 4.19122,-8.53356 1.19008,-10.13407 -4.68525,-2.49866 -10.53352,1.39053 -15.7527,2.3678 -0.41342,0.0774 1.09422,-0.049 1.21082,0.3551 1.02024,3.53595 -1.12179,7.58184 0.0479,11.04049 -0.0981,2.93478 -0.15613,5.87119 -0.29435,8.80436 -0.41706,8.84979 -0.83055,13.84811 -1.6305,22.82343 -0.36435,4.08806 -0.65134,8.18556 -1.16495,12.25756 -1.29866,10.29614 -1.92381,12.14686 -4.05702,21.71691 -3.10783,8.58719 -6.42055,12.64961 11.79823,1.23857 0.88663,-0.55532 -1.46297,-1.612 -1.71791,-2.62664 -0.5775,-2.29832 -0.55613,-4.70867 -0.71928,-7.07281 -0.61537,-8.91734 -0.43309,-12.33133 -0.43104,-21.6867 0.22549,-4.67846 0.33751,-9.36377 0.67646,-14.03537 0.83058,-11.44738 1.64385,-18.46515 3.96573,-29.70749 0.80296,-3.88786 1.77203,-7.74469 2.89368,-11.55286 0.70134,-2.38115 5.04637,-6.85211 2.56792,-6.9901 -5.47008,-0.30454 -10.12359,4.19175 -15.18539,6.28763 2.44104,4.19203 1.43391,1.62935 1.44656,9.34229 0.005,3.21996 -0.0272,6.44046 -0.11593,9.65921 -0.39472,14.32728 -1.5012,28.6253 -3.34344,42.84122 -1.46448,10.66968 -2.49904,19.38649 -4.54491,29.90294 -0.75301,3.87071 -1.56972,7.73505 -2.61665,11.53681 -0.67654,2.4567 -5.09205,7.12021 -2.54542,7.20823 17.53368,0.60599 15.51206,-3.38485 14.24946,-10.83898 -0.12441,-2.32871 -0.30242,-4.65516 -0.37323,-6.98611 -0.72054,-23.71991 1.24779,-47.49851 5.53197,-70.83033 1.34449,-6.56665 3.78044,-19.18419 5.6938,-26.12707 0.79192,-2.87354 5.68877,-7.74501 2.80305,-8.4913 -5.12718,-1.32596 -10.34258,2.75506 -14.96071,5.34716 -2.67366,1.50069 6.76457,9.49751 -0.52785,9.18292 -1.13693,8.09318 -1.41675,10.63962 -2.98715,19.1427 -1.56946,8.49796 -3.56084,17.79286 -5.52611,26.18407 -1.05976,4.52489 -2.09225,9.05894 -3.32813,13.53893 -1.22246,4.43139 -2.69596,8.78967 -4.04394,13.1845 -1.24798,3.53584 -2.39326,7.10962 -3.74394,10.60751 -0.94643,2.451 -5.66591,6.49411 -3.1432,7.22829 4.44802,1.29451 8.77593,-2.97794 13.21688,-4.29654 0.5593,-0.16607 -1.1959,1.30013 -1.54113,0.82979 -0.97183,-1.32405 -1.00642,-10.20224 -1.01432,-10.4002 0.0537,-8.2297 -0.075,-10.31158 0.65679,-18.98988 0.74435,-8.82705 1.84517,-16.67313 3.31856,-25.43195 0.76403,-4.5419 1.55183,-9.0822 2.50663,-13.58785 1.00424,-4.73889 2.24569,-9.42439 3.36854,-14.13659 2.38539,-8.63905 4.70011,-17.38518 7.44076,-25.92391 1.30431,-4.0637 2.74624,-8.08213 4.165,-12.1073 3.02334,-8.57747 6.17753,-17.12442 10.09085,-25.34442 0.67247,-1.25495 3.40564,-4.08099 2.01741,-3.76486 -5.78385,1.31708 -10.97373,4.51963 -16.349,7.02842 -0.16495,0.077 0.21631,0.32203 0.21029,0.50396 -0.0196,0.59296 -0.17275,1.17433 -0.28502,1.75689 -0.45245,2.34764 -0.9512,4.30505 -1.51382,6.67221 -1.58887,6.16155 -3.33448,12.27424 -4.9951,18.41637 -2.26467,8.37633 -4.47183,16.77021 -6.59729,25.18285 -0.65428,2.76874 -1.34266,5.52964 -1.96285,8.30622 -0.58879,2.63599 -1.09888,5.28898 -1.66382,7.93018 -0.55635,2.60105 -1.15432,5.19316 -1.70002,7.79646 -1.13797,5.42882 -2.07524,10.90197 -3.40414,16.29005 -2.95923,8.72014 -2.35739,4.25386 14.9613,-3.56148 0.13647,-0.0616 -0.33914,-0.078 -0.39284,-0.21779 -0.17828,-0.46407 -0.21113,-0.97423 -0.25533,-1.4694 -0.0788,-0.88301 -0.11342,-1.77065 -0.11304,-2.65718 5.7e-4,-1.30752 0.0772,-2.61391 0.11586,-3.92087 0.11078,-1.68392 0.18423,-3.37072 0.33233,-5.05176 0.60775,-6.89861 1.72529,-13.69085 3.14745,-20.46589 0.47051,-2.2415 0.92395,-4.48881 1.50561,-6.70407 0.52337,-1.99324 1.20473,-3.94162 1.8071,-5.91242 -4.74489,1.35053 -9.77746,1.93705 -14.23466,4.05158 -0.79989,0.37947 0.13368,1.76945 0.0998,2.65414 -0.0598,1.55761 -0.21634,3.11066 -0.38036,4.66076 -0.82617,7.80759 -2.19342,15.54684 -3.83006,23.22244 -1.92358,8.48956 -3.64414,17.02389 -6.65859,25.21548 -0.67617,1.83745 -4.26489,5.43944 -2.30734,5.40158 25.0542,-0.48467 19.43296,-3.32703 14.44318,-6.07457 -0.12394,-0.93643 -0.33306,-1.86549 -0.37183,-2.80929 -0.15178,-3.69406 0.24342,-8.71688 0.58085,-12.22296 0.99616,-10.35068 2.65785,-20.62796 4.91156,-30.77932 2.41298,-10.15911 2.50204,-11.60187 5.77988,-21.32895 0.83906,-2.48994 5.33587,-6.73011 2.78821,-7.37295 -5.02374,-1.26761 -9.9662,2.83861 -14.93463,4.30811 -0.34862,0.10311 0.91465,-0.53596 1.0707,-0.20761 0.42911,0.90288 0.16729,1.99231 0.25093,2.98847 -0.13964,1.89846 -0.24129,3.8001 -0.41891,5.69538 -0.95745,10.21619 -2.48367,20.36098 -4.14918,30.48207 -0.73764,4.48259 -1.45881,8.96873 -2.29369,13.43422 -0.86412,4.62188 -1.86845,9.21644 -2.80267,13.82465 -2.21328,9.40324 -3.04486,13.47255 -5.56259,22.36626 -0.61673,2.17855 -4.2694,6.39612 -2.00714,6.48918 5.61138,0.23084 10.6755,-3.56568 15.773,-5.92288 0.38663,-0.17879 -0.52428,-0.67152 -0.78642,-1.00727 0.12498,-1.5673 0.24996,-3.1346 0.37494,-4.7019 0.74955,-6.44657 0.98465,-9.10386 2.1433,-15.88581 3.00672,-17.59942 7.59581,-34.89005 13.24879,-51.81868 1.64949,-4.18975 3.18463,-8.42633 4.94847,-12.56924 1.27429,-2.99304 7.07176,-7.37462 4.16119,-8.82745 -4.20381,-2.09835 -8.89911,3.05474 -13.45923,4.18628 -0.52091,0.12926 0.81706,-1.55491 1.14613,-1.1309 0.69013,0.88924 0.52955,2.20483 0.56059,3.33004 0.0607,2.20252 -0.19106,4.40257 -0.28659,6.60386 -0.70523,8.6972 -0.8969,12.0595 -2.03201,21.19203 -2.55568,20.56164 -6.67675,40.87498 -9.83142,61.34496 -1.52014,6.47221 -4.10549,18.24338 -6.28781,25.09151 -0.6394,2.00644 -4.46127,5.96757 -2.35812,5.86096 5.54369,-0.28101 10.47278,-3.82007 15.32373,-6.51818 1.78354,-0.99201 -10.89206,-4.66289 -1.90104,-5.81998 -0.42727,-6.3118 -0.70576,-9.39219 -0.81383,-16.00005 -0.2545,-15.56152 0.92641,-31.09045 2.44898,-46.56601 0.49942,-3.32179 0.95404,-6.65062 1.49827,-9.96536 0.36283,-2.20986 3.45641,-6.44852 1.22252,-6.60618 -30.37094,-2.1434 -16.2921,0.18765 -16.17519,6.27693 0.0262,1.36242 -0.15195,2.72452 -0.11023,4.08652 -0.13553,3.0975 -0.19287,4.8755 -0.43434,8.09111 -0.66501,8.8558 -1.89488,17.65173 -2.98394,26.46162 -1.14774,7.01861 -0.86064,5.79704 -2.20761,12.20273 -0.24125,1.14727 -1.90379,3.70762 -0.76402,3.43309 5.85124,-1.40931 11.02892,-4.82244 16.54338,-7.23366 -0.0927,-0.18517 -0.26338,-0.34896 -0.27815,-0.55552 -0.0432,-0.60443 0.0725,-1.20978 0.10868,-1.81468 1.16531,-11.44248 4.05636,-22.63031 7.53553,-33.57119 0.91974,-2.75976 1.80996,-5.52954 2.75924,-8.27928 2.00074,-5.79547 3.48341,-9.69606 5.63458,-15.37957 0.78374,-2.07069 1.52928,-4.15664 2.3672,-6.20601 1.11788,-2.7341 2.45101,-5.37668 3.53996,-8.12364 0,0 -16.45892,8.15043 -16.45892,8.15043 z" />
      <path
         style="fill:#000000;stroke:#000000;stroke-width:0;stroke-miterlimit:4;stroke-dasharray:none"
         id="path2463"
         d="m -168.88866,-319.32215 c 2.01529,-0.65012 4.06979,-1.18159 6.12769,-1.67952 2.78748,-0.54538 5.6053,-1.16402 8.46171,-1.15425 0.46343,0.002 0.92583,0.0439 1.38874,0.0658 0.43629,0.0811 0.88062,0.12684 1.30886,0.24315 1.39581,0.37913 2.81113,1.18619 3.68578,2.36344 0.18325,0.24665 0.31426,0.52812 0.47139,0.79218 0.0968,0.28828 0.23058,0.56668 0.2903,0.86484 0.52553,2.62353 -1.45534,5.37619 -2.80955,7.41212 -2.30055,2.989 -5.0562,5.6291 -8.12147,7.82877 -0.87893,0.63073 -1.93261,1.03448 -2.7078,1.78907 -0.67434,0.65642 1.59931,-0.9923 2.39897,-1.48845 -1.14288,0.49185 -2.24877,1.08062 -3.42865,1.47554 -5.01899,1.67992 -10.97013,2.00859 -16.11096,0.65721 -1.14743,-0.30163 -2.23601,-0.79409 -3.35401,-1.19113 -0.96181,-0.56681 -1.97628,-1.05253 -2.88544,-1.70044 -2.21279,-1.57695 -4.22682,-3.79911 -4.7897,-6.54525 -0.40542,-1.97793 -7.6e-4,-2.75201 0.45662,-4.63008 0.39055,-0.66749 0.70446,-1.38619 1.17166,-2.00246 1.04542,-1.379 2.32644,-2.34874 3.76792,-3.27728 0.72255,-0.46543 2.94918,-1.76192 2.2421,-1.2733 -3.62903,2.5078 -6.07305,3.34326 -2.1912,1.80483 1.97182,-0.7525 4.06158,-1.10175 6.06612,-1.74491 1.00232,-0.32159 1.2839,-0.45889 2.21817,-0.84605 3.68089,-1.80937 7.41053,-3.69057 10.52799,-6.37386 -2.58962,1.53237 -5.17923,3.06475 -7.76885,4.59712 0,0 7.25454,-5.85391 7.25454,-5.85391 v 0 c -2.67373,1.57902 -5.34746,3.15804 -8.02119,4.73706 -0.23033,0.21803 -0.47094,0.42218 -0.72727,0.60974 -0.1546,0.11313 -0.63848,0.42248 -0.47143,0.3287 5.207,-2.92307 9.17513,-5.30554 5.80887,-3.29154 -0.96564,0.48541 -1.30552,0.68615 -2.3422,1.07755 -2.16412,0.81707 -4.45592,1.25203 -6.61172,2.0974 -4.88842,1.94009 -2.16836,0.75888 -10.47454,5.45104 -2.2372,1.26379 -4.50688,2.78983 -5.97072,4.95954 -0.46305,0.68634 -0.74269,1.47997 -1.11404,2.21996 -0.30977,2.00773 -0.66144,2.86694 -0.061,4.91228 0.85523,2.91319 3.17992,4.97736 5.64925,6.54343 0.9956,0.63142 2.06882,1.13123 3.10323,1.69685 1.1844,0.39253 2.33953,0.88792 3.55319,1.17757 2.70358,0.64522 5.30943,0.75001 8.07725,0.6985 2.66252,-0.0495 5.53771,-0.25194 8.11941,-0.99286 1.16115,-0.33324 2.24436,-0.8945 3.36654,-1.34175 2.866,-1.61974 5.76296,-3.18589 8.598,-4.85923 2.77145,-1.6358 5.25918,-3.67724 7.56858,-5.9049 0.73709,-0.711 1.47136,-1.42636 2.16682,-2.17813 0.63014,-0.68115 1.20473,-1.41167 1.80709,-2.1175 1.27339,-1.80082 1.52571,-1.99843 2.46738,-3.90416 0.71884,-1.45478 1.41484,-3.04769 1.07013,-4.71204 -0.073,-0.35246 -0.2589,-0.67171 -0.38835,-1.00757 -0.19526,-0.31179 -0.35673,-0.6475 -0.58578,-0.93538 -0.96738,-1.21588 -2.76423,-2.17282 -4.22391,-2.6202 -0.4645,-0.14236 -0.94871,-0.20987 -1.42306,-0.31481 -0.50459,-0.0261 -1.00854,-0.0835 -1.51378,-0.0784 -0.5434,0.006 -1.08511,0.0639 -1.62653,0.11054 -2.34845,0.20222 -4.67915,0.57817 -6.99444,1.0131 -0.35933,0.0591 -2.30872,0.37919 -2.78394,0.45957 -0.66316,0.11217 -1.33026,0.26588 -1.99887,0.34595 -0.092,0.011 -0.18508,0.0101 -0.27762,0.0152 0,0 -7.4163,5.67132 -7.4163,5.67132 z" />
      <path
         style="fill:#a05a2c;stroke:#000000;stroke-width:0;stroke-miterlimit:4;stroke-dasharray:none"
         id="path2326"
         d="m -169.5959,-337.014 c -2.1956,-3.97583 -4.20331,-8.04799 -6.11147,-12.16811 -2.51693,-5.62032 -4.43901,-11.47793 -6.51491,-17.26864 -1.93892,-5.32496 -4.23865,-10.50813 -6.50472,-15.69933 -1.91555,-4.43578 -3.92432,-8.82886 -6.01455,-13.18476 -1.89556,-3.84686 -3.78595,-7.69571 -5.56176,-11.59959 -1.30835,-3.04467 -2.75477,-6.02017 -4.39374,-8.89987 -1.73095,-2.86896 -3.52148,-5.6995 -5.13376,-8.63785 -1.63564,-3.02736 -2.76699,-6.28126 -3.96553,-9.49563 -1.27744,-3.5007 -3.01689,-6.79706 -4.80102,-10.05887 -1.61794,-2.85439 -3.11327,-5.77469 -4.57426,-8.71162 -0.78654,-1.63452 -1.62957,-3.24019 -2.54169,-4.80791 -2.07852,-3.42989 -1.07165,-1.76974 -8.34644,4.13231 -0.23615,0.19158 0.41267,0.44679 0.62277,0.66663 0.32351,0.33852 0.65199,0.67226 0.97799,1.00839 3.47416,3.47056 6.36329,7.45087 9.22703,11.42227 2.64799,3.77729 5.2568,7.58211 7.84575,11.40009 1.01441,1.48961 2.00085,2.99794 3.00089,4.49715 2.14186,2.96173 -0.28255,2.72632 8.06062,-4.84319 0.28999,-0.2631 -0.48843,-0.61226 -0.72453,-0.92463 -1.13819,-1.50591 -1.1256,-1.53587 -2.26911,-3.2143 -2.87776,-4.63302 -5.69048,-9.29994 -8.71338,-13.84126 -2.25303,-3.31059 -4.46228,-6.65061 -6.69711,-9.97341 -0.19339,-0.28461 -0.38603,-0.56972 -0.58018,-0.85382 -0.0751,-0.10984 -1.00651,-1.46082 -1.02772,-1.4499 -8.66599,4.46087 -9.48761,1.80617 -7.87733,5.5107 2.07579,4.23684 4.10335,8.49373 5.9982,12.81498 1.51349,3.47455 2.81964,7.03275 4.0524,10.61474 1.48358,4.3244 0.33678,2.90886 8.99951,-2.58822 0.25591,-0.1624 -0.20951,-0.56888 -0.30789,-0.85556 -0.12958,-0.37762 -0.25063,-0.75811 -0.37595,-1.13717 -1.59073,-4.63363 -3.71364,-9.05917 -5.73403,-13.51507 -1.54564,-3.44904 -3.0636,-6.91061 -4.72979,-10.30369 -0.14922,-0.29271 -0.29483,-0.5873 -0.44766,-0.87815 -0.21633,-0.41172 -0.43135,-0.79174 -0.66548,-1.19063 -0.0596,-0.10156 -0.0786,-0.35738 -0.18269,-0.30237 -8.6212,4.55463 -9.5876,1.94346 -7.75946,5.56501 2.28295,4.25266 4.61016,8.48027 6.84348,12.75952 1.39203,2.69051 2.73937,5.4051 3.97055,8.1733 0.94407,3.29948 0.32757,1.60059 7.97106,-4.53995 0.28511,-0.22905 -0.5265,-0.5092 -0.76534,-0.78617 -0.40384,-0.46832 -0.78835,-0.9535 -1.16062,-1.4473 -1.19295,-1.58238 -1.8324,-2.59433 -2.9544,-4.27193 -2.94749,-4.69172 -6.25414,-9.13647 -9.60477,-13.54356 -0.90697,-1.19812 -1.81843,-2.39285 -2.72582,-3.59065 -0.14446,-0.19069 -0.29196,-0.37917 -0.43122,-0.57369 -0.0618,-0.0864 -0.0819,-0.3253 -0.17171,-0.26849 -2.63259,1.66601 -5.14852,3.50961 -7.72278,5.26441 2.79619,3.36302 5.27128,6.98202 7.75742,10.57639 1.77295,2.66523 3.6852,5.24924 5.28411,8.02641 0.26018,3.28514 0.0682,1.83409 7.74383,-4.79081 0.30901,-0.26671 -0.58806,-0.56688 -0.86579,-0.86602 -0.43435,-0.46781 -0.85283,-0.95021 -1.26952,-1.43382 -0.94319,-1.09465 -2.41794,-2.88403 -3.31738,-3.96829 -2.95258,-3.53868 -5.71559,-7.22966 -8.2807,-11.0575 -0.21308,-0.33168 -0.44856,-0.64998 -0.63924,-0.99502 -1.6849,-3.04905 5.62785,-5.82241 -7.79537,4.52692 -0.19365,0.1493 0.48795,0.10402 0.69548,0.23335 0.87235,0.54366 2.35638,1.94962 3.03326,2.55689 3.75257,3.52766 7.2055,7.35373 10.52923,11.28288 0.83648,0.99528 1.63574,2.02077 2.45493,3.03008 0.14369,0.17703 0.29963,0.34441 0.43468,0.52811 0.0594,0.0809 0.0634,0.31868 0.14683,0.26291 2.58319,-1.72612 5.05252,-3.61684 7.57878,-5.42526 -2.66915,-3.27111 -4.80849,-6.936 -7.01771,-10.52344 -0.34387,-0.56201 -0.68908,-1.12321 -1.03161,-1.68604 -0.46987,-0.77208 -1.11096,-1.83456 -1.58184,-2.63144 -0.0698,-0.1182 -0.79343,-1.26312 -0.75502,-1.47556 0.0203,-0.11253 0.18157,0.13909 0.27235,0.20864 -2.58729,1.65112 -5.49077,2.8888 -7.76186,4.95336 -0.38375,0.34884 0.7081,0.75836 1.04504,1.15261 0.49772,0.58239 0.98655,1.17276 1.45819,1.77646 1.87548,2.40065 3.51917,4.92878 5.14159,7.50329 2.13038,3.49861 4.09307,7.10379 5.75558,10.84879 1.50583,3.74691 -0.145,3.41748 8.26598,-4.19268 0.34943,-0.31615 -0.38825,-0.85881 -0.57536,-1.2913 -0.69018,-1.59529 -1.11473,-2.65159 -1.79306,-4.30067 -2.12427,-5.1073 -4.01516,-10.30472 -5.72182,-15.56504 -0.37352,-1.56694 -1.0897,-3.0717 -1.39211,-4.65865 -0.0403,-0.21167 0.17903,-0.74884 -0.0105,-0.64634 -8.43596,4.56229 -9.67619,2.56958 -7.08996,5.6298 3.3192,5.54084 5.1654,11.80834 6.91953,17.98084 0.98983,3.81454 1.93803,7.65535 2.46131,11.56609 -0.0531,0.0851 -0.24576,0.30661 -0.15941,0.25544 2.67211,-1.5834 5.53563,-2.90845 7.94485,-4.86881 0.32496,-0.26441 -0.41809,-0.72639 -0.6124,-1.09755 -0.31047,-0.59303 -0.60424,-1.19467 -0.9016,-1.79438 -0.89329,-1.80156 -1.54183,-3.15315 -2.42849,-4.98456 -2.32822,-4.74708 -4.49814,-9.56807 -6.54407,-14.44276 -0.44602,-1.13814 -0.95165,-2.25391 -1.38536,-3.39705 -0.0588,-0.15499 -0.0105,-0.54648 -0.15833,-0.47144 -8.71048,4.42143 -9.77091,2.09085 -7.54279,5.58432 3.38344,5.54454 5.90854,11.54033 8.35565,17.53865 1.82039,4.59892 3.52983,9.24198 5.0717,13.94177 0.0247,0.19381 -0.0981,0.67356 0.0742,0.58143 2.75185,-1.4716 5.59359,-2.88315 7.98314,-4.89022 0.36601,-0.30742 -0.43096,-0.8538 -0.62379,-1.29117 -0.31516,-0.71479 -0.60507,-1.44047 -0.89961,-2.16401 -0.70103,-1.72211 -1.85697,-4.65629 -2.51432,-6.317 -2.66773,-6.60123 -5.19482,-13.25699 -7.42749,-20.01824 -0.24746,-0.78576 -0.91868,-2.87949 -1.1627,-3.77991 -0.10043,-0.3706 -0.21718,-0.74072 -0.25892,-1.12241 -0.0166,-0.15136 0.21786,-0.5265 0.0871,-0.4484 -8.29717,4.95687 -9.7192,2.85096 -6.56688,5.99967 5.27238,6.62739 9.87523,13.74376 14.30337,20.95151 0.96057,1.63687 1.94617,3.2593 2.8817,4.91061 2.09346,3.69519 3.62318,6.60173 5.45715,10.43642 2.56431,5.36176 4.82169,10.86276 7.11282,16.34414 4.40906,10.55192 8.42896,21.2593 12.61209,31.9014 3.35691,8.29603 6.31334,16.74114 8.9624,25.28714 1.09296,3.64042 2.17989,7.28329 3.18117,10.9502 0.0524,0.21297 0.14294,0.42005 0.15715,0.63891 0.004,0.0627 -0.0704,0.10406 -0.10553,0.15609 2.64618,-1.61308 5.48274,-2.9489 7.93854,-4.83923 0.2663,-0.20499 -0.43305,-0.51409 -0.64376,-0.77589 -0.52046,-0.64667 -2.16965,-2.75603 -2.55434,-3.2468 -4.21842,-5.51456 -7.77185,-11.49934 -11.43194,-17.38925 -4.65184,-7.65851 -8.48075,-15.78122 -12.24341,-23.90238 -3.86958,-8.18517 -6.54143,-16.82877 -8.94441,-25.53301 -1.91578,-7.06471 -3.76726,-14.14604 -5.37503,-21.28761 -0.7325,-3.47079 -1.47641,-6.95344 -1.7776,-10.49337 0.25774,-0.26141 -0.22447,-0.81795 -0.001,-1.11536 0.0563,-0.0751 0.357,0.001 0.27702,0.0501 -2.58917,1.58897 -5.35094,2.89919 -7.86398,4.60601 -0.17615,0.11963 0.35925,0.23648 0.50353,0.39308 0.2992,0.32473 0.54559,0.69442 0.81839,1.04163 3.19164,5.08633 5.29903,10.7703 7.59697,16.29531 3.00346,6.98442 5.70552,14.08679 8.29411,21.23315 2.33116,6.68586 5.02137,13.23634 7.61118,19.82383 1.91528,4.84192 3.52874,9.79353 5.07358,14.76343 1.07279,3.57936 2.15337,7.15313 3.44174,10.66151 1.07873,2.78708 2.21108,5.55183 3.21288,8.36798 0.9787,2.77232 1.68026,5.62896 2.37026,8.48329 0.67189,2.80995 1.31173,5.62741 1.97344,8.43973 0.58187,2.47647 1.20512,4.94256 1.86689,7.39879 0.53099,1.94113 1.13273,3.86173 1.73483,5.78166 0.54044,1.72292 1.11672,3.43406 1.65728,5.15693 0.5656,1.85644 1.11968,3.71634 1.68794,5.572 0.34902,1.1622 0.75378,2.30633 1.13152,3.45921 0.1377,0.48688 0.34127,0.95872 0.41304,1.46163 0.0164,0.12597 0.0111,0.25234 1.4e-4,0.37832 0,0 8.36629,-4.31668 8.36629,-4.31668 v 0 c -0.0256,-0.17127 -0.0588,-0.34124 -0.10791,-0.50755 -0.15534,-0.51601 -0.36116,-1.0151 -0.55352,-1.51803 -0.44858,-1.10313 -0.8968,-2.20704 -1.27632,-3.33641 -0.61584,-1.83396 -1.18296,-3.68319 -1.71389,-5.54356 -0.5171,-1.73564 -1.07005,-3.45993 -1.64858,-5.17612 -0.62297,-1.89539 -1.23361,-3.79525 -1.79052,-5.71128 -0.69896,-2.42395 -1.36474,-4.85753 -1.959,-7.30954 -0.67404,-2.81099 -1.29209,-5.63506 -1.98379,-8.44186 -0.71807,-2.87801 -1.43492,-5.76241 -2.40685,-8.56762 -1.01534,-2.81292 -2.17825,-5.56723 -3.28478,-8.34498 -1.34008,-3.45719 -2.50432,-6.9742 -3.64049,-10.50315 -1.64859,-4.93638 -3.40524,-9.83632 -5.45593,-14.62259 -2.73829,-6.51007 -5.43982,-13.03569 -7.74312,-19.71606 -2.6142,-7.14394 -5.46208,-14.19376 -8.36408,-21.22522 -2.21242,-5.66354 -4.22577,-11.41956 -6.82428,-16.92179 -0.22743,-0.42567 -0.43673,-0.86154 -0.68229,-1.27702 -0.16319,-0.27611 -0.24337,-0.91124 -0.54225,-0.79486 -8.31073,3.23628 -9.07185,1.55228 -8.21558,5.82586 0.75518,3.41275 1.67223,6.78688 2.55238,10.16878 1.89037,7.03798 3.90114,14.04285 5.83038,21.07023 0.91773,3.19752 1.4266,5.06919 2.45371,8.24597 1.90413,5.88939 4.18055,11.65066 6.73197,17.28894 3.71273,8.18284 7.46263,16.37528 12.03715,24.12173 3.52873,5.98371 7.02005,11.99391 10.87434,17.7771 0.89879,1.45222 1.31863,2.0603 2.06415,3.48728 0.16091,0.30801 0.11802,1.06444 0.44375,0.94336 10.45312,-3.88553 9.48424,-1.49319 7.96819,-5.06516 -1.47024,-3.43826 -2.79519,-6.93597 -4.0739,-10.44941 -3.07241,-8.37015 -6.29673,-16.6831 -9.69354,-24.92736 -4.26558,-10.60483 -8.35433,-21.28059 -12.78611,-31.81832 -2.29731,-5.49768 -4.56375,-11.00775 -7.12564,-16.38974 -1.82646,-3.83701 -3.36065,-6.79465 -5.39705,-10.52008 -0.91245,-1.66924 -1.86287,-3.31745 -2.79431,-4.97617 -0.91241,-1.56611 -1.8117,-3.13994 -2.73723,-4.69833 -3.39638,-5.71872 -7.06694,-11.27467 -10.26109,-17.11237 -2.28707,-4.10201 -0.57672,-2.161 -9.21194,2.83264 -0.14822,0.0857 0.15425,0.30576 0.22726,0.46062 0.51922,1.10126 0.61393,1.33942 1.14099,2.59107 0.28379,0.67395 0.56277,1.34991 0.84416,2.02487 2.69442,6.56474 5.38594,13.136 7.77188,19.82039 0.89389,2.72817 1.30852,3.86196 2.03626,6.55158 0.20955,0.77446 0.40007,1.55436 0.57004,2.33846 0.10431,0.4812 -0.2184,1.59969 0.25237,1.45543 9.38482,-2.876 10.06691,-1.74252 7.877,-4.47447 -2.12171,-4.42283 -4.08135,-8.92138 -5.96701,-13.44941 -1.46886,-3.54374 -2.92333,-7.09324 -4.40248,-10.6327 -0.69634,-1.66628 -1.66886,-3.93627 -2.32238,-5.66534 -0.22658,-0.59949 -0.42092,-1.21067 -0.63138,-1.816 -0.84662,-3.87224 -0.0291,-1.51603 -8.38194,3.4607 -0.12878,0.0767 0.20582,0.22013 0.28759,0.34578 0.65844,1.01183 1.12422,2.14503 1.72935,3.18616 2.39839,4.6947 4.76246,9.41073 6.91176,14.22565 0.88052,2.0867 1.32819,3.06762 2.08395,5.14832 0.23164,0.63772 0.44417,1.28242 0.64744,1.92974 0.13614,0.43359 -0.0648,1.44272 0.3705,1.31208 9.18241,-2.75599 9.86307,-1.27447 8.24254,-4.24264 -1.08037,-3.73113 -2.24581,-7.43717 -3.37447,-11.15381 -1.95691,-6.23245 -3.95459,-12.45708 -6.25073,-18.57435 -1.69935,-4.1817 -0.39641,-2.29345 -8.75491,3.18848 -0.18733,0.12286 0.18738,0.40708 0.27396,0.6137 0.24019,0.57315 0.86271,2.14971 1.05614,2.64402 0.23719,0.60613 0.47085,1.21364 0.70628,1.82046 1.97821,5.15854 3.98101,10.30952 5.82887,15.51643 0.56033,1.73811 0.93214,2.77378 1.35876,4.49994 0.11311,0.45768 -0.16777,1.52678 0.28215,1.38593 2.90216,-0.90853 5.44564,-2.70891 8.182,-4.03567 0.0579,-0.028 -0.0917,0.0901 -0.13757,0.13521 -0.14204,-0.24547 -0.28408,-0.49095 -0.42611,-0.73642 -2.10783,-3.5367 -4.29869,-7.02283 -6.48522,-10.51117 -2.02297,-3.21703 -4.11493,-6.39812 -6.07479,-9.65418 -0.26427,-0.43905 -0.26889,-1.46537 -0.7642,-1.33395 -3.03508,0.80535 -5.74028,2.54764 -8.61043,3.82145 1.5076,1.85041 2.86181,3.81794 4.19555,5.79639 2.3031,3.50795 4.55913,7.06645 6.4491,10.81693 2.73853,-1.44672 5.47216,-2.90275 8.21559,-4.34015 0.0566,-0.0296 -0.0956,0.1441 -0.15269,0.11563 -0.20517,-0.10225 -0.34963,-0.29668 -0.51948,-0.45062 -0.98121,-0.88923 -1.88895,-1.85399 -2.81637,-2.79796 -3.59451,-3.70924 -7.16127,-7.44666 -10.63434,-11.27024 -0.81782,-0.90563 -1.81387,-2.00168 -2.63659,-2.93529 -0.26525,-0.301 -0.42611,-1.08238 -0.78821,-0.90961 -9.81595,4.68367 -9.62887,2.93913 -6.74117,6.48538 2.93017,3.58924 5.84257,7.1936 8.7056,10.83665 1.41914,1.87924 1.73337,2.24779 3.02257,4.12863 0.35534,0.51842 0.70286,1.04242 1.03762,1.57436 0.21994,0.34947 0.23858,1.21205 0.62593,1.069 2.93663,-1.08452 5.59593,-2.81486 8.31275,-4.37013 0.10127,-0.058 -0.1661,-0.16397 -0.24914,-0.24596 -2.00619,-2.52905 -4.06203,-5.0211 -5.91818,-7.66545 -2.48475,-3.52452 -5.00172,-7.07239 -6.95778,-10.92405 -2.71961,1.48554 -5.44565,2.95936 -8.15882,4.45663 -0.0604,0.0333 0.13529,-0.0935 0.19718,-0.063 0.21035,0.10364 0.3821,0.27403 0.55428,0.43323 1.11264,1.02878 2.05242,2.23815 3.08942,3.33761 3.58541,4.19274 6.96387,8.56933 9.74114,13.34937 0.92949,1.56441 1.74157,2.91777 2.64405,4.48524 0.30862,0.53604 0.61798,1.07182 0.91263,1.61567 0.18109,0.33425 0.16101,1.15859 0.5142,1.01797 2.89986,-1.15459 5.54269,-2.881 8.21511,-4.49357 0.11403,-0.0688 -0.16296,-0.21069 -0.24444,-0.31603 -1.59799,-2.56802 -3.12259,-5.18136 -4.62599,-7.80556 -2.32965,-4.17097 -4.73696,-8.38394 -6.11922,-12.98179 -0.32181,-3.70699 0.117,-0.97771 -8.22017,3.68308 -0.0681,0.0381 0.15052,0.0571 0.20525,0.11278 0.52879,0.53785 0.84853,1.27299 1.29647,1.86807 1.93341,3.21435 3.61641,6.5676 5.22237,9.95592 2.05324,4.39773 4.1741,8.8523 5.10555,13.64796 0.0433,0.39087 0.13782,0.77942 0.12983,1.17259 -0.003,0.12433 -0.27329,0.38912 -0.16047,0.33679 9.69514,-4.49706 9.46938,-1.5078 7.48637,-5.57348 -1.62156,-3.40206 -3.12355,-6.85936 -4.67464,-10.29373 -1.90592,-4.28091 -4.00143,-8.54531 -5.17107,-13.09912 0.27871,-3.52468 0.19527,-0.75308 -8.0909,3.82098 -0.0688,0.038 0.16601,0.0126 0.22774,0.0613 0.36437,0.28726 0.62848,0.68298 0.93108,1.03471 0.22461,0.26108 0.44432,0.52633 0.66648,0.78949 2.52304,3.1155 4.90406,6.34362 7.18528,9.64001 3.04995,4.51156 5.88713,9.15243 8.49798,13.93326 0.47459,0.83925 1.42923,2.49831 1.89722,3.42366 0.16425,0.32477 0.11556,1.13549 0.451,0.99432 2.85828,-1.20299 5.35105,-3.1399 8.09225,-4.58997 0.0828,-0.0438 0.14551,0.21637 0.0702,0.27209 -0.0713,0.0528 -0.13267,-0.11786 -0.199,-0.17679 -1.21376,-1.34331 -2.32247,-2.77675 -3.4392,-4.20041 -2.82316,-3.66202 -5.57426,-7.37838 -8.20121,-11.18441 -2.83114,-3.99468 -5.72983,-7.94008 -8.77933,-11.77193 -0.2634,-0.35904 -0.53632,-0.71129 -0.79019,-1.07713 -0.16212,-0.23362 -0.1947,-0.82983 -0.45712,-0.72028 -10.11436,4.22202 -9.95145,2.02965 -7.59401,5.22222 1.02701,1.46267 1.94164,2.99811 2.78214,4.57532 1.56692,2.88716 3.12869,5.77735 4.76321,8.62711 1.7813,3.22036 3.44433,6.50618 4.67521,9.98301 1.20865,3.25501 2.38733,6.53374 4.03661,9.59972 1.60182,2.94922 3.36652,5.80202 5.08788,8.68221 1.62603,2.85703 3.08684,5.79718 4.45258,8.78743 1.87049,3.85657 3.88715,7.63888 5.75946,11.49455 2.07706,4.35249 4.0682,8.74361 6.05489,13.13789 2.35749,5.11962 4.72445,10.24206 6.64986,15.54464 2.08478,5.81084 4.05292,11.67153 6.55394,17.32235 1.83333,4.15547 3.84518,8.27138 5.17741,12.6216 0,0 8.08584,-4.48869 8.08584,-4.48869 z" />
      <path
         style="fill:#000000;stroke:#000000;stroke-width:0;stroke-miterlimit:4;stroke-dasharray:none"
         id="path2646"
         d="m -196.22672,-307.82256 c 0.14353,0.26176 0.26468,0.47197 0.38383,0.76057 0.096,0.23261 0.17217,0.47295 0.25824,0.70944 0.29507,0.81072 0.54167,1.46564 0.80518,2.30577 0.18251,0.5819 0.34493,1.16992 0.5174,1.75488 0.1825,0.72632 0.38845,1.44716 0.5475,2.17898 0.1712,0.7877 0.29481,1.58501 0.44279,2.37741 0.32073,1.71743 0.66308,3.43091 0.96812,5.1512 0.92735,5.22981 -0.105,-0.0981 0.92897,5.09552 1.54362,6.8823 -0.43826,-1.86073 1.28192,5.413 0.22671,0.95863 0.41565,1.92604 0.64824,2.88326 0.76872,3.16355 1.6868,6.2938 2.5477,9.43295 0.84698,3.50862 1.82631,6.98355 2.70244,10.4847 0.0601,0.24033 0.72312,3.01354 0.81725,3.40696 0.33102,1.48457 0.69696,2.96082 1.00309,4.45065 0,0 7.49007,-4.0159 7.49007,-4.0159 v 0 c -0.14644,-0.6689 -0.30674,-1.47972 -0.51876,-2.13246 -0.20138,-0.62001 -0.65003,-1.62313 -0.89763,-2.19995 -0.28596,-0.65435 -1.10711,-2.52485 -1.34473,-3.10769 -1.33512,-3.27479 -2.42925,-6.64111 -3.51712,-10.00376 -0.29056,-1.06558 -0.6025,-2.12557 -0.87168,-3.19675 -0.65545,-2.60831 -0.83942,-3.74761 -1.3801,-6.35637 -0.2004,-0.96691 -0.42391,-1.92907 -0.61249,-2.89835 -0.35881,-1.84424 -0.61933,-3.70684 -1.01688,-5.54397 -0.33169,-1.67929 -0.70221,-3.35121 -1.00208,-5.03647 -0.29448,-1.65499 -0.54318,-3.5788 -0.7749,-5.24585 -0.113,-0.81295 -0.2436,-1.62361 -0.34043,-2.43865 -0.0934,-0.78606 -0.1534,-1.57573 -0.23009,-2.3636 -0.15592,-1.62756 -0.17901,-1.94084 -0.34718,-3.45713 -0.0701,-0.63228 -0.17486,-1.2607 -0.23299,-1.89419 -0.0362,-0.39469 -0.0259,-0.57669 -0.0184,-0.93065 0,0 -8.23729,4.41645 -8.23729,4.41645 z" />
      <path
         style="fill:#000000;stroke:#000000;stroke-width:0;stroke-miterlimit:4;stroke-dasharray:none"
         id="path2648"
         d="m -144.57617,-319.38272 c 0.47081,1.30159 0.94593,2.6021 1.44047,3.89555 1.00076,2.54198 1.95346,5.09988 2.77906,7.70427 0.95619,3.29324 1.95604,6.57177 3.01472,9.83347 1.25652,3.71007 2.2673,7.49499 3.27627,11.27771 0.9446,3.57094 1.98218,7.1161 3.0559,10.65003 0.84917,2.84861 1.89519,5.63177 2.89277,8.43009 0.73826,2.07242 1.40923,4.16784 1.98593,6.29086 0.19768,0.77815 0.4037,1.55794 0.50892,2.35511 0,0 8.08398,-4.41121 8.08398,-4.41121 v 0 c -0.33051,-0.71452 -0.6473,-1.43529 -0.95413,-2.1603 -0.84597,-2.01024 -1.64145,-4.04049 -2.40979,-6.08165 -1.07139,-2.74216 -2.17003,-5.47484 -3.12557,-8.26048 -1.19313,-3.46468 -2.33435,-6.94793 -3.25173,-10.49768 -1.02641,-3.7932 -2.06888,-7.5821 -3.2278,-11.33748 -0.97581,-3.31187 -1.84192,-6.65152 -2.72851,-9.98792 -0.78381,-2.64234 -1.6722,-5.25076 -2.44671,-7.89564 -0.34689,-1.36139 -0.69987,-2.75262 -0.67613,-4.168 0,0 -8.21765,4.36327 -8.21765,4.36327 z" />
    </g>
  </g>
</svg>
