<?xml version="1.0" encoding="UTF-8" standalone="no"?>
<!-- Created with Inkscape (http://www.inkscape.org/) -->

<svg
   width="64mm"
   height="64mm"
   viewBox="0 0 63.999998 64"
   version="1.1"
   id="svg5"
   inkscape:version="1.1.2 (0a00cf5339, 2022-02-04)"
   sodipodi:docname="icon.svg"
   xmlns:inkscape="http://www.inkscape.org/namespaces/inkscape"
   xmlns:sodipodi="http://sodipodi.sourceforge.net/DTD/sodipodi-0.dtd"
   xmlns="http://www.w3.org/2000/svg"
   xmlns:svg="http://www.w3.org/2000/svg">
  <sodipodi:namedview
     id="namedview7"
     pagecolor="#ffffff"
     bordercolor="#666666"
     borderopacity="1.0"
     inkscape:pageshadow="2"
     inkscape:pageopacity="0.0"
     inkscape:pagecheckerboard="0"
     inkscape:document-units="mm"
     showgrid="false"
     inkscape:zoom="0.68702838"
     inkscape:cx="0.72777198"
     inkscape:cy="157.92652"
     inkscape:window-width="1920"
     inkscape:window-height="995"
     inkscape:window-x="0"
     inkscape:window-y="0"
     inkscape:window-maximized="1"
     inkscape:current-layer="layer1" />
  <defs
     id="defs2" />
  <g
     inkscape:label="Layer 1"
     inkscape:groupmode="layer"
     id="layer1">
    <path
       id="rect2129"
       style="fill:#deaa87;stroke:#000000;stroke-width:0.264999"
       d="M 31.739273,22.865999 47.382959,26.740478 45.832212,47.719807 31.854758,47.24232 Z"
       sodipodi:nodetypes="ccccc" />
    <path
       id="rect1911"
       style="fill:#deaa87;stroke:#000000;stroke-width:0.264999"
       d="M 4.5444212,22.913067 31.739273,22.866 31.854758,47.24232 4.5444212,50.31477 Z"
       sodipodi:nodetypes="ccccc" />
    <path
       id="rect2639"
       style="fill:#00ff00;stroke:#000000;stroke-width:0.264999"
       d="m 59.065848,25.361864 -3.141051,4.35349 C 31.219641,19.4264 15.579232,0.76237018 18.913588,30.546674 h -5.25977 c -2.581643,-48.413798 31.405881,-6.636907 45.41203,-5.18481 z"
       sodipodi:nodetypes="ccccc" />
    <path
       id="path3979"
       style="fill:#00ff00;stroke:#000000;stroke-width:0.3607"
       inkscape:transform-center-x="0.27861288"
       inkscape:transform-center-y="-1.0975794"
       d="M 63.801819,32.321088 54.525902,31.35595 59.999697,23.805342 Z" />
    <path
       style="fill:#00ff00;fill-opacity:1;stroke:#000000;stroke-width:0;stroke-miterlimit:4;stroke-dasharray:none"
       id="path4396"
       d="m 55.280165,29.464883 c 0.185396,0.119124 0.359214,0.255403 0.535847,0.386951 0.196909,0.145227 0.393521,0.290848 0.590921,0.435403 0.04866,0.03589 0.0979,0.07102 0.146251,0.107337 0.02215,0.01664 0.04472,0.02871 0.05717,0.05354 0.988248,-0.60375 1.052557,-0.373536 0.666763,-0.644417 -0.06841,-0.04803 -0.0771,-0.05649 -0.143648,-0.109151 -0.136657,-0.114125 -0.272587,-0.229296 -0.404677,-0.348702 -0.107286,-0.09608 -0.201533,-0.204669 -0.286502,-0.320622 -0.04359,-0.0621 -0.08382,-0.127207 -0.10755,-0.199623 -0.003,0.0072 -0.0069,-0.04 1.32e-4,-0.03095 0.01156,0.01482 0.04625,0.03764 0.03029,0.04758 -0.773538,0.482177 -1.174895,0.422577 -0.805913,0.46926 0.02553,0.0089 0.05159,0.0163 0.07657,0.02661 0.254336,0.104918 0.484087,0.274955 0.707046,0.433208 0.208862,0.152537 0.412131,0.312587 0.613685,0.474604 0.334225,0.271457 0.08514,0.201237 0.94246,-0.428225 0.02477,-0.01818 -0.03632,-0.0496 -0.05594,-0.07324 -0.02574,-0.031 -0.05338,-0.06038 -0.08008,-0.09057 -0.247505,-0.300922 -0.49031,-0.605595 -0.732409,-0.910863 -0.210995,-0.258075 -0.413097,-0.523261 -0.585597,-0.808765 -2.65e-4,-5.29e-4 -0.0716,-0.125505 -0.07393,-0.139843 -0.0016,-0.0093 0.01087,-0.01529 0.01633,-0.02294 -0.26571,0.172831 -0.553048,0.316267 -0.797134,0.518493 -0.03137,0.02598 0.07637,0.02923 0.11184,0.04928 0.05448,0.0308 0.104745,0.06852 0.15712,0.102775 0.401508,0.296905 0.773464,0.63183 1.139597,0.970764 0.108006,0.101356 0.215006,0.203798 0.319844,0.308433 0.0204,0.02035 0.04063,0.04084 0.06077,0.06143 0.01445,0.01476 0.03162,0.02734 0.04296,0.04458 0.007,0.01069 0.0071,0.02461 0.01064,0.03691 0.257871,-0.191614 0.546354,-0.34776 0.773615,-0.574842 0.03343,-0.03341 -0.07701,-0.05488 -0.11417,-0.08408 -0.04983,-0.03916 -0.09858,-0.07971 -0.146699,-0.120955 -0.184845,-0.158424 -0.362264,-0.325162 -0.5388,-0.492672 -0.282718,-0.275805 -0.556056,-0.561732 -0.794488,-0.877041 -0.01902,-0.02752 -0.0423,-0.05253 -0.05704,-0.08255 -0.0078,-0.01582 -0.0061,-0.03472 -0.0091,-0.05209 -0.258117,0.177638 -0.526071,0.341767 -0.774351,0.532913 -0.02445,0.01881 0.06198,-0.01392 0.0922,-0.0078 0.113572,0.02318 0.308684,0.124401 0.402807,0.168775 0.496639,0.254087 0.964541,0.559014 1.432145,0.862009 0.13417,0.0871 0.267358,0.175753 0.398036,0.268029 0.0016,0.0011 0.118224,0.08441 0.130643,0.09511 0.009,0.0077 0.01564,0.01783 0.02344,0.02674 0.27917,-0.168799 0.576951,-0.310082 0.837507,-0.506394 0.02799,-0.02109 -0.05677,-0.04126 -0.08689,-0.05915 -0.03779,-0.02244 -0.07856,-0.03951 -0.116539,-0.06162 -0.169568,-0.0987 -0.327525,-0.215365 -0.485637,-0.330977 -0.06049,-0.04685 -0.121483,-0.09306 -0.181475,-0.140552 -0.137171,-0.108591 -0.228656,-0.183566 -0.358421,-0.300435 -0.156728,-0.141158 -0.304072,-0.290973 -0.449741,-0.443322 -0.162621,-0.177856 -0.319688,-0.36598 -0.420161,-0.586793 -0.0045,-0.01349 -0.01368,-0.02625 -0.01357,-0.04048 4.8e-5,-0.0061 0.0093,-0.0078 0.01397,-0.01175 -0.266094,0.173173 -0.538028,0.337683 -0.798277,0.519518 -0.01945,0.01357 0.04666,-0.01291 0.07028,-0.01087 0.09338,0.0081 0.24162,0.06277 0.322077,0.08864 0.502111,0.183952 0.97844,0.430237 1.45201,0.676746 0.240705,0.127254 0.477962,0.261514 0.704482,0.412766 0.262112,0.240821 0.09943,0.106214 0.849289,-0.503012 0.03013,-0.02447 -0.06351,-0.04474 -0.09641,-0.06535 -0.0444,-0.02782 -0.09052,-0.05283 -0.135387,-0.07989 -0.192826,-0.116288 -0.180321,-0.110655 -0.379394,-0.239893 -0.419259,-0.275638 -0.834559,-0.557694 -1.240311,-0.852913 -0.118978,-0.08831 -0.236133,-0.179332 -0.347027,-0.277699 -0.0218,-0.01934 -0.04435,-0.03802 -0.06419,-0.05937 -0.01156,-0.01244 -0.0315,-0.02463 -0.02955,-0.04151 0.0013,-0.01132 0.02238,0.0045 0.03357,0.0067 -0.256892,0.172043 -0.535099,0.315884 -0.77067,0.516126 -0.03524,0.02995 0.09189,0.01191 0.136874,0.02262 0.06377,0.01519 0.126624,0.03428 0.188841,0.05495 0.241083,0.08009 0.471977,0.185338 0.702614,0.290809 0.369189,0.172545 0.729578,0.363691 1.074997,0.579982 0.03775,0.03705 0.09364,0.05259 0.131871,0.08946 0.0079,0.0076 0.01016,0.01939 0.01521,0.02908 0.26062,-0.187804 0.549283,-0.341826 0.781863,-0.563409 0.03311,-0.03154 -0.07994,-0.04446 -0.119184,-0.06793 -0.05268,-0.0315 -0.104357,-0.06464 -0.156536,-0.09697 -0.341572,-0.219536 -0.671335,-0.459121 -0.983284,-0.71922 -0.05423,-0.04522 -0.107016,-0.09214 -0.160526,-0.138202 -0.109828,-0.09869 -0.217566,-0.200106 -0.316425,-0.309937 -0.01082,-0.01203 -0.08004,-0.09173 -0.09296,-0.114356 -0.0049,-0.0086 -0.0048,-0.01915 -0.0072,-0.02872 -0.263411,0.182336 -0.531786,0.357698 -0.790231,0.547007 -0.01826,0.01339 0.04335,-0.01836 0.06591,-0.01646 0.04772,0.004 0.0938,0.01995 0.139639,0.03378 0.213418,0.06443 0.417753,0.159052 0.622435,0.246102 0.353616,0.154961 0.704265,0.317008 1.047917,0.493046 0.04126,0.03121 0.09501,0.04321 0.136773,0.07389 0.0084,0.0062 0.01299,0.01643 0.0195,0.02466 0.261094,-0.186825 0.545817,-0.344405 0.783275,-0.560475 0.02969,-0.02702 -0.07167,-0.03619 -0.10737,-0.05455 -0.05124,-0.02635 -0.102291,-0.05306 -0.153437,-0.07959 -0.258234,-0.148711 -0.508418,-0.311856 -0.743805,-0.494796 -0.12999,-0.101027 -0.175599,-0.143052 -0.296603,-0.247727 -0.09016,-0.08182 -0.17961,-0.164913 -0.261078,-0.255552 -0.01519,-0.01689 -0.03057,-0.03371 -0.04398,-0.05204 -0.03016,-0.04122 -0.02983,-0.03524 7.94e-4,-0.03521 -0.264922,0.174191 -0.544809,0.327518 -0.794772,0.522573 -0.02717,0.02121 0.06835,0.0099 0.101807,0.01817 0.0502,0.01242 0.09957,0.02804 0.148812,0.04383 0.194866,0.06249 0.386133,0.136699 0.577876,0.207975 0.316373,0.116163 0.633257,0.231463 0.942282,0.366233 0.0259,0.01204 0.05195,0.02376 0.07772,0.03608 0.01138,0.0054 0.08107,0.03979 0.0977,0.04992 0.008,0.0049 0.01434,0.02151 0.02249,0.01688 0.888283,-0.505508 1.081391,-0.287737 0.777742,-0.569367 -0.210066,-0.111458 -0.410821,-0.238875 -0.606319,-0.373965 -0.146497,-0.10673 -0.297399,-0.206691 -0.456332,-0.293853 -0.0797,-0.04282 -0.162827,-0.07871 -0.247851,-0.109446 -0.04321,-0.0151 -0.08709,-0.02819 -0.131173,-0.04047 -0.0316,-0.0087 -0.06218,-0.02075 -0.09247,-0.03322 -0.01564,-0.0062 -0.03006,-0.01488 -0.04485,-0.02277 0.0055,0.01244 -0.0028,-0.0054 0.0108,0.01671 0.193945,0.315567 -0.162478,0.14779 -0.822529,0.539732 -0.0034,0.002 0.006,-0.0055 0.0096,-0.007 0.0046,-0.0019 0.0097,-0.0021 0.01447,-0.0032 0.09424,-0.0046 0.188227,0.02158 0.279718,0.04123 0.154035,0.03296 0.306604,0.07217 0.458096,0.115228 0.07971,0.02337 0.158936,0.04838 0.238128,0.07344 0.0456,0.01385 0.09091,0.02864 0.136803,0.0415 0.03286,0.0095 0.06595,0.01749 0.09997,0.02131 0.03094,0.0019 0.06184,3.97e-4 0.09284,0.0011 0.03169,0.0034 0.06347,0.0059 0.09527,0.008 0.39746,0.02667 -0.637453,0.472003 0.870815,-0.54708 -0.0096,-0.0082 -0.01839,-0.01736 -0.02876,-0.02449 -0.0088,-0.0061 -0.06089,-0.03142 -0.06824,-0.03501 -0.04256,-0.02078 -0.08538,-0.04097 -0.128382,-0.06081 -0.0946,-0.04389 -0.194307,-0.07511 -0.293187,-0.10765 -0.09495,-0.03226 -0.190474,-0.06268 -0.28683,-0.09046 -0.0672,-0.01848 -0.134387,-0.03704 -0.200805,-0.05819 -0.03111,-0.0099 -0.06224,-0.01978 -0.09304,-0.03066 -0.0095,-0.0034 -0.0072,-1.61e-4 -0.0093,-0.0076 -0.270788,0.191075 -0.543259,0.37979 -0.812366,0.573224 -0.0034,0.0025 0.0083,0.0011 0.01249,0.0017 0.01209,0.0018 0.02413,0.0038 0.03619,0.0057 0.07881,0.01203 0.159213,0.0062 0.238638,0.0056 0.13071,-0.0014 0.26135,0.0019 0.391874,0.0086 0.08343,0.0042 0.166564,0.01264 0.249119,0.02533 0.02646,0.0036 0.05225,0.01009 0.07769,0.01802 0.410675,0.168946 1.149588,-0.465087 0.755716,-0.591068 -0.09634,-0.02271 -0.194392,-0.03753 -0.291698,-0.05554 -0.11956,-0.02373 -0.239432,-0.04533 -0.360325,-0.06098 -0.09879,-0.01123 -0.197546,-0.02263 -0.295863,-0.03751 -0.400965,-0.06872 -0.08043,-0.07529 -0.898133,0.539317 -0.01241,0.0093 0.02882,0.0116 0.04323,0.0174 0.180583,0.03572 0.36119,0.07133 0.541478,0.10863 0.15477,0.03294 0.309935,0.06388 0.465907,0.09059 0.06331,0.0099 0.126413,0.02118 0.189709,0.03119 0.01103,0.0036 0.02463,0.0013 0.03529,0.0066 0.004,0.002 0.0072,0.01008 0.01093,0.0076 0.843084,-0.5577 1.082617,-0.357263 0.785106,-0.584345 -0.122012,-0.0394 -0.250311,-0.05599 -0.376915,-0.07371 -0.156768,-0.02274 -0.314451,-0.03677 -0.472439,-0.04727 -0.124876,-0.0072 -0.249476,-0.01813 -0.373664,-0.033 -0.0145,-0.0061 -0.09218,-0.0074 -0.104134,-0.01544 -0.0073,-0.0049 -0.01,-0.02487 -0.01728,-0.01993 -0.272012,0.185048 -0.534013,0.384403 -0.801023,0.576604 0.01365,0.0069 0.02665,0.01534 0.04098,0.02073 0.02077,0.0078 0.107577,0.02774 0.123193,0.03145 0.08987,0.02135 0.179538,0.04312 0.269039,0.06594 0.161171,0.0434 0.323228,0.08312 0.486799,0.116358 0.09912,0.02046 0.199477,0.03357 0.300193,0.04285 0.03949,0.0033 0.07899,0.0048 0.11802,0.01184 0.01117,0.0019 0.02217,0.0047 0.03329,0.0069 0.0011,1.63e-4 0.0021,3.18e-4 0.0031,4.77e-4 0,0 0.80699,-0.585629 0.80699,-0.585629 v 0 c -0.0011,1.52e-4 -0.0019,2.91e-4 -0.0028,4.5e-4 -0.01222,0.0022 -0.02455,0.0033 -0.03698,0.0034 -0.04694,4.5e-4 -0.09381,-0.0059 -0.140772,-0.0012 -0.107106,0.003 -0.214521,0.0018 -0.320931,-0.01227 -0.168297,-0.02235 -0.335304,-0.05388 -0.499642,-0.09678 -0.115771,-0.03242 -0.231513,-0.06695 -0.338217,-0.123221 -0.272317,0.187124 -0.540136,0.380972 -0.816954,0.561373 -0.0075,0.0049 -0.0086,-0.01897 -0.0038,-0.0265 0.0038,-0.006 0.01416,-7.41e-4 0.02122,-9.79e-4 0.03499,-0.0013 0.07002,-0.0013 0.105029,-0.0011 0.132794,0.0021 0.265475,0.0072 0.398023,0.01569 0.156083,0.0092 0.312441,0.01806 0.467249,0.04105 0.105429,0.01722 0.213582,0.03312 0.311296,0.07857 -0.04474,-0.336063 -0.0047,-0.0158 0.826661,-0.554477 0.0029,-0.0019 7.94e-4,0.0077 -0.0013,0.01043 -0.0069,0.0088 -0.03135,0.0013 -0.03962,0.0052 -0.07261,0.0032 -0.145098,-5.56e-4 -0.217644,-0.0041 -0.167061,-0.0092 -0.33387,-0.02493 -0.498224,-0.0574 -0.160284,-0.03271 -0.323612,-0.06484 -0.471993,-0.136336 -0.322635,-0.122392 -0.02233,-0.01294 -0.84278,0.535443 -0.0052,0.0035 0.01254,-1.8e-5 0.01881,8.6e-5 0.03021,5.03e-4 0.06039,0.0021 0.09052,0.0042 0.103603,0.0064 0.20707,0.0146 0.310298,0.02558 0.119962,0.01289 0.23976,0.02805 0.357854,0.05333 0.08533,0.01882 0.170532,0.03898 0.253124,0.06787 0.0034,0.0012 0.0286,0.01309 0.03434,0.01047 0.0013,-5.82e-4 -0.0011,-0.0035 1.59e-4,-0.0042 0.827415,-0.54057 1.161536,-0.593967 0.828947,-0.540078 -0.03204,0.0027 -0.06371,-0.0022 -0.09557,-0.0051 -0.09329,-0.006 -0.186767,-0.0086 -0.280212,-0.0108 -0.128167,-0.0035 -0.256283,-0.0082 -0.384326,-0.01492 -0.06724,-0.0049 -0.134456,-0.01 -0.201713,-0.01457 -0.007,-0.0015 -0.03263,-0.0093 -0.03334,-0.0088 -0.274609,0.188764 -0.546995,0.380746 -0.820489,0.571118 0.0039,-0.0068 7.94e-4,-0.0043 0.01077,-0.0047 0.03478,7.4e-4 0.06856,0.0088 0.102608,0.01527 0.07202,0.01477 0.143553,0.03182 0.215318,0.04777 0.09789,0.02324 0.195467,0.04816 0.290931,0.08012 0.09462,0.03207 0.189211,0.06469 0.281374,0.103378 0.05553,0.02516 0.116075,0.05503 0.16157,0.09066 0.276545,-0.180429 0.552725,-0.361423 0.829638,-0.541286 0.0072,-0.0047 -0.0039,0.0063 -0.01066,0.009 -0.01013,0.0041 -0.02127,0.0021 -0.03184,0.0032 -0.03145,0.0011 -0.06296,0.0018 -0.0944,1.59e-4 -0.03082,-0.0047 -0.06182,-0.0089 -0.09303,-0.0073 -0.03165,0.0014 -0.06374,0.004 -0.09503,-0.0023 -0.04796,-0.0083 -0.09509,-0.01995 -0.141983,-0.03301 -0.08998,-0.02073 -0.180951,-0.03595 -0.271597,-0.05345 -0.154369,-0.03153 -0.308018,-0.06722 -0.458931,-0.112722 -0.08298,-0.02593 -0.16442,-0.05546 -0.244914,-0.08821 -0.0054,-0.0017 -0.01095,-0.0031 -0.01624,-0.0051 -0.0049,-0.0019 -0.0097,-0.0092 -0.01421,-0.0066 -0.235047,0.134133 -1.071885,0.255851 -0.81807,0.57666 0.01894,0.01325 0.04019,0.02216 0.06095,0.03217 0.03358,0.01461 0.06816,0.02662 0.102431,0.03947 0.04666,0.01496 0.09479,0.02427 0.142708,0.03424 0.09108,0.01957 0.18105,0.04381 0.268037,0.07757 0.173442,0.06837 0.340161,0.151967 0.498334,0.250929 0.164706,0.103195 0.346541,0.216445 0.48336,0.355782 0.01521,0.0155 0.02819,0.03304 0.04229,0.04957 -0.277352,-0.178964 0.0033,0.0042 0.83535,-0.491725 0.0097,-0.0057 -0.0217,0.0076 -0.03291,0.0072 -0.01894,-5.29e-4 -0.03736,-0.0065 -0.05595,-0.01024 -0.05885,-0.0118 -0.115271,-0.02524 -0.173942,-0.03868 -0.344562,-0.08345 -0.685805,-0.181818 -1.016376,-0.310833 -0.215691,-0.0883 -0.436472,-0.175211 -0.625411,-0.314972 -0.02246,-0.01662 -0.03824,-0.06684 -0.06345,-0.05478 -0.300439,0.143714 -0.577011,0.332764 -0.865518,0.499146 0.04383,0.03379 0.09364,0.05833 0.140938,0.0872 0.112755,0.06881 0.224592,0.139125 0.334788,0.211976 0.352385,0.234688 0.702191,0.475972 1.019278,0.757576 0.03392,0.03572 0.07016,0.06936 0.101756,0.107145 0.01789,0.02141 0.02119,0.08212 0.04622,0.06978 0.290359,-0.143044 0.554268,-0.334462 0.831191,-0.502041 0.01254,-0.0076 -0.02339,0.02125 -0.03801,0.02207 -0.06197,0.0034 -0.120439,-0.04462 -0.181698,-0.04072 -0.391035,-0.106659 -0.773229,-0.244887 -1.136094,-0.426659 -0.182055,-0.09463 -0.364061,-0.186961 -0.531117,-0.307092 -0.03226,-0.0232 -0.06364,-0.04776 -0.09329,-0.07421 -0.02125,-0.01894 -0.03423,-0.07561 -0.05904,-0.06166 -0.287166,0.161444 -0.545301,0.369807 -0.817952,0.554711 0.199149,0.112694 0.385474,0.247433 0.577056,0.37206 0.385858,0.26934 0.769234,0.546999 1.10553,0.877765 0.03562,0.04128 0.07418,0.0802 0.106876,0.123839 0.01998,0.02666 0.02021,0.100047 0.05053,0.08623 0.293433,-0.133697 0.555495,-0.327634 0.834416,-0.489437 0.01233,-0.0071 -0.02016,0.02498 -0.0344,0.02535 -0.06294,0.0016 -0.117785,-0.06068 -0.180327,-0.05625 -0.40527,-0.143343 -0.801756,-0.310809 -1.184603,-0.506735 -0.213143,-0.109546 -0.4279,-0.217832 -0.634389,-0.339741 -0.04821,-0.02846 -0.09576,-0.05811 -0.142092,-0.08955 -0.03078,-0.02088 -0.05491,-0.08207 -0.08905,-0.06728 -0.307166,0.133083 -0.585703,0.324339 -0.878552,0.48651 0.01297,0.01016 0.02455,0.02244 0.03891,0.03051 0.01939,0.0109 0.04132,0.01659 0.06149,0.02598 0.03004,0.014 0.05952,0.02918 0.08906,0.04418 0.143421,0.07284 0.284708,0.149812 0.424657,0.2291 0.435255,0.251788 0.863393,0.518483 1.252516,0.838605 0.126156,0.110905 0.192447,0.161425 0.300691,0.283548 0.0292,0.03295 0.05716,0.06733 0.0808,0.104469 0.0097,0.01532 0.0021,0.05952 0.01834,0.05126 0.286579,-0.146453 0.55892,-0.319403 0.833824,-0.486744 0.01217,-0.0074 -0.02832,0.0034 -0.04248,0.005 -0.294981,-0.07445 -0.578075,-0.188658 -0.858131,-0.306091 -0.477623,-0.211344 -0.948475,-0.439899 -1.391652,-0.717637 -0.0953,-0.06278 -0.150427,-0.09621 -0.236691,-0.161856 -0.02064,-0.01572 -0.03714,-0.06156 -0.06008,-0.04945 -0.65677,0.346599 -1.071153,0.294998 -0.790485,0.594458 0.175596,0.18306 0.357928,0.359453 0.54384,0.532006 0.109884,0.101251 0.197022,0.182441 0.309258,0.282083 0.229463,0.203716 0.466664,0.398531 0.696849,0.601427 0.139018,0.121962 0.282329,0.242176 0.40503,0.381272 0.02429,0.02753 0.04726,0.05637 0.06771,0.08686 0.0047,0.007 -5.29e-4,0.0282 0.0068,0.02418 0.283922,-0.1553 0.559835,-0.324818 0.839753,-0.487228 -0.01606,-0.0011 -0.03247,-3.9e-5 -0.04819,-0.0036 -0.03313,-0.0074 -0.155866,-0.05301 -0.177805,-0.06139 -0.164039,-0.06264 -0.325059,-0.132988 -0.483203,-0.209275 -0.07251,-0.03631 -0.145584,-0.07151 -0.217527,-0.108929 -0.421849,-0.219398 -0.830443,-0.466585 -1.211075,-0.751986 -0.113199,-0.09201 -0.192961,-0.149751 -0.290899,-0.251751 -0.02697,-0.02808 -0.04029,-0.107294 -0.07496,-0.08957 -1.217359,0.622189 -1.057479,0.353486 -0.760235,0.58311 0.02831,0.02188 0.05523,0.04549 0.08285,0.06823 0.309153,0.26121 0.610161,0.532154 0.897835,0.816972 0.166259,0.168894 0.333264,0.336389 0.475623,0.526659 0.03521,0.04706 0.06944,0.09508 0.0992,0.145767 0.02035,0.03466 0.01349,0.124798 0.05061,0.109423 0.297174,-0.123049 0.55898,-0.318375 0.83847,-0.477565 -0.0066,0.01193 -0.0063,0.0347 -0.01995,0.03577 -0.02307,0.0019 -0.04228,-0.01887 -0.06294,-0.02928 -0.02846,-0.01437 -0.05655,-0.02948 -0.08438,-0.04503 -0.138266,-0.07727 -0.271672,-0.162907 -0.401921,-0.252958 -0.06052,-0.04376 -0.121912,-0.08635 -0.18157,-0.131281 -0.335288,-0.25251 -0.650375,-0.535294 -0.92038,-0.857305 -0.03473,-0.04601 -0.0717,-0.09042 -0.10419,-0.138044 -0.02175,-0.03186 -0.02252,-0.114535 -0.05822,-0.09998 -2.179455,0.888513 -1.083776,0.276561 -0.830273,0.498456 0.01058,0.0093 0.11435,0.117586 0.115077,0.118343 0.230585,0.246801 0.452036,0.502039 0.666793,0.762712 0.23858,0.297965 0.486045,0.597278 0.642691,0.948557 0.01053,0.03493 0.02582,0.06877 0.03159,0.104796 0.0024,0.01421 -0.02088,0.04897 -0.0081,0.04239 0.285644,-0.146918 0.560565,-0.313812 0.840846,-0.470718 -0.008,0.0024 -0.01574,0.0082 -0.02408,0.0073 -0.01402,-0.0016 -0.09575,-0.03574 -0.100645,-0.03771 -0.248113,-0.111099 -0.482505,-0.250063 -0.703525,-0.408321 -0.232674,-0.172164 -0.462745,-0.349062 -0.670226,-0.551564 -0.01101,-0.01069 -0.01905,-0.03845 -0.03299,-0.03206 -0.525698,0.240869 -1.060574,0.191302 -0.839428,0.555506 0.04515,0.06996 0.09445,0.137137 0.149273,0.19989 0.09874,0.113028 0.202753,0.221433 0.315225,0.320969 0.134368,0.119161 0.274896,0.230844 0.411302,0.347618 0.06058,0.05477 0.121441,0.109204 0.175983,0.170174 0.01146,0.01283 0.02233,0.02619 0.03289,0.03977 0.0061,0.0078 0.0084,0.0292 0.01696,0.02432 0.28597,-0.163126 0.561935,-0.343197 0.842902,-0.514797 -0.0045,0.0024 -0.0084,0.0075 -0.01344,0.007 -0.01027,-0.0011 -0.01929,-0.0073 -0.02886,-0.01109 -0.0127,-0.005 -0.02537,-0.01005 -0.03796,-0.01534 -0.0604,-0.02551 -0.119747,-0.0535 -0.178461,-0.08267 -0.221038,-0.114628 -0.435015,-0.243456 -0.630373,-0.398581 -0.140943,-0.116211 -0.301873,-0.24293 -0.403386,-0.39728 -0.0086,-0.0131 -0.01511,-0.0275 -0.02267,-0.04125 0,0 -0.83543,0.50841 -0.83543,0.50841 z" />
    <rect
       style="fill:#ff0000;fill-opacity:1;stroke:#000000;stroke-width:0.309076;stroke-miterlimit:4;stroke-dasharray:none"
       id="rect4500"
       width="4.5847039"
       height="32.722237"
       x="23.102575"
       y="1.7885506" />
    <path
       id="rect846"
       style="fill:#c87137;fill-opacity:1;stroke:#000000;stroke-width:0.264999"
       d="M 4.5444212,22.913067 21.344618,27.734809 19.360993,57.17646 4.5444212,50.31477 Z"
       sodipodi:nodetypes="ccccc" />
    <path
       id="rect846-3"
       style="fill:#c87137;fill-opacity:1;stroke:#000000;stroke-width:0.264999"
       d="M 21.344618,27.734809 47.382959,26.740478 45.832212,47.719807 19.360993,57.17646 Z"
       sodipodi:nodetypes="ccccc" />
  </g>
</svg>
