<?xml version="1.0" encoding="UTF-8" standalone="no"?>
<!-- Created with Inkscape (http://www.inkscape.org/) -->

<svg
   width="64mm"
   height="64mm"
   viewBox="0 0 64 64"
   version="1.1"
   id="svg5"
   inkscape:version="1.1.2 (0a00cf5339, 2022-02-04)"
   sodipodi:docname="logo.svg"
   xmlns:inkscape="http://www.inkscape.org/namespaces/inkscape"
   xmlns:sodipodi="http://sodipodi.sourceforge.net/DTD/sodipodi-0.dtd"
   xmlns="http://www.w3.org/2000/svg"
   xmlns:svg="http://www.w3.org/2000/svg">
  <sodipodi:namedview
     id="namedview7"
     pagecolor="#ffffff"
     bordercolor="#666666"
     borderopacity="1.0"
     inkscape:pageshadow="2"
     inkscape:pageopacity="0.0"
     inkscape:pagecheckerboard="0"
     inkscape:document-units="mm"
     showgrid="false"
     inkscape:zoom="1.3455186"
     inkscape:cx="163.87734"
     inkscape:cy="160.1613"
     inkscape:window-width="1920"
     inkscape:window-height="995"
     inkscape:window-x="0"
     inkscape:window-y="0"
     inkscape:window-maximized="1"
     inkscape:current-layer="layer1" />
  <defs
     id="defs2">
    <rect
       x="-0.6299848"
       y="0.71127316"
       width="242.32931"
       height="241.42353"
       id="rect5854" />
  </defs>
  <g
     inkscape:label="Layer 1"
     inkscape:groupmode="layer"
     id="layer1">
    <path
       id="path846"
       style="fill:#00ff00;stroke:#ffffff;stroke-width:0"
       d="M 64,32 A 32,32 0 0 1 32,64 32,32 0 0 1 0,32 32,32 0 0 1 32,0 32,32 0 0 1 64,32 Z" />
    <g
       aria-label="harmless
game
library"
       transform="matrix(0.26458333,0,0,0.26458333,0,12.700002)"
       id="text5852"
       style="font-size:40px;line-height:1.25;-inkscape-font-specification:sans-serif;white-space:pre;shape-inside:url(#rect5854)">
      <path
         d="m 51.500977,22.898437 v 13.203125 h -3.59375 V 23.015625 q 0,-3.105469 -1.210938,-4.648438 -1.210937,-1.542968 -3.632812,-1.542968 -2.910157,0 -4.589844,1.855468 -1.679688,1.855469 -1.679688,5.058594 V 36.101562 H 33.180664 V 5.7109375 h 3.613281 V 17.625 q 1.289063,-1.972656 3.027344,-2.949219 1.757813,-0.976562 4.042969,-0.976562 3.769531,0 5.703125,2.34375 1.933594,2.324218 1.933594,6.855468 z"
         style="text-align:center;text-anchor:middle"
         id="path7312" />
      <path
         d="m 68.610352,25.105469 q -4.355469,0 -6.035157,0.996093 -1.679687,0.996094 -1.679687,3.398438 0,1.914062 1.25,3.046875 1.269531,1.113281 3.4375,1.113281 2.988281,0 4.785156,-2.109375 1.816406,-2.128906 1.816406,-5.644531 V 25.105469 Z M 75.77832,23.621094 V 36.101562 H 72.18457 V 32.78125 q -1.230468,1.992187 -3.066406,2.949219 -1.835937,0.9375 -4.492187,0.9375 -3.359375,0 -5.351563,-1.875 -1.972656,-1.894532 -1.972656,-5.058594 0,-3.691406 2.460937,-5.566406 2.480469,-1.875 7.382813,-1.875 h 5.039062 v -0.351563 q 0,-2.480469 -1.640625,-3.828125 -1.621093,-1.367187 -4.570312,-1.367187 -1.875,0 -3.652344,0.449218 -1.777344,0.449219 -3.417969,1.347657 v -3.320313 q 1.972657,-0.761718 3.828125,-1.132812 1.855469,-0.390625 3.613282,-0.390625 4.746093,0 7.089843,2.460937 2.34375,2.460938 2.34375,7.460938 z"
         style="text-align:center;text-anchor:middle"
         id="path7314" />
      <path
         d="m 95.856445,17.585937 q -0.605468,-0.351562 -1.328125,-0.507812 -0.703125,-0.175781 -1.5625,-0.175781 -3.046875,0 -4.6875,1.992187 -1.621093,1.972656 -1.621093,5.683594 V 36.101562 H 83.043945 V 14.226563 h 3.613282 V 17.625 q 1.132812,-1.992187 2.949218,-2.949219 1.816407,-0.976562 4.414063,-0.976562 0.371094,0 0.820312,0.05859 0.449219,0.03906 0.996094,0.136718 z"
         style="text-align:center;text-anchor:middle"
         id="path7316" />
      <path
         d="m 115.9541,18.425781 q 1.34766,-2.421875 3.22266,-3.574218 1.875,-1.152344 4.41406,-1.152344 3.41797,0 5.27344,2.402343 1.85547,2.382813 1.85547,6.796875 v 13.203125 h -3.61328 V 23.015625 q 0,-3.144531 -1.11329,-4.667969 -1.11328,-1.523437 -3.39843,-1.523437 -2.79297,0 -4.41407,1.855468 -1.62109,1.855469 -1.62109,5.058594 v 12.363281 h -3.61328 V 23.015625 q 0,-3.164063 -1.11328,-4.667969 -1.11328,-1.523437 -3.4375,-1.523437 -2.75391,0 -4.375,1.875 -1.6211,1.855468 -1.6211,5.039062 V 36.101562 H 98.786133 V 14.226563 h 3.613277 V 17.625 q 1.23047,-2.011719 2.94922,-2.96875 1.71875,-0.957031 4.08203,-0.957031 2.38282,0 4.04297,1.210937 1.67969,1.210938 2.48047,3.515625 z"
         style="text-align:center;text-anchor:middle"
         id="path7318" />
      <path
         d="m 137.8877,5.7109375 h 3.59375 V 36.101562 h -3.59375 z"
         style="text-align:center;text-anchor:middle"
         id="path7320" />
      <path
         d="m 167.71191,24.265625 v 1.757812 h -16.52343 q 0.23437,3.710938 2.22656,5.664063 2.01172,1.933594 5.58594,1.933594 2.07031,0 4.0039,-0.507813 1.95313,-0.507812 3.86719,-1.523437 v 3.398437 q -1.93359,0.820313 -3.96484,1.25 -2.03125,0.429688 -4.1211,0.429688 -5.23437,0 -8.30078,-3.046875 -3.04687,-3.046875 -3.04687,-8.242188 0,-5.371094 2.89062,-8.515625 2.91016,-3.164062 7.83203,-3.164062 4.41407,0 6.97266,2.851562 2.57812,2.832031 2.57812,7.714844 z m -3.59375,-1.054688 q -0.0391,-2.949218 -1.66015,-4.707031 -1.60156,-1.757812 -4.25781,-1.757812 -3.00782,0 -4.82422,1.699218 -1.79688,1.699219 -2.07032,4.785157 z"
         style="text-align:center;text-anchor:middle"
         id="path7322" />
      <path
         d="m 187.55566,14.871094 v 3.398437 q -1.52343,-0.78125 -3.16406,-1.171875 -1.64062,-0.390625 -3.39844,-0.390625 -2.67578,0 -4.02343,0.820313 -1.32813,0.820312 -1.32813,2.460937 0,1.25 0.95703,1.972656 0.95703,0.703125 3.84766,1.347657 l 1.23047,0.273437 q 3.82812,0.820313 5.42969,2.324219 1.62109,1.484375 1.62109,4.160156 0,3.046875 -2.42188,4.824219 -2.40234,1.777344 -6.62109,1.777344 -1.75781,0 -3.67187,-0.351563 -1.89454,-0.332031 -4.00391,-1.015625 v -3.710937 q 1.99219,1.035156 3.92578,1.5625 1.93359,0.507812 3.82813,0.507812 2.53906,0 3.90625,-0.859375 1.36718,-0.878906 1.36718,-2.460937 0,-1.464844 -0.99609,-2.246094 -0.97656,-0.78125 -4.31641,-1.503906 l -1.25,-0.292969 q -3.33984,-0.703125 -4.82422,-2.148438 -1.48437,-1.464843 -1.48437,-4.003906 0,-3.085937 2.1875,-4.765625 2.1875,-1.679687 6.21094,-1.679687 1.99218,0 3.75,0.292969 1.75781,0.292968 3.24218,0.878906 z"
         style="text-align:center;text-anchor:middle"
         id="path7324" />
      <path
         d="m 208.39551,14.871094 v 3.398437 q -1.52344,-0.78125 -3.16406,-1.171875 -1.64063,-0.390625 -3.39844,-0.390625 -2.67578,0 -4.02344,0.820313 -1.32812,0.820312 -1.32812,2.460937 0,1.25 0.95703,1.972656 0.95703,0.703125 3.84765,1.347657 l 1.23047,0.273437 q 3.82813,0.820313 5.42969,2.324219 1.62109,1.484375 1.62109,4.160156 0,3.046875 -2.42187,4.824219 -2.40235,1.777344 -6.6211,1.777344 -1.75781,0 -3.67187,-0.351563 -1.89453,-0.332031 -4.00391,-1.015625 v -3.710937 q 1.99219,1.035156 3.92578,1.5625 1.9336,0.507812 3.82813,0.507812 2.53906,0 3.90625,-0.859375 1.36719,-0.878906 1.36719,-2.460937 0,-1.464844 -0.9961,-2.246094 -0.97656,-0.78125 -4.3164,-1.503906 l -1.25,-0.292969 q -3.33985,-0.703125 -4.82422,-2.148438 -1.48438,-1.464843 -1.48438,-4.003906 0,-3.085937 2.1875,-4.765625 2.1875,-1.679687 6.21094,-1.679687 1.99219,0 3.75,0.292969 1.75781,0.292968 3.24219,0.878906 z"
         style="text-align:center;text-anchor:middle"
         id="path7326" />
      <path
         d="m 81.959961,74.910156 q 0,-3.90625 -1.621094,-6.054687 -1.601562,-2.148438 -4.511719,-2.148438 -2.890625,0 -4.511718,2.148438 -1.601563,2.148437 -1.601563,6.054687 0,3.886719 1.601563,6.035156 1.621093,2.148438 4.511718,2.148438 2.910157,0 4.511719,-2.148438 1.621094,-2.148437 1.621094,-6.035156 z m 3.59375,8.476563 q 0,5.585937 -2.480469,8.300781 -2.480469,2.734375 -7.597656,2.734375 -1.894531,0 -3.574219,-0.292969 -1.679687,-0.273437 -3.261719,-0.859375 v -3.496094 q 1.582032,0.859375 3.125,1.269532 1.542969,0.410156 3.144532,0.410156 3.535156,0 5.292968,-1.855469 1.757813,-1.835937 1.757813,-5.566406 v -1.777344 q -1.113281,1.933594 -2.851563,2.890625 -1.738281,0.957031 -4.160156,0.957031 -4.023437,0 -6.484375,-3.066406 -2.460937,-3.066406 -2.460937,-8.125 0,-5.078125 2.460937,-8.144531 2.460938,-3.066406 6.484375,-3.066406 2.421875,0 4.160156,0.957031 1.738282,0.957031 2.851563,2.890625 v -3.320313 h 3.59375 z"
         style="text-align:center;text-anchor:middle"
         id="path7328" />
      <path
         d="m 102.89746,75.105469 q -4.355468,0 -6.035155,0.996093 -1.679688,0.996094 -1.679688,3.398438 0,1.914062 1.25,3.046875 1.269531,1.113281 3.4375,1.113281 2.988283,0 4.785153,-2.109375 1.81641,-2.128906 1.81641,-5.644531 v -0.800781 z m 7.16797,-1.484375 v 12.480468 h -3.59375 V 82.78125 q -1.23047,1.992187 -3.06641,2.949219 -1.83593,0.9375 -4.492184,0.9375 -3.359375,0 -5.351563,-1.875 -1.972656,-1.894532 -1.972656,-5.058594 0,-3.691406 2.460938,-5.566406 2.480468,-1.875 7.382815,-1.875 h 5.03906 v -0.351563 q 0,-2.480469 -1.64063,-3.828125 -1.62109,-1.367187 -4.57031,-1.367187 -1.874998,0 -3.652342,0.449218 -1.777343,0.449219 -3.417968,1.347657 v -3.320313 q 1.972656,-0.761719 3.828125,-1.132812 1.855468,-0.390625 3.613285,-0.390625 4.74609,0 7.08984,2.460937 2.34375,2.460938 2.34375,7.460938 z"
         style="text-align:center;text-anchor:middle"
         id="path7330" />
      <path
         d="m 134.49902,68.425781 q 1.34766,-2.421875 3.22266,-3.574219 1.875,-1.152343 4.41406,-1.152343 3.41797,0 5.27344,2.402343 1.85547,2.382813 1.85547,6.796875 v 13.203125 h -3.61328 V 73.015625 q 0,-3.144531 -1.11328,-4.667969 -1.11329,-1.523437 -3.39844,-1.523437 -2.79297,0 -4.41406,1.855468 -1.6211,1.855469 -1.6211,5.058594 v 12.363281 h -3.61328 V 73.015625 q 0,-3.164063 -1.11328,-4.667969 -1.11328,-1.523437 -3.4375,-1.523437 -2.75391,0 -4.375,1.875 -1.62109,1.855468 -1.62109,5.039062 v 12.363281 h -3.61329 v -21.875 h 3.61329 V 67.625 q 1.23046,-2.011719 2.94921,-2.96875 1.71875,-0.957031 4.08204,-0.957031 2.38281,0 4.04296,1.210937 1.67969,1.210938 2.48047,3.515625 z"
         style="text-align:center;text-anchor:middle"
         id="path7332" />
      <path
         d="m 175.14355,74.265625 v 1.757812 h -16.52343 q 0.23437,3.710938 2.22656,5.664063 2.01172,1.933594 5.58594,1.933594 2.07031,0 4.0039,-0.507813 1.95313,-0.507812 3.86719,-1.523437 v 3.398437 q -1.93359,0.820313 -3.96484,1.25 -2.03125,0.429688 -4.1211,0.429688 -5.23437,0 -8.30078,-3.046875 -3.04687,-3.046875 -3.04687,-8.242188 0,-5.371094 2.89062,-8.515625 2.91016,-3.164062 7.83203,-3.164062 4.41407,0 6.97266,2.851562 2.57812,2.832031 2.57812,7.714844 z m -3.59375,-1.054688 q -0.0391,-2.949218 -1.66015,-4.707031 -1.60156,-1.757812 -4.25781,-1.757812 -3.00782,0 -4.82422,1.699218 -1.79688,1.699219 -2.07032,4.785157 z"
         style="text-align:center;text-anchor:middle"
         id="path7334" />
      <path
         d="m 59.958008,105.71094 h 3.59375 v 30.39062 h -3.59375 z"
         style="text-align:center;text-anchor:middle"
         id="path7336" />
      <path
         d="m 71.071289,114.22656 h 3.59375 v 21.875 h -3.59375 z m 0,-8.51562 h 3.59375 v 4.55078 h -3.59375 z"
         style="text-align:center;text-anchor:middle"
         id="path7338" />
      <path
         d="m 97.887695,125.18359 q 0,-3.96484 -1.640625,-6.21093 -1.621093,-2.26563 -4.472656,-2.26563 -2.851562,0 -4.492187,2.26563 -1.621094,2.24609 -1.621094,6.21093 0,3.96485 1.621094,6.23047 1.640625,2.2461 4.492187,2.2461 2.851563,0 4.472656,-2.2461 1.640625,-2.26562 1.640625,-6.23047 z m -12.226562,-7.63671 q 1.132812,-1.95313 2.851562,-2.89063 1.738282,-0.95703 4.140625,-0.95703 3.984375,0 6.464844,3.16406 2.499996,3.16406 2.499996,8.32031 0,5.15625 -2.499996,8.32032 -2.480469,3.16406 -6.464844,3.16406 -2.402343,0 -4.140625,-0.9375 -1.71875,-0.95703 -2.851562,-2.91016 v 3.28125 h -3.613281 v -30.39062 h 3.613281 z"
         style="text-align:center;text-anchor:middle"
         id="path7340" />
      <path
         d="m 120.25098,117.58594 q -0.60547,-0.35156 -1.32813,-0.50781 -0.70312,-0.17579 -1.5625,-0.17579 -3.04687,0 -4.6875,1.99219 -1.62109,1.97266 -1.62109,5.6836 v 11.52343 h -3.61328 v -21.875 h 3.61328 v 3.39844 q 1.13281,-1.99219 2.94922,-2.94922 1.8164,-0.97656 4.41406,-0.97656 0.37109,0 0.82031,0.0586 0.44922,0.0391 0.9961,0.13672 z"
         style="text-align:center;text-anchor:middle"
         id="path7342" />
      <path
         d="m 133.96191,125.10547 q -4.35546,0 -6.03515,0.99609 -1.67969,0.9961 -1.67969,3.39844 0,1.91406 1.25,3.04687 1.26953,1.11329 3.4375,1.11329 2.98828,0 4.78516,-2.10938 1.8164,-2.12891 1.8164,-5.64453 v -0.80078 z m 7.16797,-1.48438 v 12.48047 h -3.59375 v -3.32031 q -1.23047,1.99219 -3.0664,2.94922 -1.83594,0.9375 -4.49219,0.9375 -3.35938,0 -5.35156,-1.875 -1.97266,-1.89453 -1.97266,-5.0586 0,-3.6914 2.46094,-5.5664 2.48047,-1.875 7.38281,-1.875 h 5.03906 v -0.35156 q 0,-2.48047 -1.64062,-3.82813 -1.6211,-1.36719 -4.57031,-1.36719 -1.875,0 -3.65235,0.44922 -1.77734,0.44922 -3.41797,1.34766 v -3.32031 q 1.97266,-0.76172 3.82813,-1.13282 1.85547,-0.39062 3.61328,-0.39062 4.74609,0 7.08984,2.46094 2.34375,2.46093 2.34375,7.46093 z"
         style="text-align:center;text-anchor:middle"
         id="path7344" />
      <path
         d="m 161.20801,117.58594 q -0.60547,-0.35156 -1.32813,-0.50781 -0.70312,-0.17579 -1.5625,-0.17579 -3.04687,0 -4.6875,1.99219 -1.62109,1.97266 -1.62109,5.6836 v 11.52343 h -3.61328 v -21.875 h 3.61328 v 3.39844 q 1.13281,-1.99219 2.94922,-2.94922 1.8164,-0.97656 4.41406,-0.97656 0.37109,0 0.82031,0.0586 0.44922,0.0391 0.9961,0.13672 z"
         style="text-align:center;text-anchor:middle"
         id="path7346" />
      <path
         d="m 174.0791,138.13281 q -1.52344,3.90625 -2.96875,5.09766 -1.44531,1.1914 -3.86719,1.1914 h -2.87109 v -3.00781 h 2.10938 q 1.48437,0 2.30468,-0.70312 0.82032,-0.70313 1.81641,-3.32032 l 0.64453,-1.64062 -8.84766,-21.52344 h 3.8086 l 6.83594,17.10938 6.83593,-17.10938 h 3.8086 z"
         style="text-align:center;text-anchor:middle"
         id="path7348" />
    </g>
  </g>
</svg>
