<?xml version="1.0" encoding="UTF-8" standalone="no"?>
<!-- Created with Inkscape (http://www.inkscape.org/) -->

<svg
   width="64mm"
   height="64mm"
   viewBox="0 0 64 64"
   version="1.1"
   id="svg5"
   inkscape:version="1.1.2 (0a00cf5339, 2022-02-04)"
   sodipodi:docname="someapp.svg"
   xmlns:inkscape="http://www.inkscape.org/namespaces/inkscape"
   xmlns:sodipodi="http://sodipodi.sourceforge.net/DTD/sodipodi-0.dtd"
   xmlns="http://www.w3.org/2000/svg"
   xmlns:svg="http://www.w3.org/2000/svg">
  <sodipodi:namedview
     id="namedview7"
     pagecolor="#ffffff"
     bordercolor="#666666"
     borderopacity="1.0"
     inkscape:pageshadow="2"
     inkscape:pageopacity="0.0"
     inkscape:pagecheckerboard="0"
     inkscape:document-units="mm"
     showgrid="false"
     showguides="false"
     inkscape:zoom="1.6731601"
     inkscape:cx="240.56275"
     inkscape:cy="51.100907"
     inkscape:window-width="1920"
     inkscape:window-height="995"
     inkscape:window-x="0"
     inkscape:window-y="0"
     inkscape:window-maximized="1"
     inkscape:current-layer="layer1" />
  <defs
     id="defs2">
    <rect
       x="0.24879938"
       y="167.12835"
       width="242.53384"
       height="75.18647"
       id="rect34558" />
    <rect
       x="-0.44713666"
       y="0.88300097"
       width="243.2461"
       height="240.01845"
       id="rect20096" />
    <rect
       x="0.32689823"
       y="2.9946884"
       width="245.07598"
       height="240.36038"
       id="rect6716" />
  </defs>
  <g
     inkscape:label="Layer 1"
     inkscape:groupmode="layer"
     id="layer1">
    <path
       id="path868"
       style="fill:#0000ff;stroke:#000000;stroke-width:0"
       d="m 64,32.315636 a 32,32 0 0 1 -32,32 32,32 0 0 1 -32,-32 A 32,32 0 0 1 32,0.31563568 32,32 0 0 1 64,32.315636 Z" />
    <g
       transform="scale(0.26458333)"
       id="text6714"
       style="font-size:173.333px;line-height:1.25;-inkscape-font-specification:sans-serif;white-space:pre;shape-inside:url(#rect6716)" />
    <g
       aria-label="?"
       transform="scale(0.26458333)"
       id="text20094"
       style="font-size:173.333px;line-height:1.25;-inkscape-font-specification:sans-serif;white-space:pre;shape-inside:url(#rect20096)">
      <path
         d="m 108.26891,132.74453 h 17.18095 v 21.49736 h -17.18095 z m 16.67314,-12.44138 h -16.16533 v -13.03383 q 0,-8.548158 2.36978,-14.049449 2.36979,-5.501292 9.98696,-12.779923 l 7.61718,-7.532538 q 4.82421,-4.485668 6.94009,-8.463525 2.20051,-3.977856 2.20051,-8.124984 0,-7.532537 -5.58592,-12.187476 -5.50129,-4.654938 -14.6419,-4.654938 -6.68619,0 -14.30336,2.962233 -7.532536,2.962234 -15.742155,8.632796 V 35.160089 q 7.955713,-4.824209 16.080695,-7.193996 8.20962,-2.369787 16.92705,-2.369787 15.57289,0 24.9674,8.209619 9.47915,8.209619 9.47915,21.666624 0,6.432279 -3.04687,12.272111 -3.04687,5.755197 -10.66404,13.033829 l -7.4479,7.278631 q -3.97786,3.977857 -5.67057,6.263009 -1.60807,2.200516 -2.28515,4.316398 -0.50781,1.777343 -0.76171,4.316393 -0.25391,2.53906 -0.25391,6.94009 z"
         style="text-align:center;text-anchor:middle;fill:#ffffff"
         id="path46217" />
    </g>
    <g
       aria-label="SOME
APPLICATION"
       transform="matrix(0.26458333,0,0,0.26458333,-0.44225403,-3.7276359)"
       id="text34556"
       style="font-size:26.6667px;line-height:1.25;-inkscape-font-specification:sans-serif;white-space:pre;shape-inside:url(#rect34558);fill:#ffffff">
      <path
         d="m 96.899708,171.92058 v 2.56511 q -1.497397,-0.71615 -2.825524,-1.06771 -1.328127,-0.35157 -2.565107,-0.35157 -2.148441,0 -3.320317,0.83334 -1.158856,0.83333 -1.158856,2.36979 0,1.28907 0.76823,1.95313 0.781251,0.65104 2.942713,1.05469 l 1.588543,0.32552 q 2.942712,0.5599 4.335943,1.97917 1.406252,1.40625 1.406252,3.77605 0,2.82552 -1.901044,4.28386 -1.888023,1.45833 -5.546882,1.45833 -1.38021,0 -2.942712,-0.3125 -1.549481,-0.3125 -3.21615,-0.92448 v -2.70834 q 1.601564,0.89844 3.138025,1.35417 1.53646,0.45573 3.020837,0.45573 2.252607,0 3.476567,-0.88542 1.22396,-0.88541 1.22396,-2.52604 0,-1.43229 -0.885418,-2.23959 -0.872397,-0.80729 -2.877608,-1.21094 l -1.601564,-0.3125 q -2.942713,-0.58594 -4.257818,-1.83594 -1.315106,-1.25 -1.315106,-3.47656 0,-2.57813 1.809898,-4.06251 1.822919,-1.48438 5.013027,-1.48438 1.367189,0 2.786462,0.2474 1.419273,0.2474 2.903649,0.74219 z"
         style="text-align:center;text-anchor:middle"
         id="path46186" />
      <path
         d="m 110.06379,173.06641 q -2.86459,0 -4.5573,2.13542 -1.67969,2.13542 -1.67969,5.82032 0,3.67188 1.67969,5.8073 1.69271,2.13542 4.5573,2.13542 2.86458,0 4.53125,-2.13542 1.67969,-2.13542 1.67969,-5.8073 0,-3.6849 -1.67969,-5.82032 -1.66667,-2.13542 -4.53125,-2.13542 z m 0,-2.13542 q 4.08854,0 6.53646,2.7474 2.44792,2.73438 2.44792,7.34376 0,4.59636 -2.44792,7.34376 -2.44792,2.73438 -6.53646,2.73438 -4.10157,0 -6.56251,-2.73438 -2.44792,-2.73438 -2.44792,-7.34376 0,-4.60938 2.44792,-7.34376 2.46094,-2.7474 6.56251,-2.7474 z"
         style="text-align:center;text-anchor:middle"
         id="path46188" />
      <path
         d="m 123.16277,171.28256 h 3.91927 l 4.96095,13.22918 4.98698,-13.22918 h 3.91928 v 19.44013 h -2.56511 v -17.07034 l -5.01303,13.33335 h -2.64323 l -5.01303,-13.33335 v 17.07034 h -2.55208 z"
         style="text-align:center;text-anchor:middle"
         id="path46190" />
      <path
         d="m 146.1706,171.28256 h 12.29169 v 2.21354 h -9.66147 v 5.75522 h 9.25782 v 2.21354 h -9.25782 v 7.04428 h 9.89584 v 2.21355 H 146.1706 Z"
         style="text-align:center;text-anchor:middle"
         id="path46192" />
      <path
         d="m 44.126204,207.20708 -3.567713,9.67449 h 7.148447 z m -1.484377,-2.59115 h 2.981775 l 7.408864,19.44013 h -2.734379 l -1.770835,-4.98699 H 39.76422 l -1.770836,4.98699 h -2.773441 z"
         style="text-align:center;text-anchor:middle"
         id="path46194" />
      <path
         d="m 58.501222,206.77739 v 7.3047 h 3.307296 q 1.83594,0 2.838545,-0.95052 1.002606,-0.95052 1.002606,-2.70834 0,-1.74479 -1.002606,-2.69532 -1.002605,-0.95052 -2.838545,-0.95052 z m -2.630211,-2.16146 h 5.937507 q 3.268233,0 4.934902,1.48438 1.67969,1.47135 1.67969,4.32292 0,2.87761 -1.67969,4.34896 -1.666669,1.47136 -4.934902,1.47136 h -3.307296 v 7.81251 h -2.630211 z"
         style="text-align:center;text-anchor:middle"
         id="path46196" />
      <path
         d="m 74.581972,206.77739 v 7.3047 h 3.307296 q 1.835939,0 2.838545,-0.95052 1.002605,-0.95052 1.002605,-2.70834 0,-1.74479 -1.002605,-2.69532 -1.002606,-0.95052 -2.838545,-0.95052 z m -2.630212,-2.16146 h 5.937508 q 3.268233,0 4.934902,1.48438 1.679689,1.47135 1.679689,4.32292 0,2.87761 -1.679689,4.34896 -1.666669,1.47136 -4.934902,1.47136 h -3.307296 v 7.81251 H 71.95176 Z"
         style="text-align:center;text-anchor:middle"
         id="path46198" />
      <path
         d="m 88.03251,204.61593 h 2.630211 v 17.22659 h 9.466159 v 2.21354 H 88.03251 Z"
         style="text-align:center;text-anchor:middle"
         id="path46200" />
      <path
         d="m 102.8893,204.61593 h 2.63021 v 19.44013 h -2.63021 z"
         style="text-align:center;text-anchor:middle"
         id="path46202" />
      <path
         d="m 125.3112,206.11333 v 2.77344 q -1.32812,-1.23698 -2.83854,-1.84896 -1.4974,-0.61198 -3.19011,-0.61198 -3.33334,0 -5.10417,2.04427 -1.77084,2.03126 -1.77084,5.88543 0,3.84115 1.77084,5.88542 1.77083,2.03125 5.10417,2.03125 1.69271,0 3.19011,-0.61198 1.51042,-0.61198 2.83854,-1.84896 v 2.7474 q -1.38021,0.9375 -2.92969,1.40625 -1.53646,0.46875 -3.25521,0.46875 -4.41407,0 -6.95314,-2.69531 -2.53906,-2.70834 -2.53906,-7.38282 0,-4.68751 2.53906,-7.38282 2.53907,-2.70834 6.95314,-2.70834 1.74479,0 3.28125,0.46875 1.54948,0.45573 2.90365,1.38021 z"
         style="text-align:center;text-anchor:middle"
         id="path46204" />
      <path
         d="m 135.87112,207.20708 -3.56772,9.67449 h 7.14845 z m -1.48438,-2.59115 h 2.98177 l 7.40887,19.44013 H 142.043 l -1.77084,-4.98699 h -8.76303 l -1.77083,4.98699 h -2.77345 z"
         style="text-align:center;text-anchor:middle"
         id="path46206" />
      <path
         d="m 142.85029,204.61593 h 16.44533 v 2.21355 h -6.90105 v 17.22658 h -2.64323 v -17.22658 h -6.90105 z"
         style="text-align:center;text-anchor:middle"
         id="path46208" />
      <path
         d="m 161.83469,204.61593 h 2.63021 v 19.44013 h -2.63021 z"
         style="text-align:center;text-anchor:middle"
         id="path46210" />
      <path
         d="m 177.58992,206.39979 q -2.86459,0 -4.5573,2.13542 -1.67969,2.13542 -1.67969,5.82032 0,3.67188 1.67969,5.8073 1.69271,2.13542 4.5573,2.13542 2.86458,0 4.53125,-2.13542 1.67969,-2.13542 1.67969,-5.8073 0,-3.6849 -1.67969,-5.82032 -1.66667,-2.13542 -4.53125,-2.13542 z m 0,-2.13542 q 4.08854,0 6.53646,2.7474 2.44792,2.73438 2.44792,7.34376 0,4.59636 -2.44792,7.34376 -2.44792,2.73437 -6.53646,2.73437 -4.10157,0 -6.56251,-2.73437 -2.44792,-2.73438 -2.44792,-7.34376 0,-4.60938 2.44792,-7.34376 2.46094,-2.7474 6.56251,-2.7474 z"
         style="text-align:center;text-anchor:middle"
         id="path46212" />
      <path
         d="m 190.68889,204.61593 h 3.54167 l 8.6198,16.26304 v -16.26304 h 2.55209 v 19.44013 h -3.54167 l -8.6198,-16.26304 v 16.26304 h -2.55209 z"
         style="text-align:center;text-anchor:middle"
         id="path46214" />
    </g>
  </g>
</svg>
